<?xml version="1.0" encoding="UTF-8" standalone="no"?>
<!-- Created with Inkscape (http://www.inkscape.org/) -->

<svg
   width="90.550003mm"
   height="46.566681mm"
   viewBox="0 0 90.550003 46.566681"
   version="1.1"
   id="svg5"
   xml:space="preserve"
   sodipodi:docname="yuumbread.svg"
   inkscape:version="1.2 (dc2aedaf03, 2022-05-15)"
   xmlns:inkscape="http://www.inkscape.org/namespaces/inkscape"
   xmlns:sodipodi="http://sodipodi.sourceforge.net/DTD/sodipodi-0.dtd"
   xmlns="http://www.w3.org/2000/svg"
   xmlns:svg="http://www.w3.org/2000/svg"><sodipodi:namedview
     id="namedview7"
     pagecolor="#ffffff"
     bordercolor="#666666"
     borderopacity="1.0"
     inkscape:showpageshadow="2"
     inkscape:pageopacity="0.0"
     inkscape:pagecheckerboard="0"
     inkscape:deskcolor="#d1d1d1"
     inkscape:document-units="mm"
     showgrid="false"
     inkscape:zoom="2.7830997"
     inkscape:cx="117.85421"
     inkscape:cy="105.99692"
     inkscape:window-width="1920"
     inkscape:window-height="1009"
     inkscape:window-x="-8"
     inkscape:window-y="-8"
     inkscape:window-maximized="1"
     inkscape:current-layer="layer1" /><defs
     id="defs2" /><g
     inkscape:label="Layer 1"
     inkscape:groupmode="layer"
     id="layer1"
     transform="translate(-51.124849,-221.59548)"><g
       id="g650"
       transform="translate(-5.4710525,46.56667)"
       inkscape:export-filename="yuumbread2.svg"
       inkscape:export-xdpi="191"
       inkscape:export-ydpi="191"><path
         style="fill:#e6bd63;stroke-width:0.264583"
         d="m 87.287569,221.06632 v -0.52917 h -1.058334 -1.058333 v -0.52916 -0.52917 h -1.058333 -1.058334 v -0.52917 -0.52916 h -1.058333 -1.058333 v -0.52917 -0.52917 h -0.529167 -0.529167 v -0.52916 -0.52917 h -0.529167 -0.529166 v -0.52917 -0.52916 h -0.529167 -0.529167 v -1.05834 -1.05833 h -0.529166 -0.529167 v -1.05833 -1.05834 h -0.529167 -0.529166 v -0.52916 -0.52917 h -0.529167 -0.529167 v -1.05833 -1.05834 h -0.529166 -0.529167 v -1.05833 -1.05833 h -0.529167 -0.529166 v -0.52917 -0.52917 h -1.5875 -1.587501 v -0.52916 -0.52917 h -1.058333 -1.058333 v -0.52917 -0.52916 h -1.058334 -1.058333 v -0.52917 -0.52917 h -2.116667 -2.116667 v 0.52917 0.52917 h -1.5875 -1.5875 v -0.52917 -0.52917 h -0.529166 -0.529167 v -0.52916 -0.52917 h 1.058333 1.058334 v 0.52917 0.52916 h 1.058333 1.058333 v -0.52916 -0.52917 h 1.587501 1.5875 v -1.05833 -1.05834 h -2.645834 -2.645833 v -0.52916 -0.52917 h -0.529167 -0.529167 v -1.05833 -1.05834 h 1.058334 1.058333 v 0.52917 0.52917 h -0.529167 -0.529166 v 0.52916 0.52917 h 2.645833 2.645834 v -0.52917 -0.52916 h 0.529166 0.529167 v -1.5875 -1.5875 h -0.529167 -0.529166 v -0.52917 -0.52917 h -0.529167 -0.529167 v -0.52916 -0.52917 h -0.529166 -0.529167 v -0.52917 -0.52916 h -0.529167 -0.529167 v -0.52917 -0.52917 h -0.529166 -0.529167 v -1.5875 -1.5875 h 4.7625 4.7625 v 0.52917 0.52917 h 1.587501 1.5875 v 0.52916 0.52917 h 1.058333 1.058333 v -0.52917 -0.52916 h 0.529167 0.529167 v -1.05834 -1.05833 h -0.529167 -0.529167 v -0.52917 -0.52916 h -0.529166 -0.529167 v -0.52917 -0.52917 h -2.116667 -2.116667 v 0.52917 0.52917 h -1.5875 -1.5875 v -1.5875 -1.5875 h 1.5875 1.5875 v 0.52916 0.52917 h 2.116667 2.116667 v 0.52917 0.52916 h 0.529167 0.529166 v 0.52917 0.52917 h 0.529167 0.529167 v 0.52916 0.52917 h 0.529166 0.529167 v 1.05833 1.05834 h 3.704167 3.704167 v -0.52917 -0.52917 h 0.529166 0.529167 v -0.52916 -0.52917 h 1.058333 1.058334 v -0.52917 -0.52916 h 0.529166 0.529167 v -0.52917 -0.52917 h 0.529167 0.529167 v -0.52916 -0.52917 h 1.058333 1.058333 v -0.52917 -0.52916 h 1.058334 1.058333 v 1.05833 1.05833 h 0.529167 0.529166 v 3.70417 3.70417 h -0.529166 -0.529167 v 1.05833 1.05833 h 0.529167 0.529166 v 0.52917 0.52917 h 0.529167 0.529167 v 0.52916 0.52917 h 1.5875 1.5875 v -1.05833 -1.05834 h 0.529167 0.529166 v -0.52916 -0.52917 h 0.529171 0.52916 v 0.52917 0.52916 h 0.52917 0.52917 v 0.52917 0.52917 h -0.52917 -0.52917 v 0.52916 0.52917 h -1.058331 -1.058333 v 0.52917 0.52916 h -1.058334 -1.058333 v 1.05834 1.05833 h 1.5875 1.5875 v 0.52917 0.52916 h -2.116667 -2.116666 v 0.52917 0.52917 h -0.529167 -0.529167 v 0.52916 0.52917 h -0.529166 -0.529167 v 0.52917 0.52916 h 1.5875 1.5875 v -0.52916 -0.52917 h 1.5875 1.5875 v -0.52917 -0.52916 h 1.587501 1.5875 v -0.52917 -0.52917 h 1.5875 1.5875 v -0.52916 -0.52917 h 3.175 3.175 v 0.52917 0.52916 h 1.5875 1.5875 v 0.52917 0.52917 h 1.5875 1.5875 v 0.52916 0.52917 h 1.5875 1.5875 v 0.52917 0.52916 h 1.05833 1.05834 v -1.05833 -1.05833 h 0.52916 0.52917 v -0.52917 -0.52917 h 1.05833 1.05834 v -0.52916 -0.52917 h 0.52916 0.52917 v -0.52917 -0.52916 h 0.52917 0.52916 v -1.05834 -1.05833 h 0.52917 0.52917 v -1.05833 -1.05834 h 0.52916 0.52917 v -1.05833 -1.05833 h 0.52917 0.52916 v -1.05834 -1.05833 h 0.52917 0.52917 v -4.23333 -4.23334 h -3.70417 -3.70417 v 0.52917 0.52917 h -1.5875 -1.5875 v -1.5875 -1.5875 h 0.52917 0.52917 v -0.52917 -0.52917 h 1.05833 1.05833 v -0.52916 -0.52917 h 3.70417 3.70417 v 0.52917 0.52916 h 1.05833 1.05833 v 0.52917 0.52917 h 0.52917 0.52917 v 0.52916 0.52917 h 0.52916 0.52917 v 1.05833 1.05834 h 0.52917 0.52916 v 4.7625 4.7625 h -0.52916 -0.52917 v 2.11666 2.11667 h -0.52917 -0.52916 v 1.05833 1.05834 h -0.52917 -0.52917 v 1.05833 1.05833 h -0.52916 -0.52917 v 1.05834 1.05833 h -0.52917 -0.52916 v 1.05833 1.05834 h -0.52917 -0.52917 v 4.23333 4.23333 h -0.52916 -0.52917 v 1.5875 1.5875 h -0.52917 -0.52916 v 0.52917 0.52917 h -0.52917 -0.52917 v 0.52916 0.52917 h -0.52916 -0.52917 v 0.52917 0.52916 h -1.05833 -1.05834 v 0.52917 0.52917 h -1.05833 -1.05833 v 0.52916 0.52917 h -2.11667 -2.11667 v 0.52917 0.52916 h -3.70416 -3.70417 v 0.52917 0.52917 h -12.700001 -12.7 z m 6.35,-19.05 v -0.52917 h -0.529167 -0.529166 v 0.52917 0.52917 h 0.529166 0.529167 z m 7.408331,-5.29167 v -0.52916 h 0.52917 0.52917 v -0.52917 -0.52917 h 0.52916 0.52917 v 1.05834 1.05833 h -1.05833 -1.05834 z"
         id="path668" /><path
         style="fill:#8892b7;stroke-width:0.264583"
         d="m 87.287569,221.06632 v -0.52917 h -1.058334 -1.058333 v -0.52916 -0.52917 h -1.058333 -1.058334 v -0.52917 -0.52916 h -1.058333 -1.058333 v -0.52917 -0.52917 h -0.529167 -0.529167 v -0.52916 -0.52917 h -0.529167 -0.529166 v -0.52917 -0.52916 h -0.529167 -0.529167 v -1.05834 -1.05833 h -0.529166 -0.529167 v -1.05833 -1.05834 h -0.529167 -0.529166 v -0.52916 -0.52917 h -0.529167 -0.529167 v -1.05833 -1.05834 h -0.529166 -0.529167 v -1.05833 -1.05833 h -0.529167 -0.529166 v -0.52917 -0.52917 h -1.5875 -1.587501 v -0.52916 -0.52917 h -1.058333 -1.058333 v -0.52917 -0.52916 h -1.058334 -1.058333 v -0.52917 -0.52917 h 0.529167 0.529166 v -0.52916 -0.52917 h -1.058333 -1.058333 v -1.05833 -1.05834 h 1.058333 1.058333 v -0.52916 -0.52917 h -1.058333 -1.058333 v -0.52917 -0.52916 h 0.529166 0.529167 v -1.5875 -1.5875 h -0.529167 -0.529166 v -0.52917 -0.52917 h -0.529167 -0.529167 v -0.52916 -0.52917 h -0.529166 -0.529167 v -0.52917 -0.52916 h -0.529167 -0.529167 v -0.52917 -0.52917 h -0.529166 -0.529167 v -1.5875 -1.5875 h 4.7625 4.7625 v 0.52917 0.52917 h 1.587501 1.5875 v 0.52916 0.52917 h 1.058333 1.058333 v -0.52917 -0.52916 h 4.7625 4.762501 v -0.52917 -0.52917 h 0.529166 0.529167 v -0.52916 -0.52917 h 1.058333 1.058334 v -0.52917 -0.52916 h 0.529166 0.529167 v -0.52917 -0.52917 h 0.529167 0.529167 v -0.52916 -0.52917 h 1.058333 1.058333 v -0.52917 -0.52916 h 1.058334 1.058333 v 1.05833 1.05833 h 0.529167 0.529166 v 3.70417 3.70417 h -0.529166 -0.529167 v 1.05833 1.05833 h 0.529167 0.529166 v 0.52917 0.52917 h 0.529167 0.529167 v 1.05833 1.05833 h 0.529166 0.529167 v 1.05834 1.05833 h -2.116667 -2.116666 v 0.52917 0.52916 h 1.5875 1.5875 v 0.52917 0.52917 h -0.529167 -0.529167 v 0.52916 0.52917 h -0.529166 -0.529167 v 0.52917 0.52916 h 1.5875 1.5875 v -0.52916 -0.52917 h 1.5875 1.5875 v -0.52917 -0.52916 h 1.587501 1.5875 v -0.52917 -0.52917 h 1.5875 1.5875 v -0.52916 -0.52917 h 3.175 3.175 v 0.52917 0.52916 h 1.5875 1.5875 v 0.52917 0.52917 h 1.5875 1.5875 v 0.52916 0.52917 h 1.5875 1.5875 v 0.52917 0.52916 h 1.05833 1.05834 v -1.05833 -1.05833 h 0.52916 0.52917 v -0.52917 -0.52917 h 1.05833 1.05834 v -0.52916 -0.52917 h 0.52916 0.52917 v -0.52917 -0.52916 h 0.52917 0.52916 v -1.05834 -1.05833 h 0.52917 0.52917 v -1.05833 -1.05834 h 0.52916 0.52917 v -1.05833 -1.05833 h 0.52917 0.52916 v -1.05834 -1.05833 h 0.52917 0.52917 v -4.23333 -4.23334 h -3.70417 -3.70417 v 0.52917 0.52917 h -1.5875 -1.5875 v -1.5875 -1.5875 h 0.52917 0.52917 v -0.52917 -0.52917 h 1.05833 1.05833 v -0.52916 -0.52917 h 3.70417 3.70417 v 0.52917 0.52916 h 1.05833 1.05833 v 0.52917 0.52917 h 0.52917 0.52917 v 0.52916 0.52917 h 0.52916 0.52917 v 1.05833 1.05834 h 0.52917 0.52916 v 4.7625 4.7625 h -0.52916 -0.52917 v 2.11666 2.11667 h -0.52917 -0.52916 v 1.05833 1.05834 h -0.52917 -0.52917 v 1.05833 1.05833 h -0.52916 -0.52917 v 1.05834 1.05833 h -0.52917 -0.52916 v 1.05833 1.05834 h -0.52917 -0.52917 v 4.23333 4.23333 h -0.52916 -0.52917 v 1.5875 1.5875 h -0.52917 -0.52916 v 0.52917 0.52917 h -0.52917 -0.52917 v 0.52916 0.52917 h -0.52916 -0.52917 v 0.52917 0.52916 h -1.05833 -1.05834 v 0.52917 0.52917 h -1.05833 -1.05833 v 0.52916 0.52917 h -2.11667 -2.11667 v 0.52917 0.52916 h -3.70416 -3.70417 v 0.52917 0.52917 h -12.700001 -12.7 z m -2.116667,-10.58333 v -1.5875 h 0.529167 0.529166 v -1.05834 -1.05833 h 0.529167 0.529167 v -0.52917 -0.52916 h 0.529166 0.529167 v -0.52917 -0.52917 h 0.529167 0.529167 v -0.52916 -0.52917 h -0.529167 -0.529167 v 0.52917 0.52916 h -1.5875 -1.5875 v 0.52917 0.52917 h -4.7625 -4.7625 v 0.52916 0.52917 h 1.058333 1.058333 v 0.52917 0.52916 h 0.529167 0.529167 v 0.52917 0.52917 h 1.058333 1.058334 v 0.52916 0.52917 h 0.529166 0.529167 v 0.52917 0.52916 h 0.529167 0.529166 v 0.52917 0.52917 h 1.058334 1.058333 z m -3.175,-2.64584 v -1.05833 h 0.529167 0.529166 v 1.05833 1.05834 h -0.529166 -0.529167 z m 11.641667,-5.82083 v -0.52917 h -0.529167 -0.529166 v 0.52917 0.52917 h 0.529166 0.529167 z m -25.400001,-2.11667 v -0.52916 h -1.058333 -1.058334 v 0.52916 0.52917 h 1.058334 1.058333 z m 0,-3.175 v -0.52916 h -1.058333 -1.058334 v 0.52916 0.52917 h 1.058334 1.058333 z m 27.516668,-1.05833 v -0.52917 h -1.5875 -1.5875 v 0.52917 0.52917 h 1.5875 1.5875 z M 66.120901,181.90799 v -1.5875 h 1.5875 1.5875 v 0.52916 0.52917 h 0.529167 0.529167 v 0.52917 0.52916 h -0.529167 -0.529167 v 0.52917 0.52917 h -1.5875 -1.5875 z"
         id="path666" /><path
         style="fill:#828cb1;stroke-width:0.264583"
         d="m 87.287569,221.06632 v -0.52917 h -1.058334 -1.058333 v -0.52916 -0.52917 h -1.058333 -1.058334 v -0.52917 -0.52916 h -1.058333 -1.058333 v -0.52917 -0.52917 h -0.529167 -0.529167 v -0.52916 -0.52917 h -0.529167 -0.529166 v -0.52917 -0.52916 h -0.529167 -0.529167 v -1.05834 -1.05833 h -0.529166 -0.529167 v -1.05833 -1.05834 h -0.529167 -0.529166 v -0.52916 -0.52917 h -0.529167 -0.529167 v -1.05833 -1.05834 h -0.529166 -0.529167 v -1.05833 -1.05833 h -0.529167 -0.529166 v -0.52917 -0.52917 h -1.5875 -1.587501 v -0.52916 -0.52917 h -1.058333 -1.058333 v -0.52917 -0.52916 h -1.058334 -1.058333 v -0.52917 -0.52917 h 0.529167 0.529166 v -0.52916 -0.52917 h -1.058333 -1.058333 v -1.05833 -1.05834 h 1.058333 1.058333 v -0.52916 -0.52917 h -1.058333 -1.058333 v -0.52917 -0.52916 h 0.529166 0.529167 v -1.5875 -1.5875 h -0.529167 -0.529166 v -0.52917 -0.52917 h -0.529167 -0.529167 v -0.52916 -0.52917 h -0.529166 -0.529167 v -0.52917 -0.52916 h -0.529167 -0.529167 v -0.52917 -0.52917 h -0.529166 -0.529167 v -1.5875 -1.5875 h 4.7625 4.7625 v 0.52917 0.52917 h 1.587501 1.5875 v 0.52916 0.52917 h 1.058333 1.058333 v -0.52917 -0.52916 h 4.7625 4.762501 v -0.52917 -0.52917 h 0.529166 0.529167 v -0.52916 -0.52917 h 1.058333 1.058334 v -0.52917 -0.52916 h 0.529166 0.529167 v -0.52917 -0.52917 h 0.529167 0.529167 v -0.52916 -0.52917 h 1.058333 1.058333 v -0.52917 -0.52916 h 1.058334 1.058333 v 1.05833 1.05833 h 0.529167 0.529166 v 3.70417 3.70417 h -0.529166 -0.529167 v 1.05833 1.05833 h 0.529167 0.529166 v 0.52917 0.52917 h 0.529167 0.529167 v 1.05833 1.05833 h 0.529166 0.529167 v 1.05834 1.05833 h -2.116667 -2.116666 v 0.52917 0.52916 h 1.5875 1.5875 v 0.52917 0.52917 h -0.529167 -0.529167 v 0.52916 0.52917 h -0.529166 -0.529167 v 0.52917 0.52916 h 1.5875 1.5875 v -0.52916 -0.52917 h 1.5875 1.5875 v -0.52917 -0.52916 h 1.587501 1.5875 v -0.52917 -0.52917 h 1.5875 1.5875 v -0.52916 -0.52917 h 3.175 3.175 v 0.52917 0.52916 h 1.5875 1.5875 v 0.52917 0.52917 h 1.5875 1.5875 v 0.52916 0.52917 h 1.5875 1.5875 v 0.52917 0.52916 h 1.05833 1.05834 v -1.05833 -1.05833 h 0.52916 0.52917 v -0.52917 -0.52917 h 1.05833 1.05834 v -0.52916 -0.52917 h 0.52916 0.52917 v -0.52917 -0.52916 h 0.52917 0.52916 v -1.05834 -1.05833 h 0.52917 0.52917 v -1.05833 -1.05834 h 0.52916 0.52917 v -1.05833 -1.05833 h 0.52917 0.52916 v -1.05834 -1.05833 h 0.52917 0.52917 v -4.23333 -4.23334 h -3.70417 -3.70417 v 0.52917 0.52917 h -1.5875 -1.5875 v -1.5875 -1.5875 h 0.52917 0.52917 v -0.52917 -0.52917 h 1.05833 1.05833 v -0.52916 -0.52917 h 3.70417 3.70417 v 0.52917 0.52916 h 1.05833 1.05833 v 0.52917 0.52917 h 0.52917 0.52917 v 0.52916 0.52917 h 0.52916 0.52917 v 1.05833 1.05834 h 0.52917 0.52916 v 4.7625 4.7625 h -0.52916 -0.52917 v 2.11666 2.11667 h -0.52917 -0.52916 v 1.05833 1.05834 h -0.52917 -0.52917 v 1.05833 1.05833 h -0.52916 -0.52917 v 1.05834 1.05833 h -0.52917 -0.52916 v 1.05833 1.05834 h -0.52917 -0.52917 v 4.23333 4.23333 h -0.52916 -0.52917 v 1.5875 1.5875 h -0.52917 -0.52916 v 0.52917 0.52917 h -0.52917 -0.52917 v 0.52916 0.52917 h -0.52916 -0.52917 v 0.52917 0.52916 h -1.05833 -1.05834 v 0.52917 0.52917 h -1.05833 -1.05833 v 0.52916 0.52917 h -2.11667 -2.11667 v 0.52917 0.52916 h -3.70416 -3.70417 v 0.52917 0.52917 h -12.700001 -12.7 z m 13.758331,-6.35 v -0.52917 h 0.52917 0.52917 v -0.52916 -0.52917 h 0.52916 0.52917 v -6.35 -6.35 h -1.5875 -1.587501 v 0.52917 0.52916 h -0.529166 -0.529167 v 1.05834 1.05833 h 0.529167 0.529166 v 5.82083 5.82084 h 0.529171 0.52916 z m 7.40834,-1.05833 v -0.52917 h 0.52916 0.52917 v -0.52917 -0.52916 h 0.52917 0.52916 v -6.87917 -6.87917 h -2.11666 -2.11667 v 0.52917 0.52917 h 0.52917 0.52916 v 7.40833 7.40833 h 0.52917 0.52917 z m -23.283338,-3.175 v -1.5875 h 0.529167 0.529166 v -1.05834 -1.05833 h 0.529167 0.529167 v -0.52917 -0.52916 h 0.529166 0.529167 v -0.52917 -0.52917 h 0.529167 0.529167 v -0.52916 -0.52917 h -0.529167 -0.529167 v 0.52917 0.52916 h -1.5875 -1.5875 v 0.52917 0.52917 h -4.7625 -4.7625 v 0.52916 0.52917 h 1.058333 1.058333 v 0.52917 0.52916 h 0.529167 0.529167 v 0.52917 0.52917 h 1.058333 1.058334 v 0.52916 0.52917 h 0.529166 0.529167 v 0.52917 0.52916 h 0.529167 0.529166 v 0.52917 0.52917 h 1.058334 1.058333 z m -3.175,-2.64584 v -1.05833 h 0.529167 0.529166 v 1.05833 1.05834 h -0.529166 -0.529167 z m 33.866668,3.175 v -1.05833 h 0.52917 0.52916 v -1.05833 -1.05834 h 0.52917 0.52917 v -3.70416 -3.70417 h -1.05834 -1.05833 v -0.52917 -0.52916 h -1.05833 -1.05834 v 6.35 6.35 h 1.05834 1.05833 z m -22.225001,-8.99583 v -0.52917 h -0.529167 -0.529166 v 0.52917 0.52917 h 0.529166 0.529167 z m -10.583334,-1.05833 v -0.52917 h -0.529166 -0.529167 v 0.52917 0.52916 h 0.529167 0.529166 z m -14.816667,-1.05834 v -0.52916 h -1.058333 -1.058334 v 0.52916 0.52917 h 1.058334 1.058333 z m 0,-3.175 v -0.52916 h -1.058333 -1.058334 v 0.52916 0.52917 h 1.058334 1.058333 z m 27.516668,-1.05833 v -0.52917 h -1.5875 -1.5875 v 0.52917 0.52917 h 1.5875 1.5875 z M 66.120901,181.90799 v -1.5875 h 1.5875 1.5875 v 0.52916 0.52917 h 0.529167 0.529167 v 0.52917 0.52916 h -0.529167 -0.529167 v 0.52917 0.52917 h -1.5875 -1.5875 z"
         id="path664" /><path
         style="fill:#618ec9;stroke-width:0.264583"
         d="m 87.287569,221.06632 v -0.52917 h -1.058334 -1.058333 v -0.52916 -0.52917 h 1.058333 1.058334 v 0.52917 0.52916 h 6.879167 6.879164 v 0.52917 0.52917 h -6.879164 -6.879167 z m 14.816671,0 v -0.52917 h 5.29166 5.29167 v 0.52917 0.52917 h -5.29167 -5.29166 z m 15.875,-1.05833 v -0.52917 h 1.05833 1.05833 v 0.52917 0.52916 h -1.05833 -1.05833 z m -34.925005,-1.05834 v -0.52916 h 0.529167 0.529167 v 0.52916 0.52917 h -0.529167 -0.529167 z m 39.158335,0 v -0.52916 h 1.05833 1.05834 v 0.52916 0.52917 h -1.05834 -1.05833 z m -41.275001,-1.05833 v -0.52917 h -0.529167 -0.529167 v -0.52916 -0.52917 h -0.529167 -0.529166 v -0.52917 -0.52916 h -0.529167 -0.529167 v -0.52917 -0.52917 h 0.529167 0.529167 v -0.52916 -0.52917 h -1.058334 -1.058333 v -1.05833 -1.05834 h -0.529167 -0.529166 v -0.52916 -0.52917 h -0.529167 -0.529167 v -1.05833 -1.05834 h -0.529166 -0.529167 v -1.05833 -1.05833 h -0.529167 -0.529166 v -0.52917 -0.52917 h -1.5875 -1.587501 v -0.52916 -0.52917 h -1.058333 -1.058333 v -0.52917 -0.52916 h -1.058334 -1.058333 v -0.52917 -0.52917 h 1.058333 1.058334 v 0.52917 0.52917 h 1.058333 1.058333 v 0.52916 0.52917 h 1.587501 1.5875 v 0.52917 0.52916 h 1.058333 1.058333 v 0.52917 0.52917 h 0.529167 0.529167 v 0.52916 0.52917 h 1.058333 1.058333 v 0.52917 0.52916 h 0.529167 0.529167 v 0.52917 0.52917 h 1.058333 1.058334 v 0.52916 0.52917 h 0.529166 0.529167 v 0.52917 0.52916 h 0.529167 0.529166 v 0.52917 0.52917 h 1.058334 1.058333 v -1.5875 -1.5875 h 0.529167 0.529166 v -1.05834 -1.05833 h 0.529167 0.529167 v -0.52917 -0.52916 h 0.529166 0.529167 v -0.52917 -0.52917 h -0.529167 -0.529166 v -0.52916 -0.52917 h 0.529166 0.529167 v 0.52917 0.52916 h 0.529167 0.529167 v -0.52916 -0.52917 h 0.529166 0.529167 v -0.52917 -0.52916 h 0.529167 0.529166 v -0.52917 -0.52917 h 0.529167 0.529167 v -0.52916 -0.52917 h 0.529166 0.529167 v -0.52917 -0.52916 h 0.529167 0.529166 v 0.52916 0.52917 h -0.529166 -0.529167 v 0.52917 0.52916 h 1.5875 1.5875 v -0.52916 -0.52917 h 1.5875 1.5875 v -0.52917 -0.52916 h 1.587501 1.5875 v -0.52917 -0.52917 h 1.5875 1.5875 v -0.52916 -0.52917 h 3.175 3.175 v 0.52917 0.52916 h 1.5875 1.5875 v 0.52917 0.52917 h 1.5875 1.5875 v 0.52916 0.52917 h 1.5875 1.5875 v 0.52917 0.52916 h 1.05833 1.05834 v -1.05833 -1.05833 h 0.52916 0.52917 v -0.52917 -0.52917 h 1.05833 1.05834 v -0.52916 -0.52917 h 0.52916 0.52917 v -0.52917 -0.52916 h 0.52917 0.52916 v -1.05834 -1.05833 h 0.52917 0.52917 v -1.05833 -1.05834 h 0.52916 0.52917 v -1.05833 -1.05833 h 0.52917 0.52916 v -1.05834 -1.05833 h 0.52917 0.52917 v -4.23333 -4.23334 h -3.70417 -3.70417 v 0.52917 0.52917 h -1.5875 -1.5875 v -1.5875 -1.5875 h 0.52917 0.52917 v -0.52917 -0.52917 h 1.05833 1.05833 v -0.52916 -0.52917 h 3.70417 3.70417 v 0.52917 0.52916 h 1.05833 1.05833 v 0.52917 0.52917 h 0.52917 0.52917 v 0.52916 0.52917 h 0.52916 0.52917 v 1.05833 1.05834 h 0.52917 0.52916 v 4.7625 4.7625 h -0.52916 -0.52917 v 2.11666 2.11667 h -0.52917 -0.52916 v 1.05833 1.05834 h -0.52917 -0.52917 v 1.05833 1.05833 h -0.52916 -0.52917 v 1.05834 1.05833 h -0.52917 -0.52916 v 1.05833 1.05834 h -0.52917 -0.52917 v 4.23333 4.23333 h -0.52916 -0.52917 v -4.23333 -4.23333 h 0.52917 0.52916 v -1.05834 -1.05833 h 0.52917 0.52917 v -1.05833 -1.05834 h 0.52916 0.52917 v -1.05833 -1.05833 h 0.52917 0.52916 v -1.05834 -1.05833 h 0.52917 0.52917 v -2.11667 -2.11666 h 0.52916 0.52917 v -4.7625 -4.7625 h -0.52917 -0.52916 v -1.05834 -1.05833 h -0.52917 -0.52917 v -0.52917 -0.52916 h -1.05833 -1.05833 v -0.52917 -0.52917 h -3.70417 -3.70417 v 0.52917 0.52917 h -1.05833 -1.05833 v 1.05833 1.05833 h 1.05833 1.05833 v -0.52916 -0.52917 h 3.70417 3.70417 v 0.52917 0.52916 h 0.52916 0.52917 v 4.23334 4.23333 h -0.52917 -0.52916 v 1.05833 1.05834 h -0.52917 -0.52917 v 1.05833 1.05833 h -0.52916 -0.52917 v 1.05834 1.05833 h -0.52917 -0.52916 v 1.05833 1.05834 h -0.52917 -0.52917 v 0.52916 0.52917 h -0.52916 -0.52917 v 0.52917 0.52916 h -0.52917 -0.52916 v 0.52917 0.52917 h -0.52917 -0.52917 v 0.52916 0.52917 h -0.52916 -0.52917 v 0.52917 0.52916 h -0.52917 -0.52916 v 0.52917 0.52917 h -1.05834 -1.05833 v -0.52917 -0.52917 h -1.5875 -1.5875 v -0.52916 -0.52917 h -1.5875 -1.5875 v -0.52917 -0.52916 h -1.5875 -1.5875 v -0.52917 -0.52917 h -3.175 -3.175 v 0.52917 0.52917 h -1.5875 -1.5875 v 0.52916 0.52917 h -1.5875 -1.587501 v 0.52917 0.52916 h -1.5875 -1.5875 v 0.52917 0.52917 h -1.5875 -1.5875 v 0.52916 0.52917 h -1.058333 -1.058334 v 0.52917 0.52916 h -0.529166 -0.529167 v 2.64584 2.64583 h -0.529167 -0.529166 v 1.05833 1.05834 h -0.529167 -0.529167 v 0.52916 0.52917 h -0.529167 -0.529166 v 0.52917 0.52916 h -0.529167 -0.529167 v 0.52917 0.52917 h -1.058333 -1.058333 v 0.52916 0.52917 h -0.529167 -0.529167 v -1.05833 -1.05834 h -0.529166 -0.529167 v 0.52917 0.52917 h -0.529167 -0.529166 v -0.52917 -0.52917 h -1.058334 -1.058333 v 0.52917 0.52917 h 0.529166 0.529167 v 0.52916 0.52917 h 0.529167 0.529167 v 0.52917 0.52916 h 0.529166 0.529167 v 0.52917 0.52917 h -0.529167 -0.529166 z m 12.7,-15.875 v -0.52917 h -0.529167 -0.529166 v 0.52917 0.52917 h 0.529166 0.529167 z m 31.750001,15.875 v -0.52917 h 0.52917 0.52916 v 0.52917 0.52917 h -0.52916 -0.52917 z m 2.11667,-1.05833 v -0.52917 h 0.52916 0.52917 v -0.52917 -0.52916 h 0.52917 0.52916 v -0.52917 -0.52917 h 0.52917 0.52917 v -1.05833 -1.05833 h 0.52916 0.52917 v 1.05833 1.05833 h -0.52917 -0.52916 v 0.52917 0.52917 h -0.52917 -0.52917 v 0.52916 0.52917 h -0.52916 -0.52917 v 0.52917 0.52916 h -0.52917 -0.52916 z m -45.508338,-8.99584 v -1.05833 h 0.529167 0.529166 v 1.05833 1.05834 h -0.529166 -0.529167 z m 1.058333,-2.64583 v -0.52917 h 1.058334 1.058333 v 0.52917 0.52917 h -1.058333 -1.058334 z m -9.525,-4.23333 v -0.52917 h -0.529167 -0.529166 v -0.52917 -0.52916 h -0.529167 -0.529167 v -1.05834 -1.05833 h 0.529167 0.529167 v 1.05833 1.05834 h 0.529166 0.529167 v 0.52916 0.52917 h 1.5875 1.5875 v -0.52917 -0.52916 h 0.529167 0.529166 v -1.5875 -1.5875 h 0.529167 0.529167 v 0.52916 0.52917 h 0.529166 0.529167 v 0.52917 0.52916 h 0.529167 0.529167 v 0.52917 0.52917 h 1.5875 1.5875 v -0.52917 -0.52917 h 0.529166 0.529167 v -1.5875 -1.5875 h 0.529167 0.529166 v 1.5875 1.5875 h -0.529166 -0.529167 v 0.52917 0.52917 h -0.529167 -0.529166 v 0.52916 0.52917 h -1.5875 -1.5875 v -0.52917 -0.52916 h -0.529167 -0.529167 v -0.52917 -0.52917 h -0.529167 -0.529166 v 0.52917 0.52917 h -0.529167 -0.529167 v 0.52916 0.52917 h -0.529166 -0.529167 v 0.52917 0.52916 h -1.5875 -1.5875 z m -9.525,-1.5875 v -1.05834 h 0.529166 0.529167 v 1.05834 1.05833 h -0.529167 -0.529166 z m 0,-2.64584 v -0.52916 h 0.529166 0.529167 v -1.5875 -1.5875 h -0.529167 -0.529166 v -0.52917 -0.52917 h -0.529167 -0.529167 v -0.52916 -0.52917 h -0.529166 -0.529167 v -0.52917 -0.52916 h -0.529167 -0.529167 v -0.52917 -0.52917 h -0.529166 -0.529167 v -1.5875 -1.5875 h 4.7625 4.7625 v 0.52917 0.52917 h 1.587501 1.5875 v 0.52916 0.52917 h 1.058333 1.058333 v -0.52917 -0.52916 h 4.7625 4.762501 v -0.52917 -0.52917 h 0.529166 0.529167 v -0.52916 -0.52917 h 1.058333 1.058334 v -0.52917 -0.52916 h 0.529166 0.529167 v -0.52917 -0.52917 h 0.529167 0.529167 v -0.52916 -0.52917 h 1.058333 1.058333 v -0.52917 -0.52916 h 1.058334 1.058333 v 1.05833 1.05833 h 0.529167 0.529166 v 3.70417 3.70417 h -0.529166 -0.529167 v 1.05833 1.05833 h 0.529167 0.529166 v 0.52917 0.52917 h 0.529167 0.529167 v 0.52916 0.52917 h -0.529167 -0.529167 v -0.52917 -0.52916 h -0.529166 -0.529167 v -0.52917 -0.52917 h -0.529167 -0.529166 v -1.05833 -1.05833 h -1.058334 -1.058333 v -0.52917 -0.52917 h -0.529167 -0.529166 v -0.52916 -0.52917 h -1.587501 -1.5875 v -0.52917 -0.52916 h -1.058333 -1.058333 v 0.52916 0.52917 h -4.762501 -4.7625 v 0.52917 0.52916 h -2.645833 -2.645834 v 0.52917 0.52917 h -0.529166 -0.529167 v 0.52916 0.52917 h -0.529167 -0.529166 v 0.52917 0.52916 h -0.529167 -0.529167 v 2.11667 2.11667 h -0.529166 -0.529167 v 0.52916 0.52917 h -0.529167 -0.529166 z m 31.750001,-0.52916 v -1.05834 h 0.529166 0.529167 v 1.05834 1.05833 h -0.529167 -0.529166 z m -23.283334,-1.5875 v -1.5875 h 1.058333 1.058333 v 1.5875 1.5875 h -1.058333 -1.058333 z m 7.408333,-1.05834 v -1.5875 h 1.058334 1.058333 v 1.5875 1.5875 H 80.937569 79.879235 Z M 66.120901,181.90799 v -1.5875 h 1.5875 1.5875 v 0.52916 0.52917 h 0.529167 0.529167 v 0.52917 0.52916 h -0.529167 -0.529167 v 0.52917 0.52917 h -1.5875 -1.5875 z"
         id="path662" /><path
         style="fill:#6f7aa7;stroke-width:0.264583"
         d="m 87.287569,221.06632 v -0.52917 h -1.058334 -1.058333 v -0.52916 -0.52917 h 1.058333 1.058334 v 0.52917 0.52916 h 6.879167 6.879164 v 0.52917 0.52917 h -6.879164 -6.879167 z m 13.758331,0 v -0.52917 h 6.35 5.29167 v 0.52917 0.52917 h -5.29167 -6.35 z m 16.93334,-1.05833 v -0.52917 h 1.05833 1.05833 v 0.52917 0.52916 h -1.05833 -1.05833 z m -34.925005,-1.05834 v -0.52916 h 0.529167 0.529167 v 0.52916 0.52917 h -0.529167 -0.529167 z m 39.158335,0 v -0.52916 h 1.05833 1.05834 v 0.52916 0.52917 h -1.05834 -1.05833 z m -41.275001,-1.05833 v -0.52917 h -0.529167 -0.529167 v -0.52916 -0.52917 h -0.529167 -0.529166 v -0.52917 -0.52916 h -0.529167 -0.529167 v -0.52917 -0.52917 h 0.529167 0.529167 v -0.52916 -0.52917 h -1.058334 -1.058333 v -1.05833 -1.05834 h -0.529167 -0.529166 v -0.52916 -0.52917 h -0.529167 -0.529167 v -1.05833 -1.05834 h -0.529166 -0.529167 v -1.05833 -1.05833 h -0.529167 -0.529166 v -0.52917 -0.52917 h -1.5875 -1.587501 v -0.52916 -0.52917 h -1.058333 -1.058333 v -0.52917 -0.52916 h -1.058334 -1.058333 v -0.52917 -0.52917 h 1.058333 1.058334 v 0.52917 0.52917 h 1.058333 1.058333 v 0.52916 0.52917 h 1.587501 1.5875 v 0.52917 0.52916 h 1.058333 1.058333 v 0.52917 0.52917 h 0.529167 0.529167 v 0.52916 0.52917 h 1.058333 1.058333 v 0.52917 0.52916 h 0.529167 0.529167 v 0.52917 0.52917 h 1.058333 1.058334 v 0.52916 0.52917 h 0.529166 0.529167 v 0.52917 0.52916 h 0.529167 0.529166 v 0.52917 0.52917 h 1.058334 1.058333 v -1.5875 -1.5875 h 0.529167 0.529166 v -1.05834 -1.05833 h 0.529167 0.529167 v -0.52917 -0.52916 h 0.529166 0.529167 v -0.52917 -0.52917 h -0.529167 -0.529166 v -0.52916 -0.52917 h 0.529166 0.529167 v 0.52917 0.52916 h 0.529167 0.529167 v -0.52916 -0.52917 h 0.529166 0.529167 v -0.52917 -0.52916 h 0.529167 0.529166 v -0.52917 -0.52917 h 0.529167 0.529167 v -0.52916 -0.52917 h 0.529166 0.529167 v -0.52917 -0.52916 h 0.529167 0.529166 v 0.52916 0.52917 h -0.529166 -0.529167 v 0.52917 0.52916 h 1.5875 1.5875 v -0.52916 -0.52917 h 1.5875 1.5875 v -0.52917 -0.52916 h 1.587501 1.5875 v -0.52917 -0.52917 h 1.5875 1.5875 v -0.52916 -0.52917 h 3.175 3.175 v 0.52917 0.52916 h 1.5875 1.5875 v 0.52917 0.52917 h 1.5875 1.5875 v 0.52916 0.52917 h 1.5875 1.5875 v 0.52917 0.52916 h 1.05833 1.05834 v -1.05833 -1.05833 h 0.52916 0.52917 v -0.52917 -0.52917 h 1.05833 1.05834 v -0.52916 -0.52917 h 0.52916 0.52917 v -0.52917 -0.52916 h 0.52917 0.52916 v -1.05834 -1.05833 h 0.52917 0.52917 v -1.05833 -1.05834 h 0.52916 0.52917 v -1.05833 -1.05833 h 0.52917 0.52916 v -1.05834 -1.05833 h 0.52917 0.52917 v -4.23333 -4.23334 h -3.70417 -3.70417 v 0.52917 0.52917 h -1.5875 -1.5875 v -1.5875 -1.5875 h 0.52917 0.52917 v -0.52917 -0.52917 h 1.05833 1.05833 v -0.52916 -0.52917 h 3.70417 3.70417 v 0.52917 0.52916 h 1.05833 1.05833 v 0.52917 0.52917 h 0.52917 0.52917 v 0.52916 0.52917 h 0.52916 0.52917 v 1.05833 1.05834 h 0.52917 0.52916 v 4.7625 4.7625 h -0.52916 -0.52917 v 2.11666 2.11667 h -0.52917 -0.52916 v 1.05833 1.05834 h -0.52917 -0.52917 v 1.05833 1.05833 h -0.52916 -0.52917 v 1.05834 1.05833 h -0.52917 -0.52916 v 1.05833 1.05834 h -0.52917 -0.52917 v 4.23333 4.23333 h -0.52916 -0.52917 v -4.23333 -4.23333 h 0.52917 0.52916 v -1.05834 -1.05833 h 0.52917 0.52917 v -1.05833 -1.05834 h 0.52916 0.52917 v -1.05833 -1.05833 h 0.52917 0.52916 v -1.05834 -1.05833 h 0.52917 0.52917 v -2.11667 -2.11666 h 0.52916 0.52917 v -4.7625 -4.7625 h -0.52917 -0.52916 v -1.05834 -1.05833 h -0.52917 -0.52917 v -0.52917 -0.52916 h -1.05833 -1.05833 v -0.52917 -0.52917 h -3.70417 -3.70417 v 0.52917 0.52917 h -1.05833 -1.05833 v 1.05833 1.05833 h 1.05833 1.05833 v -0.52916 -0.52917 h 3.70417 3.70417 v 0.52917 0.52916 h 0.52916 0.52917 v 4.23334 4.23333 h -0.52917 -0.52916 v 1.05833 1.05834 h -0.52917 -0.52917 v 1.05833 1.05833 h -0.52916 -0.52917 v 1.05834 1.05833 h -0.52917 -0.52916 v 1.05833 1.05834 h -0.52917 -0.52917 v 0.52916 0.52917 h -0.52916 -0.52917 v 0.52917 0.52916 h -0.52917 -0.52916 v 0.52917 0.52917 h -0.52917 -0.52917 v 0.52916 0.52917 h -0.52916 -0.52917 v 0.52917 0.52916 h -0.52917 -0.52916 v 0.52917 0.52917 h -1.05834 -1.05833 v -0.52917 -0.52917 h -1.5875 -1.5875 v -0.52916 -0.52917 h -1.5875 -1.5875 v -0.52917 -0.52916 h -1.5875 -1.5875 v -0.52917 -0.52917 h -3.175 -3.175 v 0.52917 0.52917 h -1.5875 -1.5875 v 0.52916 0.52917 h -1.5875 -1.587501 v 0.52917 0.52916 h -1.5875 -1.5875 v 0.52917 0.52917 h -1.5875 -1.5875 v 0.52916 0.52917 h -1.058333 -1.058334 v 0.52917 0.52916 h -0.529166 -0.529167 v 2.64584 2.64583 h -0.529167 -0.529166 v 1.05833 1.05834 h -0.529167 -0.529167 v 0.52916 0.52917 h -0.529167 -0.529166 v 0.52917 0.52916 h -0.529167 -0.529167 v 0.52917 0.52917 h -1.058333 -1.058333 v 0.52916 0.52917 h -0.529167 -0.529167 v -1.05833 -1.05834 h -0.529166 -0.529167 v 0.52917 0.52917 h -0.529167 -0.529166 v -0.52917 -0.52917 h -1.058334 -1.058333 v 0.52917 0.52917 h 0.529166 0.529167 v 0.52916 0.52917 h 0.529167 0.529167 v 0.52917 0.52916 h 0.529166 0.529167 v 0.52917 0.52917 h -0.529167 -0.529166 z m 12.7,-15.875 v -0.52917 h -0.529167 -0.529166 v 0.52917 0.52917 h 0.529166 0.529167 z m 31.750001,15.875 v -0.52917 h 0.52917 0.52916 v 0.52917 0.52917 h -0.52916 -0.52917 z m 2.11667,-1.05833 v -0.52917 h 0.52916 0.52917 v -0.52917 -0.52916 h 0.52917 0.52916 v -0.52917 -0.52917 h 0.52917 0.52917 v -1.05833 -1.05833 h 0.52916 0.52917 v 1.05833 1.05833 h -0.52917 -0.52916 v 0.52917 0.52917 h -0.52917 -0.52917 v 0.52916 0.52917 h -0.52916 -0.52917 v 0.52917 0.52916 h -0.52917 -0.52916 z m -45.508338,-8.99584 v -1.05833 h 0.529167 0.529166 v 1.05833 1.05834 h -0.529166 -0.529167 z m 1.058333,-2.64583 v -0.52917 h 1.058334 1.058333 v 0.52917 0.52917 h -1.058333 -1.058334 z m -9.525,-4.23333 v -0.52917 h -0.529167 -0.529166 v -0.52917 -0.52916 h -0.529167 -0.529167 v -1.05834 -1.05833 h 0.529167 0.529167 v 1.05833 1.05834 h 0.529166 0.529167 v 0.52916 0.52917 h 1.5875 1.5875 v -0.52917 -0.52916 h 0.529167 0.529166 v -1.5875 -1.5875 h 0.529167 0.529167 v 0.52916 0.52917 h 0.529166 0.529167 v 0.52917 0.52916 h 0.529167 0.529167 v 0.52917 0.52917 h 1.5875 1.5875 v -0.52917 -0.52917 h 0.529166 0.529167 v -1.5875 -1.5875 h 0.529167 0.529166 v 1.5875 1.5875 h -0.529166 -0.529167 v 0.52917 0.52917 h -0.529167 -0.529166 v 0.52916 0.52917 h -1.5875 -1.5875 v -0.52917 -0.52916 h -0.529167 -0.529167 v -0.52917 -0.52917 h -0.529167 -0.529166 v 0.52917 0.52917 h -0.529167 -0.529167 v 0.52916 0.52917 h -0.529166 -0.529167 v 0.52917 0.52916 h -1.5875 -1.5875 z m -9.525,-1.5875 v -1.05834 h 0.529166 0.529167 v 1.05834 1.05833 h -0.529167 -0.529166 z m 0,-2.64584 v -0.52916 h 0.529166 0.529167 v -1.5875 -1.5875 h -0.529167 -0.529166 v -0.52917 -0.52917 h -0.529167 -0.529167 v -0.52916 -0.52917 h -0.529166 -0.529167 v -0.52917 -0.52916 h -0.529167 -0.529167 v -0.52917 -0.52917 h -0.529166 -0.529167 v -1.5875 -1.5875 h 4.7625 4.7625 v 0.52917 0.52917 h 1.587501 1.5875 v 0.52916 0.52917 h 1.058333 1.058333 v -0.52917 -0.52916 h 4.7625 4.762501 v -0.52917 -0.52917 h 0.529166 0.529167 v -0.52916 -0.52917 h 1.058333 1.058334 v -0.52917 -0.52916 h 0.529166 0.529167 v -0.52917 -0.52917 h 0.529167 0.529167 v -0.52916 -0.52917 h 1.058333 1.058333 v -0.52917 -0.52916 h 1.058334 1.058333 v 1.05833 1.05833 h 0.529167 0.529166 v 3.70417 3.70417 h -0.529166 -0.529167 v 1.05833 1.05833 h 0.529167 0.529166 v 0.52917 0.52917 h 0.529167 0.529167 v 0.52916 0.52917 h -0.529167 -0.529167 v -0.52917 -0.52916 h -0.529166 -0.529167 v -0.52917 -0.52917 h -0.529167 -0.529166 v -1.05833 -1.05833 h -1.058334 -1.058333 v -0.52917 -0.52917 h -0.529167 -0.529166 v -0.52916 -0.52917 h -1.587501 -1.5875 v -0.52917 -0.52916 h -1.058333 -1.058333 v 0.52916 0.52917 h -4.762501 -4.7625 v 0.52917 0.52916 h -2.645833 -2.645834 v 0.52917 0.52917 h -0.529166 -0.529167 v 0.52916 0.52917 h -0.529167 -0.529166 v 0.52917 0.52916 h -0.529167 -0.529167 v 2.11667 2.11667 h -0.529166 -0.529167 v 0.52916 0.52917 h -0.529167 -0.529166 z m 31.750001,-0.52916 v -1.05834 h 0.529166 0.529167 v 1.05834 1.05833 h -0.529167 -0.529166 z m -23.283334,-1.5875 v -1.5875 h 1.058333 1.058333 v 1.5875 1.5875 h -1.058333 -1.058333 z m 7.408333,-1.05834 v -1.5875 h 1.058334 1.058333 v 1.5875 1.5875 H 80.937569 79.879235 Z M 66.120901,182.96632 v -0.52917 h 0.529167 0.529167 v -0.52916 -0.52917 h 1.5875 1.5875 v 0.52917 0.52916 h -1.5875 -1.5875 v 0.52917 0.52917 h -0.529167 -0.529167 z"
         id="path660"
         sodipodi:nodetypes="cccccccccccccccccccccccccccccccccccccccccccccccccccccccccccccccccccccccccccccccccccccccccccccccccccccccccccccccccccccccccccccccccccccccccccccccccccccccccccccccccccccccccccccccccccccccccccccccccccccccccccccccccccccccccccccccccccccccccccccccccccccccccccccccccccccccccccccccccccccccccccccccccccccccccccccccccccccccccccccccccccccccccccccccccccccccccccccccccccccccccccccccccccccccccccccccccccccccccccccccccccccccccccccccccccccccccccccccccccccccccccccccccccccccccccccccccccccccccccccccccccccccccccccccccccccccccccccccccccccccccccccccccccccccccccccccccccccccccccccccccccccccccccccccccccccccccccccccccccccccccccccccccccccccccccccccccccccccccccccccccccccccccccccccccccccccccccccccccccccccccccccccccccccccccccccccccccccccccccccccccccccccccccccccccccccccccccccccccccccccccccccccccccccccccccccccccccccccccccccccccccccccccccccccccccccccccccccccccccccccccccccccccccccccccc" /><path
         style="fill:#6f2e53;stroke-width:0.264583"
         d="m 83.054235,215.24549 v -1.05834 h -0.529166 -0.529167 v 0.52917 0.52917 h -0.529167 -0.529166 v -0.52917 -0.52917 h -1.058334 -1.058333 v -0.52916 -0.52917 h -0.529167 -0.529167 v -0.52917 -0.52916 h -0.529166 -0.529167 v -0.52917 -0.52917 h -0.529167 -0.529166 v -1.05833 -1.05833 h -0.529167 -0.529167 v -0.52917 -0.52917 h -0.529166 -0.529167 v -1.05833 -1.05833 h 1.058333 1.058334 v 0.52916 0.52917 h 1.058333 1.058333 v 0.52917 0.52916 h 0.529167 0.529167 v 0.52917 0.52917 h 1.058333 1.058334 v 0.52916 0.52917 h 0.529166 0.529167 v 0.52917 0.52916 h 0.529167 0.529166 v 0.52917 0.52917 h 1.058334 1.058333 v -1.5875 -1.5875 h 0.529167 0.529166 v -1.05834 -1.05833 h 0.529167 0.529167 v -0.52917 -0.52916 h 0.529166 0.529167 v -0.52917 -0.52917 h 0.529167 0.529167 v -0.52916 -0.52917 h 1.058333 1.058333 v 0.52917 0.52916 h -0.529166 -0.529167 v 2.64584 2.64583 h -0.529167 -0.529166 v 1.05833 1.05834 h -0.529167 -0.529167 v 0.52916 0.52917 h -0.529167 -0.529166 v 0.52917 0.52916 h -0.529167 -0.529167 v 0.52917 0.52917 h -1.058333 -1.058333 v 0.52916 0.52917 h -0.529167 -0.529167 z m -1.058333,-7.40834 v -1.05833 h 0.529167 0.529166 v 1.05833 1.05834 h -0.529166 -0.529167 z m -8.466667,-6.87916 v -0.52917 h -0.529167 -0.529166 v -0.52917 -0.52916 h -0.529167 -0.529167 v -1.05834 -1.05833 h 0.529167 0.529167 v 1.05833 1.05834 h 0.529166 0.529167 v 0.52916 0.52917 h 1.5875 1.5875 v -0.52917 -0.52916 h 0.529167 0.529166 v -1.5875 -1.5875 h 0.529167 0.529167 v 0.52916 0.52917 h 0.529166 0.529167 v 0.52917 0.52916 h 0.529167 0.529167 v 0.52917 0.52917 h 1.5875 1.5875 v -0.52917 -0.52917 h 0.529166 0.529167 v -1.5875 -1.5875 h 0.529167 0.529166 v 1.5875 1.5875 h -0.529166 -0.529167 v 0.52917 0.52917 h -0.529167 -0.529166 v 0.52916 0.52917 h -1.5875 -1.5875 v -0.52917 -0.52916 h -0.529167 -0.529167 v -0.52917 -0.52917 h -0.529167 -0.529166 v 0.52917 0.52917 h -0.529167 -0.529167 v 0.52916 0.52917 h -0.529166 -0.529167 v 0.52917 0.52916 h -1.5875 -1.5875 z m -1.058333,-6.35 v -1.5875 h 1.058333 1.058333 v 1.5875 1.5875 h -1.058333 -1.058333 z m 7.408333,-1.05834 v -1.5875 h 1.058334 1.058333 v 1.5875 1.5875 h -1.058333 -1.058334 z m -14.816667,-1.05833 v -0.52917 h -0.529167 -0.529166 v -0.52916 -0.52917 h -0.529167 -0.529167 v -0.52917 -0.52916 h -0.529166 -0.529167 v -0.52917 -0.52917 h -0.529167 -0.529167 v -1.05833 -1.05833 h 4.233334 4.233333 v 0.52916 0.52917 h 1.058334 1.058333 v 0.52917 0.52916 h -1.058333 -1.058334 v 0.52917 0.52917 h -0.529166 -0.529167 v -0.52917 -0.52917 h 0.529167 0.529166 v -0.52916 -0.52917 h -1.5875 -1.5875 v 1.05833 1.05834 h -0.529166 -0.529167 v 1.05833 1.05833 h 0.529167 0.529166 v -0.52916 -0.52917 h 0.529167 0.529167 v 0.52917 0.52916 h -0.529167 -0.529167 v 0.52917 0.52917 h -0.529166 -0.529167 z m 27.516668,-2.11667 v -0.52916 h -0.529167 -0.529167 v -0.52917 -0.52917 h -0.529166 -0.529167 v -0.52916 -0.52917 h 1.058333 1.058334 v -0.52917 -0.52916 h -0.529167 -0.529167 v -0.52917 -0.52917 h -2.116666 -2.116667 v 0.52917 0.52917 h -1.058334 -1.058333 v -0.52917 -0.52917 h 0.529167 0.529166 v -0.52916 -0.52917 h 1.058334 1.058333 v -0.52917 -0.52916 h 1.058334 1.058333 v -0.52917 -0.52917 h 0.529167 0.529166 v -0.52916 -0.52917 h 1.058334 1.058333 v 4.7625 4.7625 h -0.529167 -0.529166 z m -26.458335,-7.40833 v -0.52917 h 0.529167 0.529167 v -0.52916 -0.52917 h 1.5875 1.5875 v 0.52917 0.52916 h -1.5875 -1.5875 v 0.52917 0.52917 h -0.529167 -0.529167 z"
         id="path658" /><path
         style="fill:#32417c;stroke-width:0.264583"
         d="m 83.054235,215.24549 v -1.05834 h -0.529166 -0.529167 v 0.52917 0.52917 h -0.529167 -0.529166 v -0.52917 -0.52917 h -1.058334 -1.058333 v -0.52916 -0.52917 h -0.529167 -0.529167 v -0.52917 -0.52916 h -0.529166 -0.529167 v -0.52917 -0.52917 h -0.529167 -0.529166 v -1.05833 -1.05833 h -0.529167 -0.529167 v -0.52917 -0.52917 h -0.529166 -0.529167 v -1.05833 -1.05833 h 1.058333 1.058334 v 0.52916 0.52917 h 1.058333 1.058333 v 0.52917 0.52916 h 0.529167 0.529167 v 0.52917 0.52917 h 1.058333 1.058334 v 0.52916 0.52917 h 0.529166 0.529167 v 0.52917 0.52916 h 0.529167 0.529166 v 0.52917 0.52917 h 1.058334 1.058333 v -1.5875 -1.5875 h 0.529167 0.529166 v -1.05834 -1.05833 h 0.529167 0.529167 v -0.52917 -0.52916 h 0.529166 0.529167 v -0.52917 -0.52917 h 0.529167 0.529167 v -0.52916 -0.52917 h 1.058333 1.058333 v 0.52917 0.52916 h -0.529166 -0.529167 v 2.64584 2.64583 h -0.529167 -0.529166 v 1.05833 1.05834 h -0.529167 -0.529167 v 0.52916 0.52917 h -0.529167 -0.529166 v 0.52917 0.52916 h -0.529167 -0.529167 v 0.52917 0.52917 h -1.058333 -1.058333 v 0.52916 0.52917 h -0.529167 -0.529167 z m -1.058333,-7.40834 v -1.05833 h 0.529167 0.529166 v 1.05833 1.05834 h -0.529166 -0.529167 z m -9.525,-13.22916 v -1.5875 h 1.058333 1.058333 v 1.5875 1.5875 h -1.058333 -1.058333 z m 7.408333,-1.05834 v -1.5875 h 1.058334 1.058333 v 1.5875 1.5875 H 80.937569 79.879235 Z M 66.120901,182.96632 v -0.52917 h 0.529167 0.529167 v -0.52916 -0.52917 h 1.5875 1.5875 v 0.52917 0.52916 h -1.5875 -1.5875 v 0.52917 0.52917 h -0.529167 -0.529167 z"
         id="path656" /><path
         style="fill:#0e3b8f;stroke-width:0.264583"
         d="m 83.054235,214.71632 v -0.52917 h 0.529167 0.529167 v -0.52916 -0.52917 h -0.529167 -0.529167 v -0.52917 -0.52916 h 1.058334 1.058333 v -1.5875 -1.5875 h 0.529167 0.529166 v -1.05834 -1.05833 h 0.529167 0.529167 v -0.52917 -0.52916 h 0.529166 0.529167 v -0.52917 -0.52917 h 0.529167 0.529167 v -0.52916 -0.52917 h 0.529166 0.529167 v 1.5875 1.5875 h -0.529167 -0.529166 v -0.52917 -0.52916 h -0.529167 -0.529167 v 1.05833 1.05833 h 0.529167 0.529167 v 1.5875 1.5875 h -0.529167 -0.529167 v -0.52916 -0.52917 h -0.529167 -0.529166 v -0.52917 -0.52916 h -0.529167 -0.529167 v 1.5875 1.5875 h 0.529167 0.529167 v 1.05833 1.05833 h -0.529167 -0.529167 v -1.05833 -1.05833 h -0.529166 -0.529167 v 1.05833 1.05833 h -0.529167 -0.529166 v 0.52917 0.52917 h -0.529167 -0.529167 z m -2.116666,-1.05833 v -0.52917 h -1.058334 -1.058333 v -0.52917 -0.52916 h -0.529167 -0.529167 v -0.52917 -0.52917 h 0.529167 0.529167 v -0.52916 -0.52917 h -0.529167 -0.529167 v -1.05833 -1.05834 h 0.529167 0.529167 v 0.52917 0.52917 h 0.529166 0.529167 v 0.52916 0.52917 h 1.058334 1.058333 v 1.05833 1.05834 h -0.529167 -0.529166 v 0.52916 0.52917 h 0.529166 0.529167 v 0.52917 0.52916 h -0.529167 -0.529166 z m 0,-2.11667 v -0.52917 h -1.058334 -1.058333 v 0.52917 0.52917 h 1.058333 1.058334 z m -5.291667,-2.11667 v -0.52916 h -0.529167 -0.529167 v -1.05834 -1.05833 h -0.529166 -0.529167 v -0.52917 -0.52916 h 1.058333 1.058334 v 0.52916 0.52917 h 0.529166 0.529167 v 1.5875 1.5875 h -0.529167 -0.529166 z m 6.35,-1.5875 v -1.05833 h 0.529167 0.529166 v 1.05833 1.05834 h -0.529166 -0.529167 z m -9.525,-13.22916 v -1.5875 h 1.058333 1.058333 v 1.5875 1.5875 h -1.058333 -1.058333 z m 7.408333,-1.05834 v -1.5875 h 1.058334 1.058333 v 1.5875 1.5875 H 80.937569 79.879235 Z M 66.120901,182.96632 v -0.52917 h 0.529167 0.529167 v -0.52916 -0.52917 h 1.5875 1.5875 v 0.52917 0.52916 h -1.5875 -1.5875 v 0.52917 0.52917 h -0.529167 -0.529167 z"
         id="path654" /><path
         style="fill:#273466;stroke-width:0.264583"
         d="m 83.054235,214.71632 v -0.52917 h 0.529167 0.529167 v -0.52916 -0.52917 h -0.529167 -0.529167 v -0.52917 -0.52916 h 1.058334 1.058333 v -1.5875 -1.5875 h 0.529167 0.529166 v -1.05834 -1.05833 h 0.529167 0.529167 v -0.52917 -0.52916 h 0.529166 0.529167 v -0.52917 -0.52917 h 0.529167 0.529167 v -0.52916 -0.52917 h 0.529166 0.529167 v 1.5875 1.5875 h -0.529167 -0.529166 v -0.52917 -0.52916 h -0.529167 -0.529167 v 1.05833 1.05833 h 0.529167 0.529167 v 1.5875 1.5875 h -0.529167 -0.529167 v -0.52916 -0.52917 h -0.529167 -0.529166 v -0.52917 -0.52916 h -0.529167 -0.529167 v 1.5875 1.5875 h 0.529167 0.529167 v 1.05833 1.05833 h -0.529167 -0.529167 v -1.05833 -1.05833 h -0.529166 -0.529167 v 1.05833 1.05833 h -0.529167 -0.529166 v 0.52917 0.52917 h -0.529167 -0.529167 z m -2.116666,-1.05833 v -0.52917 h -1.058334 -1.058333 v -0.52917 -0.52916 h -0.529167 -0.529167 v -0.52917 -0.52917 h 0.529167 0.529167 v -0.52916 -0.52917 h -0.529167 -0.529167 v -1.05833 -1.05834 h 0.529167 0.529167 v 0.52917 0.52917 h 0.529166 0.529167 v 0.52916 0.52917 h 1.058334 1.058333 v 1.05833 1.05834 h -0.529167 -0.529166 v 0.52916 0.52917 h 0.529166 0.529167 v 0.52917 0.52916 h -0.529167 -0.529166 z m 0,-2.11667 v -0.52917 h -1.058334 -1.058333 v 0.52917 0.52917 h 1.058333 1.058334 z m -5.291667,-2.11667 v -0.52916 h -0.529167 -0.529167 v -1.05834 -1.05833 h -0.529166 -0.529167 v -0.52917 -0.52916 h 1.058333 1.058334 v 0.52916 0.52917 h 0.529166 0.529167 v 1.5875 1.5875 h -0.529167 -0.529166 z"
         id="path652" /></g></g></svg>
