<?xml version="1.0" encoding="UTF-8" standalone="no"?>
<!-- Created with Inkscape (http://www.inkscape.org/) -->

<svg
   width="197.12537mm"
   height="153.12041mm"
   viewBox="0 0 197.12537 153.12041"
   version="1.1"
   id="svg5"
   xml:space="preserve"
   xmlns:inkscape="http://www.inkscape.org/namespaces/inkscape"
   xmlns:sodipodi="http://sodipodi.sourceforge.net/DTD/sodipodi-0.dtd"
   xmlns="http://www.w3.org/2000/svg"
   xmlns:svg="http://www.w3.org/2000/svg"><sodipodi:namedview
     id="namedview7"
     pagecolor="#ffffff"
     bordercolor="#666666"
     borderopacity="1.0"
     inkscape:showpageshadow="2"
     inkscape:pageopacity="0.0"
     inkscape:pagecheckerboard="0"
     inkscape:deskcolor="#d1d1d1"
     inkscape:document-units="mm"
     showgrid="false" /><defs
     id="defs2" /><g
     inkscape:label="Layer 1"
     inkscape:groupmode="layer"
     id="layer1"
     transform="translate(-4.8560096,-143.87962)"><g
       id="g338"
       transform="matrix(-1,0,0,1,224.48051,156.80718)"
       inkscape:export-filename="yuumsidevec.svg"
       inkscape:export-xdpi="191"
       inkscape:export-ydpi="191"><path
         style="fill:#e7bd63;stroke-width:0.264583"
         d="m 96.029123,134.84294 c -1.36412,-2.94243 -3.474561,-7.02032 -4.689871,-9.06198 -5.191144,-8.72083 -5.787702,-10.26372 -6.527917,-16.88321 -0.781542,-6.98906 -1.113295,-8.58244 -2.296043,-11.027651 -0.60112,-1.242764 -1.533075,-2.763809 -2.07101,-3.380102 C 78.696378,92.487476 74.199835,85.583857 73.601054,83.983469 73.280167,83.125824 72.897339,81.464828 72.750326,80.292367 72.60331,79.119908 72.46035,78.1536 72.432632,78.145019 68.813056,77.024197 67.112965,76.419301 64.900294,75.465004 59.490044,73.131631 53.63921,69.331751 49.666589,65.571333 l -2.250461,-2.130247 -4.582567,0.959908 c -8.864137,1.856767 -10.110391,2.027447 -13.710695,1.877748 -3.803369,-0.158141 -4.950325,-0.429239 -5.920465,-1.399376 -1.203264,-1.203264 -0.792104,-4.08871 0.697683,-4.896218 0.325916,-0.176654 1.422302,-0.309824 2.436415,-0.295934 1.562809,0.02141 1.915668,0.113962 2.315104,0.607245 0.656794,0.811107 0.588444,1.451113 -0.223152,2.089516 -0.527552,0.414972 -0.956699,0.517226 -1.785937,0.42554 -0.935612,-0.10345 -0.978144,-0.08872 -0.297773,0.103129 1.157801,0.326472 6.131721,0.331388 7.955052,0.0079 1.810147,-0.321186 10.420019,-2.08852 10.862067,-2.229638 0.187346,-0.05981 0.01611,-0.661866 -0.46573,-1.637462 -0.419108,-0.848582 -0.946624,-2.433156 -1.172258,-3.521279 -0.225634,-1.08812 -0.459444,-2.027605 -0.519581,-2.087739 -0.06014,-0.06014 -1.880534,-0.385525 -4.045328,-0.723086 -7.489245,-1.167812 -9.955241,-1.809469 -11.854638,-3.084592 -3.776117,-2.535025 -3.150113,-7.363952 1.042842,-8.044376 2.997941,-0.486497 6.624664,2.858101 4.620993,4.261528 -0.860922,0.603012 -1.410242,0.509767 -2.337665,-0.396817 -1.612577,-1.576345 -3.613219,-0.403712 -2.085559,1.222407 0.671912,0.715219 2.861283,1.483497 5.937305,2.08348 2.655668,0.517991 9.179695,1.515636 9.25119,1.414679 0.02937,-0.04148 0.731504,-2.071748 1.560296,-4.511712 0.828789,-2.439966 1.929125,-5.396637 2.445192,-6.570385 0.516067,-1.173747 0.87939,-2.287603 0.807389,-2.475238 -0.072,-0.187634 -2.717231,-3.898461 -5.878288,-8.246282 -6.087908,-8.373512 -7.473896,-10.754048 -9.104293,-15.637291 -0.904754,-2.709847 -0.867461,-3.5482901 0.188608,-4.2402523 0.614611,-0.4027091 0.754269,-0.3992271 2.018025,0.05034 4.684831,1.6665733 8.727339,2.3392603 16.703547,2.7795373 2.764896,0.152617 7.116564,0.390835 9.670373,0.529371 4.830257,0.262025 6.930294,0.743667 9.542946,2.18867 0.908833,0.502656 1.028851,0.508558 2.38125,0.117105 0.783299,-0.22673 2.555274,-0.657268 3.937722,-0.956752 1.382448,-0.299485 2.772696,-0.603348 3.089436,-0.675251 0.565021,-0.128265 0.54696,-0.217242 -0.956071,-4.7106893 C 78.121634,2.3839233 78.133059,2.407458 76.28028,0.28116567 73.70785,-2.6710103 70.790028,-4.3397163 67.175359,-4.9259456 c -3.58408,-0.5812685 -3.600532,-0.5787232 -3.813257,0.5901161 -0.668446,3.67282422 -3.851579,6.2436245 -7.167951,5.789065 -3.234534,-0.4433412 -5.904619,-3.7491301 -5.904619,-7.3104166 0,-3.1392152 2.30491,-6.2634949 5.078812,-6.8842659 2.126337,-0.475853 3.79825,-0.02352 5.470559,1.480021 0.707824,0.636392 1.43619,1.517378 1.618597,1.9577452 0.264919,0.6395694 0.491371,0.8006663 1.125487,0.8006663 0.436613,0 2.059278,0.1848908 3.605921,0.4108662 4.501365,0.6576827 7.559789,2.3495371 11.3025,6.2522922 2.387105,2.48917891 2.74025,3.2157618 4.875469,10.031098 0.611084,1.9505031 1.144535,3.5827781 1.185442,3.6272791 0.04091,0.0445 1.665158,-0.11321 3.60944,-0.350465 1.944286,-0.237257 6.384923,-0.499186 9.868085,-0.582065 l 6.333026,-0.150688 0.63377,-0.7531944 c 0.87362,-1.0382409 4.83431,-3.9410138 8.79289,-6.4442845 5.85587,-3.70304492 8.90613,-6.1532613 14.68918,-11.799528 3.10309,-3.0296991 3.96465,-3.5091321 5.13028,-2.8548781 2.08629,1.1710035 3.24793,5.1695749 4.92624,16.9569744 0.4955,3.4800885 0.63984,5.3218166 0.51403,6.5586776 -0.28833,2.834603 -2.9235,15.518778 -3.33075,16.0323 -0.21864,0.275696 4.82541,8.493858 6.38144,10.397128 l 0.66145,0.809072 2.81462,-1.143931 c 4.43872,-1.804009 10.66772,-5.75776 11.79707,-7.487979 0.33781,-0.517533 0.3223,-0.604319 -0.15348,-0.858946 -0.77117,-0.412721 -1.14967,-0.164579 -1.8905,1.239412 -0.51895,0.983501 -0.82325,1.272093 -1.41246,1.339548 -0.89075,0.101976 -1.76508,-0.586724 -1.75673,-1.383757 0.009,-0.882809 0.91379,-2.603318 1.81264,-3.44782 1.15338,-1.083631 3.51868,-1.285047 4.92004,-0.418963 1.87439,1.158441 2.26376,3.290388 0.97275,5.326113 -1.45425,2.293104 -7.88912,6.494304 -13.1352,8.575713 -1.72506,0.684426 -2.09905,0.932881 -2.02149,1.342932 0.0523,0.276725 0.13757,1.692918 0.18939,3.147092 l 0.0942,2.643955 0.86895,-0.07434 c 9.01596,-0.771356 15.55332,-2.016266 15.55332,-2.961826 0,-0.158837 -0.26506,-0.647308 -0.58902,-1.08549 -0.54605,-0.738563 -0.55992,-0.848783 -0.19009,-1.510641 1.10396,-1.975715 3.95213,-0.202115 3.95213,2.461054 0,3.21365 -3.20325,4.549002 -13.62406,5.679519 -8.03579,0.871776 -7.11463,0.605568 -8.0891,2.3377 -0.46654,0.829278 -1.38947,2.281687 -2.05096,3.227573 -1.55092,2.217727 -8.86186,9.520341 -11.40162,11.388635 l -1.96251,1.443657 0.90418,0.08956 c 1.49177,0.147762 13.61495,-0.467604 17.31788,-0.879044 1.89702,-0.210783 4.92709,-0.624361 6.73349,-0.919067 1.80639,-0.294704 5.96929,-0.781032 9.25087,-1.080728 7.08399,-0.646957 13.95568,-1.58115 19.59256,-2.663571 3.26727,-0.627399 5.36514,-0.844685 10.31875,-1.068769 8.67286,-0.392327 13.37918,-0.180173 21.10162,0.95123 3.52949,0.517099 6.53581,0.940181 6.68073,0.940181 0.17369,0 0.26348,12.849157 0.26348,37.703128 v 37.70312 H 159.0661 98.509341 Z"
         id="path352" /><path
         style="fill:#838db1;stroke-width:0.264583"
         d="m 96.029123,134.84294 c -1.36412,-2.94243 -3.474561,-7.02032 -4.689871,-9.06198 -5.191144,-8.72083 -5.787702,-10.26372 -6.527917,-16.88321 -0.781542,-6.98906 -1.113295,-8.58244 -2.296043,-11.027651 -0.60112,-1.242764 -1.533075,-2.763809 -2.07101,-3.380102 C 78.696378,92.487476 74.199835,85.583857 73.601054,83.983469 73.280167,83.125824 72.897339,81.464828 72.750326,80.292367 72.60331,79.119908 72.46035,78.1536 72.432632,78.145019 64.762161,75.769812 60.173489,73.566743 54.494931,69.532932 c -2.852256,-2.026121 -6.927194,-5.732317 -6.702457,-6.095947 0.08087,-0.130853 0.354875,-0.237914 0.608902,-0.237914 1.130413,0 8.608223,-2.334879 8.942675,-2.792269 0.535038,-0.731711 0.428302,-1.344065 -0.339553,-1.948059 -0.787863,-0.619733 -0.698412,-0.630912 -5.127466,0.640773 -4.126947,1.184945 -5.751025,1.537124 -6.23393,1.351818 -0.58625,-0.224965 -1.658932,-2.722481 -2.120892,-4.938044 -0.218617,-1.048496 -0.340532,-1.963309 -0.27092,-2.03292 0.06961,-0.06961 2.187708,0.197201 4.706882,0.592912 7.101435,1.115497 6.701647,1.099873 7.237008,0.282811 0.554918,-0.846913 0.226012,-1.860873 -0.734563,-2.26454 -0.642051,-0.269811 -5.900661,-1.172956 -8.570463,-1.471943 -0.891688,-0.09986 -1.773832,-0.27586 -1.960324,-0.391118 -0.260956,-0.161279 0.0076,-1.22201 1.165857,-4.604226 0.827712,-2.417067 1.927165,-5.355006 2.443232,-6.528753 0.516067,-1.173747 0.87939,-2.287604 0.807389,-2.475238 -0.072,-0.187635 -2.717231,-3.898461 -5.878288,-8.246282 -6.087908,-8.373513 -7.473896,-10.754049 -9.104293,-15.637291 -0.904754,-2.709847 -0.867461,-3.5482905 0.188608,-4.2402526 0.614611,-0.4027091 0.754269,-0.3992272 2.018025,0.05034 4.684831,1.6665726 8.727339,2.3392606 16.703547,2.7795376 2.764896,0.152617 7.121197,0.391115 9.68067,0.529995 4.16415,0.225951 4.885029,0.336973 6.854179,1.055626 1.210329,0.441714 2.487735,0.991257 2.838683,1.221206 0.593807,0.389078 0.861764,0.362434 3.861443,-0.383969 7.314538,-1.820055 13.915781,-2.659425 22.520962,-2.863609 l 6.333026,-0.150273 0.63377,-0.753194 c 0.87362,-1.0382409 4.83431,-3.9410138 8.79289,-6.4442845 5.85587,-3.70304492 8.90613,-6.1532613 14.68918,-11.799528 3.10309,-3.0296995 3.96465,-3.5091325 5.13028,-2.8548785 2.08629,1.1710039 3.24793,5.1695753 4.92624,16.9569748 0.4955,3.4800885 0.63984,5.3218162 0.51403,6.5586772 -0.28725,2.823969 -2.92312,15.518202 -3.32841,16.02949 -0.2163,0.272868 3.85449,6.999703 6.02993,9.964243 l 0.92108,1.255194 -0.74898,0.285065 c -2.40278,0.914506 -6.26242,2.178537 -8.49632,2.782544 -2.74878,0.74322 -3.49984,1.188212 -3.4934,2.069785 0.005,0.70036 0.24458,1.05854 0.95898,1.434439 0.45692,0.240418 1.20432,0.119832 3.87365,-0.624973 2.69729,-0.752604 6.64415,-2.102866 9.23407,-3.159072 0.34933,-0.142462 0.50507,0.03601 0.72613,0.832109 0.34831,1.254334 0.36476,4.577676 0.0253,5.11451 -0.21115,0.333944 -1.21295,0.396875 -6.31782,0.396875 -5.5946,0 -6.11026,0.03924 -6.62417,0.504029 -0.65045,0.588269 -0.72439,1.540039 -0.16325,2.101178 0.43281,0.432818 3.97132,0.61903 9.22934,0.485687 l 2.87652,-0.07295 -0.86291,1.533734 c -0.47459,0.843555 -1.40411,2.307643 -2.0656,3.253529 -1.55092,2.217727 -8.86186,9.520341 -11.40162,11.388635 l -1.96251,1.443657 0.90418,0.08956 c 1.49177,0.147762 13.61495,-0.467604 17.31788,-0.879044 1.89702,-0.210783 4.92709,-0.624361 6.73349,-0.919067 1.80639,-0.294704 5.96929,-0.781032 9.25087,-1.080728 7.08399,-0.646957 13.95568,-1.58115 19.59256,-2.663571 3.26727,-0.627399 5.36514,-0.844685 10.31875,-1.068769 8.67286,-0.392327 13.37917,-0.180173 21.10162,0.95123 3.5295,0.517099 6.53582,0.940181 6.68074,0.940181 0.17369,0 0.26348,12.849157 0.26348,37.70313 v 37.70312 H 159.0661 98.509341 Z m 11.366867,-33.94471 c 0.66543,-0.55992 1.05053,-1.472333 2.4289,-5.754684 3.7106,-11.528134 5.68873,-15.443798 9.75693,-19.313581 1.05734,-1.005766 1.88063,-2.011349 1.88063,-2.297044 0,-0.45472 -0.26169,-0.385857 -2.48907,0.655 -5.231,2.444462 -11.97129,4.403786 -18.80989,5.467814 -4.878325,0.759028 -15.378147,0.828137 -19.691916,0.129614 -1.517219,-0.245682 -2.945969,-0.442931 -3.175,-0.438333 -0.749589,0.01506 0.830627,1.155324 5.320328,3.839112 2.37458,1.419442 5.226884,3.216887 6.338451,3.994317 2.3216,1.623727 9.034592,7.630525 12.531057,11.212809 3.20134,3.279926 4.38988,3.783726 5.90958,2.504976 z m -7.30832,-11.068208 c -1.049705,-1.082566 -1.908556,-2.098836 -1.908556,-2.258377 0,-0.159541 0.535001,-1.124733 1.18889,-2.144866 0.898076,-1.401088 1.334936,-1.854176 1.785936,-1.852277 0.71635,0.003 3.85454,1.941082 4.07551,2.516934 0.0858,0.223668 -0.30452,1.563997 -0.86745,2.978507 -1.36272,3.42419 -1.64279,3.473995 -4.27433,0.760079 z M 55.021623,1.186128 c -2.715471,-0.97040173 -4.732091,-3.9694248 -4.732091,-7.0373375 0,-3.0981386 2.273975,-6.2246775 5.003551,-6.8794925 2.108253,-0.505761 3.863705,-0.04309 5.533851,1.458513 1.765723,1.5875373 2.546376,3.3806636 2.530252,5.8118829 -0.03159,4.76357174 -4.232071,8.1128608 -8.335563,6.6464341 z"
         id="path350" /><path
         style="fill:#648ec7;stroke-width:0.264583"
         d="m 97.551835,137.74543 c -0.626512,-1.34607 -1.775074,-3.81662 -2.552359,-5.49011 -0.777285,-1.67349 -2.540484,-4.9477 -3.91822,-7.27604 -4.911354,-8.30004 -5.461201,-9.81998 -6.269315,-17.33021 -0.242705,-2.25557 -0.610576,-4.93448 -0.817493,-5.95312 -0.47479,-2.337358 -1.935472,-5.322334 -3.689967,-7.540628 -2.253898,-2.84971 -5.36181,-7.513307 -6.198375,-9.301001 -0.841319,-1.79786 -1.326991,-3.854239 -1.326991,-5.618599 V 78.146681 L 69.273386,76.970454 C 61.959207,74.516433 53.632548,69.479962 49.013023,64.71575 c -1.088744,-1.122846 -1.11562,-1.187532 -0.554381,-1.334301 0.462113,-0.120844 0.967703,0.192095 2.334842,1.44517 8.051583,7.379816 18.944732,12.238077 30.849172,13.758495 4.396081,0.561459 13.832546,0.419629 18.388544,-0.276381 7.21072,-1.101566 14.6294,-3.343894 19.93148,-6.024372 2.55438,-1.291376 6.65147,-3.864039 8.9081,-5.593615 3.72655,-2.856188 9.45197,-8.775597 11.47254,-11.861255 1.29864,-1.983172 1.92793,-2.713977 2.41758,-2.807582 0.36408,-0.0696 0.66196,-0.08876 0.66196,-0.04258 0,0.214233 -1.76287,3.052469 -2.81576,4.533382 -2.34328,3.295904 -7.48051,8.397989 -11.55417,11.475144 l -2.0668,1.561219 4.18347,-0.0013 c 7.46107,-0.0021 14.41134,-0.577289 22.43972,-1.856759 1.74625,-0.278297 5.31813,-0.688181 7.9375,-0.910857 6.33832,-0.538822 14.17566,-1.588537 19.05,-2.55151 5.19771,-1.026858 10.70826,-1.371663 19.44687,-1.216824 6.05432,0.107278 7.76996,0.236456 12.56771,0.94628 7.19296,1.064188 7.01146,1.020699 7.01146,1.680027 0,0.631534 0.29457,0.649727 -7.01146,-0.433019 -7.25164,-1.07469 -10.08881,-1.26223 -16.53646,-1.093081 -8.47701,0.222387 -10.21953,0.366598 -14.71553,1.21785 -5.16262,0.977469 -10.28554,1.71536 -15.57926,2.243995 -8.53909,0.85272 -11.20561,1.162473 -15.61041,1.813364 -5.48182,0.810041 -9.61051,1.144106 -17.08571,1.382462 l -5.70862,0.182022 0.11025,2.010619 c 0.11753,2.143176 -0.93455,9.749865 -1.67659,12.122087 -0.21774,0.69609 -0.51098,2.317552 -0.65164,3.603252 -0.47441,4.336349 -4.36777,14.645608 -5.91349,15.658408 -0.44035,0.28853 -0.92897,0.39036 -1.35725,0.28287 -0.77178,-0.19371 -0.70612,-0.3419 -1.27959,2.88775 -0.34227,1.92758 -0.55294,2.49467 -1.10578,2.97656 -0.92351,0.80498 -1.59892,0.7489 -2.56047,-0.21266 -0.73448,-0.73448 -0.79079,-0.75253 -0.61906,-0.19844 0.1039,0.33525 0.25255,1.226 0.33034,1.97945 0.12576,1.2182 0.066,1.44529 -0.53919,2.05052 -1.13946,1.13946 -1.99869,0.88778 -4.37649,-1.28199 -0.6041,-0.55124 -0.93344,-0.70633 -1.01631,-0.47858 -0.0674,0.18532 -0.4987,0.89969 -0.95837,1.5875 -0.70162,1.04983 -0.9866,1.26324 -1.77535,1.32955 -1.50296,0.12633 -1.91651,-0.55618 -2.26612,-3.74001 l -0.29528,-2.68888 -0.0354,2.13669 c -0.031,1.86582 -0.11308,2.20962 -0.64782,2.71198 -0.810631,0.76155 -2.043775,0.74777 -2.775403,-0.031 -0.313275,-0.33346 -1.084506,-1.50986 -1.713847,-2.6142 -1.058851,-1.85805 -1.181536,-1.98065 -1.643766,-1.64266 -1.144362,0.83678 -1.912982,0.49122 -4.336994,-1.94985 -1.264409,-1.27331 -2.895714,-3.02074 -3.625117,-3.88318 l -1.326192,-1.56806 0.460287,3.81702 c 1.220989,10.12529 1.108205,9.80623 6.961018,19.69203 1.033854,1.74625 2.493214,4.48468 3.243019,6.08541 0.749806,1.60072 1.920045,4.10105 2.600532,5.55626 0.680484,1.45519 1.291222,2.73513 1.357193,2.84426 0.06597,0.10914 -0.188635,0.19843 -0.565793,0.19843 -0.606406,0 -0.817517,-0.28311 -1.824852,-2.44739 z m 9.867185,-36.86658 c 0.68288,-0.5746 1.0331,-1.372946 2.17629,-4.960934 1.78614,-5.605915 3.77516,-11.029601 4.77018,-13.007386 1.19359,-2.372471 3.58751,-5.577036 5.37717,-7.198016 1.55905,-1.412118 2.17048,-2.313027 1.74729,-2.574573 -0.1176,-0.07268 -1.45181,0.41533 -2.96493,1.084458 -5.6481,2.497696 -11.56068,4.2065 -18.36153,5.306701 -4.101474,0.663509 -16.798428,0.662765 -20.568505,-0.0013 -1.417262,-0.249484 -2.656107,-0.453705 -2.752987,-0.453705 -0.538054,0 1.188244,1.322517 3.864994,2.960976 6.588728,4.033004 7.871166,4.853813 9.397764,6.014924 2.538116,1.930466 6.908305,5.904188 10.191024,9.266494 4.30177,4.406061 5.44257,4.976581 7.12324,3.562381 z m -7.33135,-11.048828 c -1.049705,-1.082566 -1.908556,-2.073291 -1.908556,-2.201611 0,-0.12832 0.515726,-1.063744 1.146059,-2.07872 0.850847,-1.370058 1.310877,-1.862688 1.785937,-1.912483 0.68454,-0.07175 3.8744,1.818537 4.11152,2.436453 0.0747,0.194736 -0.32116,1.527226 -0.87974,2.961093 -1.3486,3.461819 -1.62036,3.512608 -4.25522,0.795268 z m 12.91365,48.836928 c -0.87871,-2.03203 -3.04727,-5.23993 -4.02962,-5.96093 -0.43688,-0.32064 -1.61209,-1.65455 -2.61158,-2.96424 -0.9995,-1.30969 -2.17434,-2.79797 -2.61077,-3.30729 -0.98898,-1.15417 -1.0078,-1.4305 -0.0816,-1.19804 0.99049,0.2486 1.25804,0.50147 2.9472,2.78554 0.80713,1.09141 2.36466,2.94012 3.46116,4.10824 1.51509,1.61406 2.36282,2.83663 3.53165,5.09323 l 1.53801,2.96936 -0.74426,-0.005 c -0.65172,-0.004 -0.82582,-0.19313 -1.40018,-1.52135 z M 77.306752,63.061163 c -3.198865,-0.895504 -6.939677,-3.625345 -8.412969,-6.139326 -1.168117,-1.993244 -1.096447,-6.678994 0.123534,-8.076412 0.809889,-0.927679 2.438881,-0.307168 2.438881,0.929013 0,0.308269 -0.140853,1.242433 -0.313007,2.075923 -0.460677,2.230375 -0.03281,3.432562 1.873255,5.263293 2.928673,2.812926 6.515216,3.859073 9.086522,2.650416 1.599634,-0.751916 4.14823,-3.46946 5.131215,-5.471369 0.685342,-1.395738 0.758812,-1.808459 0.761974,-4.28054 0.0031,-2.394009 0.06724,-2.782472 0.51359,-3.108854 1.281044,-0.936721 2.583093,-0.162497 3.180035,1.890913 0.339783,1.168813 0.747094,1.781612 2.011947,3.026979 2.676017,2.634792 6.315611,4.498705 8.784451,4.498705 3.12317,0 7.05229,-3.869814 7.52767,-7.41404 0.1019,-0.759675 -0.059,-1.604796 -0.57468,-3.018727 -0.79294,-2.174084 -0.67791,-2.917791 0.49689,-3.212648 0.96199,-0.241442 1.60146,0.259295 2.29203,1.794751 0.52004,1.156314 0.6297,1.836574 0.6308,3.913164 10e-4,2.342068 -0.0597,2.630866 -0.89377,4.233334 -1.28238,2.463876 -4.18426,5.291659 -6.24538,6.085909 -3.95308,1.523314 -8.603018,0.141242 -13.382173,-3.977498 l -1.47592,-1.271968 -0.342006,0.970841 c -0.590973,1.677582 -2.17062,4.054059 -3.733757,5.617197 -2.792601,2.7926 -6.300896,3.910674 -9.479132,3.020944 z m -32.51591,-4.282581 c -0.788352,-1.71754 -1.360146,-3.649094 -1.374007,-4.64149 -0.0044,-0.312042 0.197199,-0.463021 0.618135,-0.463021 0.555128,0 0.642657,0.152426 0.786903,1.370354 0.08926,0.753695 0.576228,2.241976 1.082146,3.307292 0.505915,1.065315 0.81639,1.936938 0.689946,1.936938 -0.126447,0 -0.39827,0.06461 -0.604049,0.143573 -0.260811,0.100081 -0.624033,-0.400841 -1.199074,-1.653646 z m -0.85131,-8.88723 c 0,-0.623872 2.511571,-7.796102 3.699119,-10.563485 0.607097,-1.414735 1.037203,-2.680017 0.955794,-2.81174 -0.08141,-0.131723 -2.620582,-3.638876 -5.64261,-7.793678 -6.445769,-8.861894 -6.964447,-9.683033 -8.454453,-13.384546 -1.573763,-3.909579 -1.877944,-5.3607183 -1.306505,-6.2328458 0.509617,-0.7777718 1.262914,-0.8582555 2.739655,-0.2927086 4.737163,1.8141874 9.3102,2.4057714 23.648838,3.0592924 6.505715,0.296516 8.024326,0.566746 10.95784,1.949892 l 1.859138,0.876578 3.432529,-0.860073 c 7.088806,-1.776212 15.384684,-2.790159 23.347298,-2.853574 l 5.098105,-0.0406 1.64877,-1.5488258 c 0.90683,-0.8518551 2.95846,-2.4096107 4.55919,-3.4616788 1.60073,-1.0520706 4.27963,-2.8140581 5.95312,-3.9155292 3.6912,-2.42949947 7.11002,-5.2629251 11.78864,-9.7700944 3.1376,-3.0226138 3.62689,-3.3965808 4.44402,-3.3965808 2.32598,0 3.71606,3.7689739 5.33156,14.4557147 1.03837,6.8688823 1.10093,8.2798053 0.51597,11.6372323 -0.82535,4.737214 -2.5077,12.423204 -2.86843,13.1047 -0.35809,0.676513 -0.26723,0.861967 2.62502,5.358 1.64777,2.561479 3.25135,4.981925 3.56351,5.378768 l 0.56756,0.721534 -0.55104,0.24588 c -0.30308,0.135237 -0.60725,0.18967 -0.67596,0.120965 -0.14656,-0.146558 -4.74945,-7.136897 -7.40226,-11.241712 C 127.82571,19.428292 121.63291,14.992923 112.20907,13.187187 104.16679,11.646174 93.229276,11.845564 81.986263,13.738142 71.02865,15.582679 62.728015,19.302345 57.905008,24.529393 53.653,29.137604 49.24959,37.435927 46.175328,46.634228 c -0.938689,2.808589 -1.261428,3.484044 -1.697432,3.552515 -0.330742,0.05194 -0.538364,-0.06198 -0.538364,-0.295391 z M 143.62835,46.68348 c 0.0661,-1.03061 -0.002,-2.315546 -0.15077,-2.855412 -0.24177,-0.87561 -0.21436,-0.999562 0.25394,-1.148194 0.28874,-0.09164 0.57987,-0.111718 0.64698,-0.04462 0.32449,0.324493 0.68587,3.406423 0.52512,4.478369 -0.14731,0.982322 -0.29657,1.23361 -0.78861,1.327669 -0.59532,0.113803 -0.60462,0.08021 -0.48666,-1.757815 z M 71.822358,43.642891 c -0.598977,-0.272005 -1.429462,-0.940861 -1.845522,-1.486345 -1.060249,-1.390057 -1.208818,-3.990059 -0.317029,-5.548101 0.779582,-1.362006 2.702759,-2.385994 4.017836,-2.139286 2.805937,0.5264 4.62544,3.921562 3.583162,6.686125 -0.417635,1.107736 -1.818617,2.434772 -2.882453,2.730315 -1.227357,0.340968 -1.28216,0.335764 -2.555994,-0.242708 z m 24.875373,-4.231299 c -2.246839,-1.020392 -3.331284,-3.9468 -2.341039,-6.317374 1.263454,-3.024619 4.522496,-3.799827 6.659748,-1.584114 1.75477,1.81918 1.97507,4.596292 0.52757,6.650527 -0.55794,0.791816 -2.322437,1.743486 -3.232604,1.743486 -0.291042,0 -1.017196,-0.221637 -1.613675,-0.492525 z M 55.579487,1.3186869 c -3.138313,-1.02441377 -5.12263,-3.8040787 -5.12263,-7.175868 0,-3.9459298 2.732037,-6.9547609 6.314967,-6.9547609 5.567357,0 8.596754,7.1929891 5.00993,11.89555849 -1.338281,1.75457914 -4.349708,2.83978891 -6.202267,2.23507041 z"
         id="path348" /><path
         style="fill:#5b6da2;stroke-width:0.264583"
         d="m 97.551835,137.74543 c -0.626512,-1.34607 -1.775074,-3.81662 -2.552359,-5.49011 -0.777285,-1.67349 -2.540484,-4.9477 -3.91822,-7.27604 -4.911354,-8.30004 -5.461201,-9.81998 -6.269315,-17.33021 -0.242705,-2.25557 -0.610576,-4.93448 -0.817493,-5.95312 -0.47479,-2.337358 -1.935472,-5.322334 -3.689967,-7.540628 -2.253898,-2.84971 -5.36181,-7.513307 -6.198375,-9.301001 -0.841319,-1.79786 -1.326991,-3.854239 -1.326991,-5.618599 V 78.146681 L 69.273386,76.970454 C 61.959207,74.516433 53.632548,69.479962 49.013023,64.71575 c -1.088744,-1.122846 -1.11562,-1.187532 -0.554381,-1.334301 0.462113,-0.120844 0.967703,0.192095 2.334842,1.44517 8.051583,7.379816 18.944732,12.238077 30.849172,13.758495 4.396081,0.561459 13.832546,0.419629 18.388544,-0.276381 7.21072,-1.101566 14.6294,-3.343894 19.93148,-6.024372 2.55438,-1.291376 6.65147,-3.864039 8.9081,-5.593615 3.72655,-2.856188 9.45197,-8.775597 11.47254,-11.861255 1.29864,-1.983172 1.92793,-2.713977 2.41758,-2.807582 0.36408,-0.0696 0.66196,-0.08876 0.66196,-0.04258 0,0.214233 -1.76287,3.052469 -2.81576,4.533382 -2.34328,3.295904 -7.48051,8.397989 -11.55417,11.475144 l -2.0668,1.561219 4.18347,-0.0013 c 7.46107,-0.0021 14.41134,-0.577289 22.43972,-1.856759 1.74625,-0.278297 5.31813,-0.688181 7.9375,-0.910857 6.33832,-0.538822 14.17566,-1.588537 19.05,-2.55151 5.19771,-1.026858 10.70826,-1.371663 19.44687,-1.216824 6.05432,0.107278 7.76996,0.236456 12.56771,0.94628 7.19296,1.064188 7.01146,1.020699 7.01146,1.680027 0,0.631534 0.29457,0.649727 -7.01146,-0.433019 -7.25164,-1.07469 -10.08881,-1.26223 -16.53646,-1.093081 -8.47701,0.222387 -10.21953,0.366598 -14.71553,1.21785 -5.16262,0.977469 -10.28554,1.71536 -15.57926,2.243995 -8.53909,0.85272 -11.20561,1.162473 -15.61041,1.813364 -5.48182,0.810041 -9.61051,1.144106 -17.08571,1.382462 l -5.70862,0.182022 0.11025,2.010619 c 0.11753,2.143176 -0.93455,9.749865 -1.67659,12.122087 -0.21774,0.69609 -0.51098,2.317552 -0.65164,3.603252 -0.47441,4.336349 -4.36777,14.645608 -5.91349,15.658408 -0.44035,0.28853 -0.92897,0.39036 -1.35725,0.28287 -0.77178,-0.19371 -0.70612,-0.3419 -1.27959,2.88775 -0.34227,1.92758 -0.55294,2.49467 -1.10578,2.97656 -0.92351,0.80498 -1.59892,0.7489 -2.56047,-0.21266 -0.73448,-0.73448 -0.79079,-0.75253 -0.61906,-0.19844 0.1039,0.33525 0.25255,1.226 0.33034,1.97945 0.12576,1.2182 0.066,1.44529 -0.53919,2.05052 -1.13946,1.13946 -1.99869,0.88778 -4.37649,-1.28199 -0.6041,-0.55124 -0.93344,-0.70633 -1.01631,-0.47858 -0.0674,0.18532 -0.4987,0.89969 -0.95837,1.5875 -0.70162,1.04983 -0.9866,1.26324 -1.77535,1.32955 -1.50296,0.12633 -1.91651,-0.55618 -2.26612,-3.74001 l -0.29528,-2.68888 -0.0354,2.13669 c -0.031,1.86582 -0.11308,2.20962 -0.64782,2.71198 -0.810631,0.76155 -2.043775,0.74777 -2.775403,-0.031 -0.313275,-0.33346 -1.084506,-1.50986 -1.713847,-2.6142 -1.058851,-1.85805 -1.181536,-1.98065 -1.643766,-1.64266 -1.144362,0.83678 -1.912982,0.49122 -4.336994,-1.94985 -1.264409,-1.27331 -2.895714,-3.02074 -3.625117,-3.88318 l -1.326192,-1.56806 0.460287,3.81702 c 1.220989,10.12529 1.108205,9.80623 6.961018,19.69203 1.033854,1.74625 2.493214,4.48468 3.243019,6.08541 0.749806,1.60072 1.920045,4.10105 2.600532,5.55626 0.680484,1.45519 1.291222,2.73513 1.357193,2.84426 0.06597,0.10914 -0.188635,0.19843 -0.565793,0.19843 -0.606406,0 -0.817517,-0.28311 -1.824852,-2.44739 z m 9.867185,-36.86658 c 0.68288,-0.5746 1.0331,-1.372946 2.17629,-4.960934 1.78614,-5.605915 3.77516,-11.029601 4.77018,-13.007386 1.19359,-2.372471 3.58751,-5.577036 5.37717,-7.198016 1.55905,-1.412118 2.17048,-2.313027 1.74729,-2.574573 -0.1176,-0.07268 -1.45181,0.41533 -2.96493,1.084458 -5.6481,2.497696 -11.56068,4.2065 -18.36153,5.306701 -4.101474,0.663509 -16.798428,0.662765 -20.568505,-0.0013 -1.417262,-0.249484 -2.656107,-0.453705 -2.752987,-0.453705 -0.538054,0 1.188244,1.322517 3.864994,2.960976 6.588728,4.033004 7.871166,4.853813 9.397764,6.014924 2.538116,1.930466 6.908305,5.904188 10.191024,9.266494 4.30177,4.406061 5.44257,4.976581 7.12324,3.562381 z m -7.33135,-11.048828 c -1.049705,-1.082566 -1.908556,-2.073291 -1.908556,-2.201611 0,-0.12832 0.515726,-1.063744 1.146059,-2.07872 0.850847,-1.370058 1.310877,-1.862688 1.785937,-1.912483 0.68454,-0.07175 3.8744,1.818537 4.11152,2.436453 0.0747,0.194736 -0.32116,1.527226 -0.87974,2.961093 -1.3486,3.461819 -1.62036,3.512608 -4.25522,0.795268 z m 12.91365,48.836928 c -0.87871,-2.03203 -3.04727,-5.23993 -4.02962,-5.96093 -0.43688,-0.32064 -1.61209,-1.65455 -2.61158,-2.96424 -0.9995,-1.30969 -2.17434,-2.79797 -2.61077,-3.30729 -0.98898,-1.15417 -1.0078,-1.4305 -0.0816,-1.19804 0.99049,0.2486 1.25804,0.50147 2.9472,2.78554 0.80713,1.09141 2.36466,2.94012 3.46116,4.10824 1.51509,1.61406 2.36282,2.83663 3.53165,5.09323 l 1.53801,2.96936 -0.74426,-0.005 c -0.65172,-0.004 -0.82582,-0.19313 -1.40018,-1.52135 z M 77.306752,63.061163 c -3.198865,-0.895504 -6.939677,-3.625345 -8.412969,-6.139326 -1.168117,-1.993244 -1.096447,-6.678994 0.123534,-8.076412 0.809889,-0.927679 2.438881,-0.307168 2.438881,0.929013 0,0.308269 -0.140853,1.242433 -0.313007,2.075923 -0.460677,2.230375 -0.03281,3.432562 1.873255,5.263293 2.928673,2.812926 6.515216,3.859073 9.086522,2.650416 1.599634,-0.751916 4.14823,-3.46946 5.131215,-5.471369 0.685342,-1.395738 0.758812,-1.808459 0.761974,-4.28054 0.0031,-2.394009 0.06724,-2.782472 0.51359,-3.108854 1.281044,-0.936721 2.583093,-0.162497 3.180035,1.890913 0.339783,1.168813 0.747094,1.781612 2.011947,3.026979 2.676017,2.634792 6.315611,4.498705 8.784451,4.498705 3.12317,0 7.05229,-3.869814 7.52767,-7.41404 0.1019,-0.759675 -0.059,-1.604796 -0.57468,-3.018727 -0.79294,-2.174084 -0.67791,-2.917791 0.49689,-3.212648 0.96199,-0.241442 1.60146,0.259295 2.29203,1.794751 0.52004,1.156314 0.6297,1.836574 0.6308,3.913164 10e-4,2.342068 -0.0597,2.630866 -0.89377,4.233334 -1.28238,2.463876 -4.18426,5.291659 -6.24538,6.085909 -3.95308,1.523314 -8.603018,0.141242 -13.382173,-3.977498 l -1.47592,-1.271968 -0.342006,0.970841 c -0.590973,1.677582 -2.17062,4.054059 -3.733757,5.617197 -2.792601,2.7926 -6.300896,3.910674 -9.479132,3.020944 z m -32.51591,-4.282581 c -0.788352,-1.71754 -1.360146,-3.649094 -1.374007,-4.64149 -0.0044,-0.312042 0.197199,-0.463021 0.618135,-0.463021 0.555128,0 0.642657,0.152426 0.786903,1.370354 0.08926,0.753695 0.576228,2.241976 1.082146,3.307292 0.505915,1.065315 0.81639,1.936938 0.689946,1.936938 -0.126447,0 -0.39827,0.06461 -0.604049,0.143573 -0.260811,0.100081 -0.624033,-0.400841 -1.199074,-1.653646 z m -0.85131,-8.88723 c 0,-0.623872 2.511571,-7.796102 3.699119,-10.563485 0.607097,-1.414735 1.037203,-2.680017 0.955794,-2.81174 -0.08141,-0.131723 -2.620582,-3.638876 -5.64261,-7.793678 -6.445769,-8.861894 -6.964447,-9.683033 -8.454453,-13.384546 -1.573763,-3.909579 -1.877944,-5.3607183 -1.306505,-6.2328458 0.509617,-0.7777718 1.262914,-0.8582555 2.739655,-0.2927086 4.737163,1.8141874 9.3102,2.4057714 23.648838,3.0592924 6.505715,0.296516 8.024326,0.566746 10.95784,1.949892 l 1.859138,0.876578 3.432529,-0.860073 c 7.088806,-1.776212 15.384684,-2.790159 23.347298,-2.853574 l 5.098105,-0.0406 1.64877,-1.5488258 c 0.90683,-0.8518551 2.95846,-2.4096107 4.55919,-3.4616788 1.60073,-1.0520706 4.27963,-2.8140581 5.95312,-3.9155292 3.6912,-2.42949947 7.11002,-5.2629251 11.78864,-9.7700944 3.1376,-3.0226138 3.62689,-3.3965808 4.44402,-3.3965808 2.32598,0 3.71606,3.7689739 5.33156,14.4557147 1.03837,6.8688823 1.10093,8.2798053 0.51597,11.6372323 -0.82535,4.737214 -2.5077,12.423204 -2.86843,13.1047 -0.35809,0.676513 -0.26723,0.861967 2.62502,5.358 1.64777,2.561479 3.25135,4.981925 3.56351,5.378768 l 0.56756,0.721534 -0.55104,0.24588 c -0.30308,0.135237 -0.60725,0.18967 -0.67596,0.120965 -0.14656,-0.146558 -4.74945,-7.136897 -7.40226,-11.241712 C 127.82571,19.428292 121.63291,14.992923 112.20907,13.187187 104.16679,11.646174 93.229276,11.845564 81.986263,13.738142 71.02865,15.582679 62.728015,19.302345 57.905008,24.529393 53.653,29.137604 49.24959,37.435927 46.175328,46.634228 c -0.938689,2.808589 -1.261428,3.484044 -1.697432,3.552515 -0.330742,0.05194 -0.538364,-0.06198 -0.538364,-0.295391 z M 143.62835,46.68348 c 0.0661,-1.03061 -0.002,-2.315546 -0.15077,-2.855412 -0.24177,-0.87561 -0.21436,-0.999562 0.25394,-1.148194 0.28874,-0.09164 0.57987,-0.111718 0.64698,-0.04462 0.32449,0.324493 0.68587,3.406423 0.52512,4.478369 -0.14731,0.982322 -0.29657,1.23361 -0.78861,1.327669 -0.59532,0.113803 -0.60462,0.08021 -0.48666,-1.757815 z M 71.822358,43.642891 c -0.598977,-0.272005 -1.429462,-0.940861 -1.845522,-1.486345 -1.060249,-1.390057 -1.208818,-3.990059 -0.317029,-5.548101 0.779582,-1.362006 2.702759,-2.385994 4.017836,-2.139286 2.805937,0.5264 4.62544,3.921562 3.583162,6.686125 -0.417635,1.107736 -1.818617,2.434772 -2.882453,2.730315 -1.227357,0.340968 -1.28216,0.335764 -2.555994,-0.242708 z m 24.875373,-4.231299 c -2.246839,-1.020392 -3.331284,-3.9468 -2.341039,-6.317374 1.263454,-3.024619 4.522496,-3.799827 6.659748,-1.584114 1.75477,1.81918 1.97507,4.596292 0.52757,6.650527 -0.55794,0.791816 -2.322437,1.743486 -3.232604,1.743486 -0.291042,0 -1.017196,-0.221637 -1.613675,-0.492525 z M 55.71349,1.3151098 c -3.137056,-0.80861437 -5.206066,-3.6590474 -5.206066,-7.1722909 0,-4.0703528 2.557799,-6.8791669 6.2644,-6.8791669 4.551772,0 7.556267,4.5539714 6.236964,9.4534887 -0.827511,3.07313821 -4.421976,5.338604 -7.295298,4.5979691 z m 3.241215,-1.91267832 c 1.197462,-0.57968098 2.27775,-1.91705718 2.592197,-3.20909168 0.21136,-0.8684578 0.126682,-0.8853726 -0.998371,-0.199427 -1.098767,0.6699197 -1.84736,0.6710865 -2.451222,0.00384 -0.4738,-0.5235416 -0.479546,-0.5228431 -1.086707,0.1322917 -1.205389,1.3006388 -2.752619,0.5693807 -2.75191,-1.3006176 7.94e-4,-2.3031901 1.712968,-4.1261799 3.875175,-4.1261799 1.157473,0 2.209832,0.6569948 2.209832,1.3796143 0,0.2070867 0.153183,0.168095 0.430979,-0.1097016 0.398249,-0.3982482 0.387842,-0.4915562 -0.137027,-1.2286668 -1.418029,-1.9914419 -4.211759,-2.6220579 -6.192597,-1.3978329 -1.546077,0.9555263 -2.413809,2.6797736 -2.405594,4.7800758 0.01021,2.6129801 1.147389,4.4910456 3.279045,5.4154522 1.280165,0.55515141 2.280123,0.51672068 3.6362,-0.13974499 z"
         id="path346" /><path
         style="fill:#722d53;stroke-width:0.264583"
         d="m 103.00391,115.04774 c -0.81485,-0.32737 -1.01583,-1.0037 -1.21067,-4.07428 -0.0917,-1.44581 -0.30281,-2.75549 -0.46904,-2.91042 -0.22582,-0.21047 -0.2602,0.29913 -0.13598,2.01572 0.18746,2.59031 -0.0484,3.5236 -0.99991,3.95715 -1.117283,0.50906 -1.864469,0.0908 -3.014096,-1.68718 -0.589243,-0.91132 -1.278073,-2.0971 -1.530731,-2.63507 l -0.459378,-0.97812 -0.673857,0.53006 c -0.887362,0.698 -1.614961,0.49643 -3.256293,-0.90207 -2.295435,-1.95584 -7.51846,-8.447942 -8.720878,-10.839861 -0.602109,-1.197747 -1.553967,-2.69957 -2.11524,-3.337382 -1.498346,-1.702674 -5.77115,-8.138081 -6.509118,-9.803594 -0.574794,-1.297244 -1.391571,-5.665933 -1.111139,-5.943137 0.0626,-0.06188 0.947264,0.06995 1.96591,0.292952 1.289351,0.282273 2.093253,0.63047 2.645833,1.146008 0.436563,0.407297 2.981804,2.060163 5.65609,3.673034 2.674287,1.612873 5.591318,3.453529 6.482292,4.090347 2.225884,1.59094 9.462854,8.170241 11.462065,10.420435 3.21066,3.613728 5.49577,4.385188 6.98675,2.358758 0.23359,-0.31748 0.92778,-2.18457 1.54264,-4.149101 1.64123,-5.24387 3.93145,-11.528232 4.91753,-13.49375 1.18116,-2.35435 3.01986,-4.794901 5.32978,-7.074337 1.06731,-1.053227 1.94302,-2.12479 1.94603,-2.38125 0.004,-0.308856 0.87461,-0.968994 2.57969,-1.955221 l 2.57422,-1.488929 0.22057,0.695179 c 0.61512,1.938658 -0.10858,9.394519 -1.41579,14.585808 -0.27482,1.091406 -0.61786,2.936875 -0.76232,4.101042 -0.31761,2.559679 -2.79384,9.959655 -4.31706,12.901149 -1.10525,2.13437 -1.64217,2.54098 -2.92887,2.21804 -0.57404,-0.14408 -0.62163,-0.0429 -0.94432,2.00795 -0.35886,2.28062 -0.90535,3.88614 -1.438,4.22464 -0.49436,0.31417 -1.62389,0.2488 -2.13296,-0.12345 -0.25213,-0.18436 -0.74493,-1.10709 -1.09511,-2.05052 -0.77231,-2.08067 -0.86946,-1.49098 -0.13852,0.84081 0.68212,2.17604 0.70281,4.21927 0.0487,4.81121 -0.93709,0.84805 -2.0633,0.56117 -3.63597,-0.9262 -0.79326,-0.75024 -1.48227,-1.31578 -1.53112,-1.25677 -0.0489,0.059 -0.41605,0.71844 -0.81599,1.46537 -0.39995,0.74694 -1.0191,1.49108 -1.3759,1.65365 -0.7507,0.34204 -0.81932,0.34295 -1.61987,0.0213 z m -2.61209,-24.917283 c -2.416453,-2.47586 -2.411098,-2.450569 -0.989227,-4.672968 0.777537,-1.215295 1.379047,-1.8855 1.692257,-1.8855 0.54297,0 3.49781,1.687914 3.98727,2.277684 0.25025,0.30153 0.10267,0.936284 -0.71744,3.085862 -1.33203,3.491331 -1.64089,3.584226 -3.97286,1.194922 z M 76.866163,62.843238 c -3.661304,-1.199435 -7.287173,-4.229867 -8.313359,-6.948151 -0.453239,-1.200595 -0.559898,-1.924953 -0.463394,-3.147058 0.277831,-3.518302 1.269225,-4.934053 2.767621,-3.952264 0.541967,0.355111 0.624723,0.568913 0.489177,1.263799 -0.08973,0.460009 -0.231396,1.669819 -0.314814,2.688465 -0.142801,1.743853 -0.104931,1.921661 0.648046,3.042709 1.61901,2.410415 5.360983,4.571352 7.963609,4.598874 2.796845,0.02958 5.992424,-2.521154 7.750339,-6.186374 0.74649,-1.55642 0.826701,-1.97036 0.844349,-4.357474 0.01844,-2.492666 0.05359,-2.654689 0.639445,-2.947093 1.189543,-0.593701 1.967558,-0.101531 2.581968,1.633352 1.330923,3.75806 7.00333,7.804182 10.96755,7.823142 1.89833,0.0091 3.17314,-0.614169 4.93361,-2.412007 2.51941,-2.572886 3.34003,-5.549387 2.22496,-8.070197 -0.73308,-1.657244 -0.71124,-2.405192 0.0855,-2.927221 0.93002,-0.609377 1.63777,-0.129283 2.48996,1.689058 0.57776,1.232789 0.7024,1.876576 0.70257,3.629036 1.9e-4,1.939314 -0.0913,2.315633 -1.02055,4.195765 -1.24568,2.520455 -3.41963,4.791406 -5.62187,5.872726 -1.37429,0.674786 -1.8422,0.764913 -3.9407,0.759034 -1.93673,-0.0054 -2.652904,-0.12673 -3.836462,-0.649806 -2.436683,-1.076902 -4.412607,-2.335175 -6.055336,-3.856053 l -1.565003,-1.448917 -0.423569,1.243108 c -1.00176,2.940005 -4.077096,6.520902 -6.794632,7.911613 -1.706462,0.873289 -4.947713,1.138754 -6.738995,0.551934 z M 71.513925,43.444464 c -2.270506,-1.119087 -3.087224,-4.543208 -1.646875,-6.904583 1.96745,-3.22553 6.557232,-2.138055 7.433339,1.76121 0.443963,1.975929 -0.542745,4.360537 -2.147745,5.190514 -0.988099,0.510966 -2.547366,0.490765 -3.638719,-0.04714 z M 96.32434,39.055841 c -1.502024,-1.022268 -1.956112,-1.873895 -2.050113,-3.844917 -0.07027,-1.473314 0.01889,-1.953869 0.520996,-2.808269 0.819036,-1.393695 2.112224,-2.074574 3.680817,-1.937994 1.5673,0.136467 2.67975,0.936827 3.41596,2.45762 1.48291,3.063285 -0.46764,6.728873 -3.580594,6.728873 -0.71801,0 -1.422469,-0.21105 -1.987066,-0.595313 z M 46.973054,31.898891 C 39.620413,21.780163 37.670733,18.938255 36.770155,17.02686 35.669126,14.690023 34.118078,10.28344 34.29552,9.9963353 c 0.06207,-0.1004411 1.394167,0.2245597 2.960209,0.7222197 4.598434,1.461302 8.860536,1.981475 20.309845,2.478744 7.45573,0.323818 9.582538,0.592473 11.377083,1.437132 l 1.322916,0.622673 -1.190625,0.483836 c -2.641457,1.073417 -5.806929,2.744928 -7.899429,4.171251 l -2.210884,1.507022 0.193019,-1.930384 c 0.106158,-1.061712 0.297402,-2.20607 0.424984,-2.543019 0.45344,-1.197549 -0.767956,-2.375818 -1.983653,-1.91361 -0.895982,0.340651 -1.186323,0.973196 -1.421577,3.097102 l -0.199334,1.799624 -0.888918,-1.385922 c -0.511858,-0.798047 -1.146728,-1.450625 -1.496708,-1.538467 -0.822855,-0.206523 -1.673149,0.29338 -1.876391,1.103164 -0.162182,0.646182 0.120883,1.234697 1.886696,3.922596 l 0.50433,0.767686 -1.048879,-0.19378 c -0.576885,-0.106577 -1.772598,-0.481801 -2.657139,-0.833832 -1.928675,-0.76757 -2.278031,-0.786726 -2.84865,-0.156197 -0.883547,0.976307 -0.433266,2.109655 1.115666,2.808129 l 1.056534,0.47643 -0.787477,0.662617 c -1.474475,1.240689 -2.300404,3.716589 -1.505106,4.511887 0.433425,0.433424 1.678583,0.400285 2.135709,-0.05684 0.205888,-0.205888 0.524692,-0.737319 0.708454,-1.180959 0.341421,-0.824268 2.501886,-2.148867 3.504869,-2.148867 0.648181,0 0.625065,0.07591 -0.55018,1.80653 -0.565071,0.832104 -1.676498,2.665101 -2.469841,4.073327 l -1.442442,2.560413 z m 85.857186,-6.99583 c -0.79525,-1.12645 -2.65769,-3.267876 -4.13874,-4.758724 -1.48105,-1.490848 -2.60874,-2.7626 -2.50598,-2.82611 0.42607,-0.263321 4.55236,-1.214991 5.26802,-1.214991 1.57698,0 2.26501,-1.966457 0.98213,-2.80703 -0.66764,-0.437455 -1.43064,-0.424858 -3.82087,0.06308 l -0.91744,0.187283 0.80734,-1.036767 c 0.44403,-0.570225 0.88621,-1.253755 0.98263,-1.518957 0.35262,-0.969913 -0.91459,-2.2243473 -1.92351,-1.9041274 -0.27128,0.086101 -1.12998,0.9953074 -1.90824,2.0204594 l -1.41501,1.863912 -0.18907,-1.675069 c -0.104,-0.921289 -0.13153,-2.2108528 -0.0612,-2.8656966 0.14072,-1.3101373 0.0107,-1.6203269 -0.87422,-2.0863667 -1.13769,-0.5991278 -2.18281,0.4651561 -2.18281,2.2228441 V 9.5318116 L 120.02548,8.97076 c -1.27378,-0.7872413 -3.37861,-1.0044669 -4.24327,-0.4379199 -1.45913,0.9560614 -0.52838,2.8078959 1.41128,2.8078959 0.73347,0 1.15627,0.251299 2.23104,1.326065 0.72933,0.729338 1.25644,1.395688 1.17135,1.480781 -0.0851,0.08509 -0.92462,-0.153302 -1.86563,-0.529762 -2.29323,-0.91744 -6.49545,-1.914105 -9.71625,-2.30446 -1.44804,-0.175498 -2.6289,-0.389962 -2.62414,-0.476586 0.0152,-0.275887 3.21952,-2.7054999 5.54759,-4.2063225 8.93978,-5.76315699 10.93491,-7.30694524 16.71532,-12.9339582 1.99015,-1.9373348 3.80311,-3.5224245 4.0288,-3.5224245 1.35507,0 2.79806,5.3157995 4.27322,15.7420262 0.62908,4.446257 0.67747,5.270783 0.4193,7.14375 -0.39374,2.856532 -2.72219,13.891308 -2.9312,13.891308 -0.0917,0 -0.8174,-0.921641 -1.61265,-2.048092 z M 54.319136,0.74109354 C 49.41727,-1.7467545 49.244716,-9.6588178 54.040213,-12.048513 c 4.57781,-2.281222 9.54587,1.487074 9.1554,6.9444128 -0.168357,2.3529847 -1.171165,4.26554123 -2.841932,5.42013002 C 59.338142,1.0178239 58.867583,1.1587225 57.30099,1.2301018 55.811307,1.2979753 55.227845,1.2022914 54.319136,0.74109354 Z m 4.809061,-1.37710602 c 0.568402,-0.32502741 1.259176,-0.89550082 1.535052,-1.26771672 0.509934,-0.6880119 1.297448,-2.6846134 1.127207,-2.8578361 -0.05136,-0.052255 -0.434914,0.1481878 -0.85235,0.4454287 -1.301898,0.9270339 -2.063316,0.9828504 -2.838108,0.2080578 L 57.417166,-4.7909102 57.17,-4.1408104 c -0.290806,0.764876 -1.311126,1.0966873 -2.0902,0.679741 -1.595887,-0.8540935 -0.617061,-4.6016255 1.424736,-5.4547428 1.536465,-0.6419744 2.64895,-0.5004541 3.376801,0.4295643 0.56988,0.7281704 0.670229,0.7672494 0.987755,0.3846539 0.299564,-0.3609525 0.272672,-0.5348922 -0.176456,-1.1412432 -1.242681,-1.6777148 -3.328998,-2.4713008 -5.101134,-1.9403568 -1.452698,0.43524 -2.37526,1.2704477 -3.083576,2.7916061 -1.05995,2.2763084 -0.732642,4.612492 0.916085,6.5386587 1.605346,1.87548847 3.751723,2.33338963 5.704186,1.21691672 z"
         id="path344" /><path
         style="fill:#32417c;stroke-width:0.264583"
         d="m 103.00391,115.04774 c -0.81485,-0.32737 -1.01583,-1.0037 -1.21067,-4.07428 -0.0917,-1.44581 -0.30281,-2.75549 -0.46904,-2.91042 -0.22582,-0.21047 -0.2602,0.29913 -0.13598,2.01572 0.18746,2.59031 -0.0484,3.5236 -0.99991,3.95715 -1.117283,0.50906 -1.864469,0.0908 -3.014096,-1.68718 -0.589243,-0.91132 -1.278073,-2.0971 -1.530731,-2.63507 l -0.459378,-0.97812 -0.673857,0.53006 c -0.887362,0.698 -1.614961,0.49643 -3.256293,-0.90207 -2.295435,-1.95584 -7.51846,-8.447942 -8.720878,-10.839861 -0.602109,-1.197747 -1.553967,-2.69957 -2.11524,-3.337382 -1.498346,-1.702674 -5.77115,-8.138081 -6.509118,-9.803594 -0.574794,-1.297244 -1.391571,-5.665933 -1.111139,-5.943137 0.0626,-0.06188 0.945438,0.07435 1.961851,0.302734 1.255189,0.28204 2.069216,0.635272 2.537539,1.101119 0.379233,0.377229 2.881371,1.994789 5.560309,3.594579 2.678935,1.59979 5.831237,3.630168 7.005111,4.51195 2.730161,2.050828 9.083706,7.816218 10.92989,9.918105 2.21622,2.523167 3.83864,3.695617 5.11398,3.695617 1.74,0 2.14889,-0.69055 4.3089,-7.277136 3.64932,-11.127992 5.26572,-14.291139 9.39723,-18.389466 1.16305,-1.153707 2.1171,-2.309836 2.12011,-2.569173 0.004,-0.315497 0.85728,-0.964208 2.57969,-1.960454 l 2.57422,-1.488929 0.22057,0.695179 c 0.61512,1.938658 -0.10858,9.394519 -1.41579,14.585808 -0.27482,1.091406 -0.61786,2.936875 -0.76232,4.101042 -0.31761,2.559679 -2.79384,9.959655 -4.31706,12.901149 -1.10525,2.13437 -1.64217,2.54098 -2.92887,2.21804 -0.57404,-0.14408 -0.62163,-0.0429 -0.94432,2.00795 -0.35886,2.28062 -0.90535,3.88614 -1.438,4.22464 -0.49436,0.31417 -1.62389,0.2488 -2.13296,-0.12345 -0.25213,-0.18436 -0.74493,-1.10709 -1.09511,-2.05052 -0.77231,-2.08067 -0.86946,-1.49098 -0.13852,0.84081 0.68212,2.17604 0.70281,4.21927 0.0487,4.81121 -0.93709,0.84805 -2.0633,0.56117 -3.63597,-0.9262 -0.79326,-0.75024 -1.48227,-1.31578 -1.53112,-1.25677 -0.0489,0.059 -0.41605,0.71844 -0.81599,1.46537 -0.39995,0.74694 -1.0191,1.49108 -1.3759,1.65365 -0.7507,0.34204 -0.81932,0.34295 -1.61987,0.0213 z m -2.80405,-25.207743 c -0.965889,-1.079214 -1.756162,-2.150229 -1.756162,-2.380035 0,-0.680803 2.139652,-3.887973 2.593852,-3.887973 0.59084,0 3.92868,2.024314 4.10789,2.491332 0.0818,0.213191 -0.30489,1.55556 -0.85934,2.98304 -1.34273,3.457017 -1.64924,3.516548 -4.08624,0.793636 z M 71.513925,43.444464 c -2.270506,-1.119087 -3.087224,-4.543208 -1.646875,-6.904583 1.96745,-3.22553 6.557232,-2.138055 7.433339,1.76121 0.443963,1.975929 -0.542745,4.360537 -2.147745,5.190514 -0.988099,0.510966 -2.547366,0.490765 -3.638719,-0.04714 z M 96.32434,39.055841 c -1.502024,-1.022268 -1.956112,-1.873895 -2.050113,-3.844917 -0.07027,-1.473314 0.01889,-1.953869 0.520996,-2.808269 0.819036,-1.393695 2.112224,-2.074574 3.680817,-1.937994 1.5673,0.136467 2.67975,0.936827 3.41596,2.45762 1.48291,3.063285 -0.46764,6.728873 -3.580594,6.728873 -0.71801,0 -1.422469,-0.21105 -1.987066,-0.595313 z M 54.319136,0.74109354 C 49.41727,-1.7467545 49.244716,-9.6588178 54.040213,-12.048513 c 4.57781,-2.281222 9.54587,1.487074 9.1554,6.9444128 -0.168357,2.3529847 -1.171165,4.26554123 -2.841932,5.42013002 C 59.338142,1.0178239 58.867583,1.1587225 57.30099,1.2301018 55.811307,1.2979753 55.227845,1.2022914 54.319136,0.74109354 Z m 4.809061,-1.37710602 c 0.568402,-0.32502741 1.259176,-0.89550082 1.535052,-1.26771672 0.509934,-0.6880119 1.297448,-2.6846134 1.127207,-2.8578361 -0.05136,-0.052255 -0.434914,0.1481878 -0.85235,0.4454287 -1.301898,0.9270339 -2.063316,0.9828504 -2.838108,0.2080578 L 57.417166,-4.7909102 57.17,-4.1408104 c -0.290806,0.764876 -1.311126,1.0966873 -2.0902,0.679741 -1.595887,-0.8540935 -0.617061,-4.6016255 1.424736,-5.4547428 1.536465,-0.6419744 2.64895,-0.5004541 3.376801,0.4295643 0.56988,0.7281704 0.670229,0.7672494 0.987755,0.3846539 0.299564,-0.3609525 0.272672,-0.5348922 -0.176456,-1.1412432 -1.242681,-1.6777148 -3.328998,-2.4713008 -5.101134,-1.9403568 -1.452698,0.43524 -2.37526,1.2704477 -3.083576,2.7916061 -1.05995,2.2763084 -0.732642,4.612492 0.916085,6.5386587 1.605346,1.87548847 3.751723,2.33338963 5.704186,1.21691672 z"
         id="path342" /><path
         style="fill:#273467;stroke-width:0.264583"
         d="m 103.63695,110.75793 c -0.098,-1.34607 -0.24194,-2.80459 -0.31981,-3.24115 -0.1374,-0.77025 -0.10588,-0.7548 1.06436,0.52192 0.66327,0.72362 1.20595,1.47116 1.20595,1.66119 0,0.34644 -1.5173,3.50543 -1.6837,3.50543 -0.0487,0 -0.16877,-1.10133 -0.2668,-2.44739 z m -5.103739,0.26458 c -0.390982,-0.61846 -1.409922,-2.56973 -2.264314,-4.33614 l -1.553438,-3.21166 0.64965,-0.95731 0.64965,-0.95731 0.995503,1.39084 c 0.547526,0.76497 1.302398,1.72612 1.67749,2.1359 0.653201,0.7136 0.681987,0.87831 0.681987,3.90224 0,1.73645 -0.02827,3.15735 -0.06283,3.15755 -0.03455,2.1e-4 -0.38272,-0.50565 -0.7737,-1.12411 z m 10.447829,-0.85521 c -0.80916,-0.79003 -2.39173,-2.56926 -3.51682,-3.95385 -2.00306,-2.46505 -2.50132,-3.50554 -2.51629,-5.25464 l -0.006,-0.73715 0.98746,0.671 c 1.21278,0.8241 2.64329,0.88073 3.58266,0.14183 0.85968,-0.67623 0.98613,-0.66524 0.98613,0.0857 0,1.0278 0.8132,5.45965 1.46444,7.98106 0.33784,1.308 0.58628,2.40616 0.5521,2.44035 -0.0342,0.0342 -0.7242,-0.58423 -1.53336,-1.37427 z m 4.63882,-3.1274 c -0.38691,-1.19004 -0.47414,-1.85135 -0.30464,-2.30956 0.31406,-0.84898 1.18118,-4.35344 1.39842,-5.651725 0.14368,-0.858626 0.22905,-0.968592 0.51352,-0.661458 0.27725,0.299331 0.28001,1.087437 0.0148,4.204833 -0.2754,3.23674 -0.74903,6.08542 -1.01176,6.08542 -0.0375,0 -0.31212,-0.75038 -0.6103,-1.66751 z m -21.80252,-0.79834 c -2.471134,-2.37446 -7.393106,-8.43734 -7.395421,-9.109675 -5.29e-4,-0.181901 0.123672,-0.330729 0.276217,-0.330729 0.521155,0 0.987229,-1.599055 0.759883,-2.607077 -0.117834,-0.522468 -0.182202,-0.981986 -0.143039,-1.021149 0.03916,-0.03916 0.895787,1.148043 1.903609,2.638242 1.007821,1.490197 2.51701,3.560713 3.353755,4.601148 0.836744,1.04043 1.521354,2.06881 1.521354,2.28529 0,0.21648 0.288258,1.38882 0.640577,2.60521 0.352317,1.2164 0.614908,2.23729 0.583539,2.26867 -0.03137,0.0314 -0.706583,-0.5671 -1.500474,-1.32993 z m 8.62502,-2.09822 c -0.669552,-0.76398 -2.160429,-2.7682 -3.313054,-4.453828 -2.075506,-3.035258 -2.098019,-3.086212 -2.338062,-5.291667 -0.13331,-1.224794 -0.226031,-2.249956 -0.20605,-2.278137 0.08371,-0.118062 4.947743,4.343797 5.442816,4.992783 0.38234,0.501211 0.65469,1.545204 0.93181,3.571879 0.21535,1.57501 0.49869,3.31015 0.62964,3.85585 0.13095,0.5457 0.20033,0.99219 0.15418,0.99219 -0.0461,0 -0.63172,-0.62508 -1.30128,-1.38907 z m 10.70134,-0.73249 c 0,-0.29374 -0.41618,-1.82142 -0.92484,-3.39486 l -0.92484,-2.860808 1.30634,-3.909902 c 0.71848,-2.150443 1.35735,-3.960921 1.41971,-4.023278 0.19351,-0.193506 1.50488,3.600027 1.50482,4.353145 -8e-5,1.108162 -1.01039,7.030513 -1.49942,8.789453 -0.43292,1.55714 -0.88177,2.08971 -0.88177,1.04625 z m 7.05582,-2.00352 c -0.27022,-1.636012 -0.20603,-2.985903 0.17876,-3.759418 0.61029,-1.226843 1.22044,-3.817363 1.8598,-7.896164 0.5881,-3.75185 0.62942,-3.884205 0.90757,-2.907318 0.32273,1.133414 1.002,2.019226 1.54843,2.019226 0.20705,0 0.35587,0.288303 0.35587,0.689446 0,0.962331 -2.79633,9.138706 -3.82794,11.192768 l -0.85166,1.69575 z M 92.585735,99.781796 c -1.627674,-1.745848 -5.629163,-7.618067 -6.589331,-9.669897 -0.76962,-1.644642 -1.39373,-5.216994 -0.911437,-5.216994 0.333696,0 5.169035,3.289316 6.413418,4.362829 1.025941,0.885063 1.124479,1.07909 1.124479,2.214126 0,1.589214 0.706866,7.296589 1.0511,8.486773 0.144521,0.499687 0.223282,0.948007 0.175019,0.996267 -0.04826,0.0483 -0.616722,-0.47964 -1.263248,-1.173104 z m 23.849625,-3.295 c 0,-0.749884 -1.29651,-4.918768 -2.37902,-7.649662 l -1.05602,-2.664061 0.57227,-1.366687 c 0.73785,-1.762143 2.37014,-4.55431 3.34396,-5.720106 l 0.76335,-0.913834 0.61022,1.575292 c 0.47629,1.229556 0.60975,2.097918 0.60807,3.956542 -0.002,2.427021 -0.83656,8.246727 -1.5932,11.112501 -0.42329,1.603224 -0.86963,2.460352 -0.86963,1.670015 z M 82.265224,93.556594 c -1.538068,-1.787559 -5.524101,-7.614193 -6.378017,-9.323147 -0.6706,-1.34208 -1.256009,-3.577685 -1.256009,-4.796547 0,-0.617265 0.06704,-0.654875 0.859896,-0.482407 0.472943,0.102876 1.236472,0.516306 1.696731,0.918734 0.460261,0.402426 1.799714,1.308714 2.976562,2.013974 l 2.139728,1.28229 0.0083,1.458021 c 0.01,1.766708 0.630904,7.053094 1.03774,8.835314 0.162195,0.710536 0.252707,1.334077 0.201134,1.385647 -0.05157,0.05157 -0.63028,-0.529773 -1.286018,-1.291879 z M 100.3553,89.84962 c -1.051379,-1.058447 -1.911602,-2.11155 -1.911602,-2.340229 0,-0.563105 2.017452,-3.651353 2.508372,-3.839737 0.62364,-0.239315 4.10621,2.034681 4.10621,2.681219 0,0.620112 -1.47874,4.576469 -1.90042,5.084562 -0.4879,0.587888 -0.84289,0.387022 -2.80256,-1.585815 z m 3.07984,-1.368846 c 0.44731,-1.156467 0.78714,-2.116156 0.75519,-2.132637 -0.032,-0.01648 -0.6877,-0.42505 -1.45721,-0.907928 -0.76952,-0.482878 -1.47019,-0.806895 -1.55705,-0.720034 -0.0869,0.08686 -0.54795,0.727255 -1.02465,1.423101 l -0.86671,1.265171 1.6152,1.646412 c 0.88836,0.905526 1.63922,1.619901 1.66858,1.5875 0.0294,-0.0324 0.41934,-1.005115 0.86665,-2.161585 z m 19.47449,-2.593681 c -0.31423,-1.481738 -1.73109,-5.803151 -2.56622,-7.826957 l -0.80053,-1.939978 1.09207,-1.112745 c 0.60065,-0.612011 1.09208,-1.310894 1.09208,-1.553078 0,-0.40595 2.84884,-2.317763 3.45376,-2.317763 0.46725,0 0.25413,4.88996 -0.38092,8.740127 -0.56888,3.448949 -1.37333,6.87029 -1.61538,6.87029 -0.0509,0 -0.17456,-0.386953 -0.27486,-0.859896 z"
         id="path340" /></g></g></svg>
