<?xml version="1.0" encoding="UTF-8" standalone="no"?>
<!-- Created with Inkscape (http://www.inkscape.org/) -->

<svg
   width="90.550003mm"
   height="46.566681mm"
   viewBox="0 0 90.550003 46.566681"
   version="1.1"
   id="svg5"
   xml:space="preserve"
   sodipodi:docname="yuumbread2.svg"
   inkscape:export-filename="yuumsad.svg"
   inkscape:export-xdpi="191"
   inkscape:export-ydpi="191"
   inkscape:version="1.2 (dc2aedaf03, 2022-05-15)"
   xmlns:inkscape="http://www.inkscape.org/namespaces/inkscape"
   xmlns:sodipodi="http://sodipodi.sourceforge.net/DTD/sodipodi-0.dtd"
   xmlns="http://www.w3.org/2000/svg"
   xmlns:svg="http://www.w3.org/2000/svg"><sodipodi:namedview
     id="namedview7"
     pagecolor="#ffffff"
     bordercolor="#666666"
     borderopacity="1.0"
     inkscape:showpageshadow="2"
     inkscape:pageopacity="0.0"
     inkscape:pagecheckerboard="0"
     inkscape:deskcolor="#d1d1d1"
     inkscape:document-units="mm"
     showgrid="false"
     showguides="true"
     inkscape:zoom="2.7830997"
     inkscape:cx="131.14873"
     inkscape:cy="75.096125"
     inkscape:window-width="1920"
     inkscape:window-height="1009"
     inkscape:window-x="-8"
     inkscape:window-y="-8"
     inkscape:window-maximized="1"
     inkscape:current-layer="layer1"><sodipodi:guide
       position="45.442441,40.577404"
       orientation="1,0"
       id="guide2268"
       inkscape:locked="false" /></sodipodi:namedview><defs
     id="defs2" /><g
     inkscape:label="Layer 1"
     inkscape:groupmode="layer"
     id="layer1"
     transform="translate(-51.124849,-221.59548)"><path
       style="fill:#e6bd63;stroke-width:0.264583"
       d="m 81.972511,267.63298 v -0.52917 h -1.058334 -1.058333 v -0.52916 -0.52916 h -1.058333 -1.058334 v -0.52918 -0.52916 h -1.058333 -1.058333 v -0.52916 -0.52917 h -0.529167 -0.529167 v -0.52916 -0.52917 H 74.03501 73.505844 v -0.52917 -0.52916 H 72.976677 72.44751 v -1.05834 -1.05833 h -0.529166 -0.529167 v -1.05833 -1.05834 H 70.86001 70.330844 v -0.52916 -0.52917 H 69.801677 69.27251 v -1.05833 -1.05834 h -0.529166 -0.529167 v -1.05833 -1.05833 H 67.68501 67.155844 v -0.52917 -0.52917 h -1.5875 -1.587501 v -0.52916 -0.52917 H 62.92251 61.864177 v -0.52917 -0.52916 H 60.805843 59.74751 v -0.52917 -0.52917 h -2.116667 -2.116667 v 0.52917 0.52917 h -1.5875 -1.5875 v -0.52917 -0.52917 H 51.81001 51.280843 v -0.52916 -0.52917 h 1.058333 1.058334 v 0.52917 0.52916 h 1.058333 1.058333 v -0.52916 -0.52917 h 1.587501 1.5875 v -1.05833 -1.05834 H 56.043343 53.39751 v -0.52916 -0.52917 h -0.529167 -0.529167 v -1.05833 -1.05834 h 1.058334 1.058333 v 0.52917 0.52917 H 53.926676 53.39751 v 0.52916 0.52917 h 2.645833 2.645834 v -0.52917 -0.52916 h 0.529166 0.529167 v -1.5875 -1.5875 h -0.529167 -0.529166 v -0.52917 -0.52917 H 58.16001 57.630843 v -0.52916 -0.52917 H 57.101677 56.57251 v -0.52917 -0.52916 h -0.529167 -0.529167 v -0.52917 -0.52917 H 54.98501 54.455843 v -1.5875 -1.5875 h 4.7625 4.7625 v 0.52917 0.52917 h 1.587501 1.5875 v 0.52916 0.52917 h 1.058333 1.058333 v -0.52917 -0.52916 h 0.529167 0.529167 v -1.05834 -1.05833 H 69.801677 69.27251 v -0.52917 -0.52916 h -0.529166 -0.529167 v -0.52917 -0.52917 H 66.09751 63.980843 v 0.52917 0.52917 h -1.5875 -1.5875 v -1.5875 -1.5875 h 1.5875 1.5875 v 0.52916 0.52917 h 2.116667 2.116667 v 0.52917 0.52916 h 0.529167 0.529166 v 0.52917 0.52917 h 0.529167 0.529167 v 0.52916 0.52917 h 0.529166 0.529167 v 1.05833 1.05834 h 3.704167 3.704167 v -0.52917 -0.52917 h 0.529166 0.529167 v -0.52916 -0.52917 h 1.058333 1.058334 v -0.52917 -0.52916 h 0.529166 0.529167 v -0.52917 -0.52917 h 0.529167 0.529167 v -0.52916 -0.52917 h 1.058333 1.058333 v -0.52917 -0.52916 h 1.058334 1.058333 v 1.05833 1.05833 h 0.529167 0.529166 v 3.70417 3.70417 h -0.529166 -0.529167 v 1.05833 1.05833 h 0.529167 0.529166 v 0.52917 0.52917 h 0.529167 0.529167 v 0.52916 0.52917 h 1.5875 1.5875 v -1.05833 -1.05834 h 0.529167 0.529166 v -0.52916 -0.52917 h 0.529171 0.52916 v 0.52917 0.52916 h 0.52917 0.52917 v 0.52917 0.52917 h -0.52917 -0.52917 v 0.52916 0.52917 h -1.058331 -1.058333 v 0.52917 0.52916 h -1.058334 -1.058333 v 1.05834 1.05833 h 1.5875 1.5875 v 0.52917 0.52916 h -2.116667 -2.116666 v 0.52917 0.52917 h -0.529167 -0.529167 v 0.52916 0.52917 h -0.529166 -0.529167 v 0.52917 0.52916 h 1.5875 1.5875 v -0.52916 -0.52917 h 1.5875 1.5875 v -0.52917 -0.52916 h 1.587501 1.5875 v -0.52917 -0.52917 h 1.587504 1.587494 v -0.52916 -0.52917 h 3.17502 3.175 v 0.52917 0.52916 h 1.5875 1.5875 v 0.52917 0.52917 h 1.5875 1.5875 v 0.52916 0.52917 h 1.5875 1.5875 v 0.52917 0.52916 h 1.05833 1.05834 v -1.05833 -1.05833 h 0.52916 0.52917 v -0.52917 -0.52917 h 1.05833 1.05834 v -0.52916 -0.52917 h 0.52916 0.52917 v -0.52917 -0.52916 h 0.52917 0.52916 v -1.05834 -1.05833 h 0.52917 0.52917 v -1.05833 -1.05834 h 0.52916 0.52917 v -1.05833 -1.05833 h 0.52917 0.52915 v -1.05834 -1.05833 h 0.52917 0.52917 v -4.23333 -4.23334 h -3.70417 -3.70417 v 0.52917 0.52917 h -1.5875 -1.5875 v -1.5875 -1.5875 h 0.52917 0.52917 v -0.52917 -0.52917 h 1.05833 1.05833 v -0.52916 -0.52917 h 3.70417 3.70417 v 0.52917 0.52916 h 1.05833 1.05833 v 0.52917 0.52917 h 0.52917 0.52917 v 0.52916 0.52917 h 0.52916 0.52917 v 1.05833 1.05834 h 0.52917 0.52916 v 4.7625 4.7625 h -0.52916 -0.52917 v 2.11666 2.11667 h -0.52917 -0.52916 v 1.05833 1.05834 h -0.52917 -0.52917 v 1.05833 1.05833 h -0.52916 -0.52917 v 1.05834 1.05833 h -0.52917 -0.52915 v 1.05833 1.05834 h -0.52917 -0.52917 v 4.23333 4.23333 h -0.52916 -0.52917 v 1.5875 1.5875 h -0.52917 -0.52916 v 0.52917 0.52917 h -0.52917 -0.52917 v 0.52916 0.52917 h -0.52916 -0.52917 v 0.52917 0.52916 h -1.05833 -1.05834 v 0.52917 0.52916 h -1.05833 -1.05833 v 0.52916 0.52918 h -2.11667 -2.11667 v 0.52916 0.52916 h -3.70416 -3.70417 v 0.52917 0.52917 h -12.700019 -12.7 z m 6.35,-19.05 v -0.52917 h -0.529167 -0.529166 v 0.52917 0.52917 h 0.529166 0.529167 z m 7.408331,-5.29167 v -0.52916 h 0.52917 0.52917 v -0.52917 -0.52917 h 0.52916 0.52917 v 1.05834 1.05833 h -1.05833 -1.05834 z"
       id="path668" /><path
       style="fill:#8892b7;stroke-width:0.264583"
       d="m 81.972511,267.63298 v -0.52917 h -1.058334 -1.058333 v -0.52916 -0.52916 h -1.058333 -1.058334 v -0.52918 -0.52916 h -1.058333 -1.058333 v -0.52916 -0.52917 h -0.529167 -0.529167 v -0.52916 -0.52917 H 74.03501 73.505844 v -0.52917 -0.52916 H 72.976677 72.44751 v -1.05834 -1.05833 h -0.529166 -0.529167 v -1.05833 -1.05834 H 70.86001 70.330844 v -0.52916 -0.52917 H 69.801677 69.27251 v -1.05833 -1.05834 h -0.529166 -0.529167 v -1.05833 -1.05833 H 67.68501 67.155844 v -0.52917 -0.52917 h -1.5875 -1.587501 v -0.52916 -0.52917 H 62.92251 61.864177 v -0.52917 -0.52916 H 60.805843 59.74751 v -0.52917 -0.52917 h 0.529167 0.529166 v -0.52916 -0.52917 H 59.74751 58.689177 v -1.05833 -1.05834 h 1.058333 1.058333 v -0.52916 -0.52917 H 59.74751 58.689177 v -0.52917 -0.52916 h 0.529166 0.529167 v -1.5875 -1.5875 h -0.529167 -0.529166 v -0.52917 -0.52917 H 58.16001 57.630843 v -0.52916 -0.52917 H 57.101677 56.57251 v -0.52917 -0.52916 h -0.529167 -0.529167 v -0.52917 -0.52917 H 54.98501 54.455843 v -1.5875 -1.5875 h 4.7625 4.7625 v 0.52917 0.52917 h 1.587501 1.5875 v 0.52916 0.52917 h 1.058333 1.058333 v -0.52917 -0.52916 h 4.7625 4.762501 v -0.52917 -0.52917 h 0.529166 0.529167 v -0.52916 -0.52917 h 1.058333 1.058334 v -0.52917 -0.52916 h 0.529166 0.529167 v -0.52917 -0.52917 h 0.529167 0.529167 v -0.52916 -0.52917 h 1.058333 1.058333 v -0.52917 -0.52916 h 1.058334 1.058333 v 1.05833 1.05833 h 0.529167 0.529166 v 3.70417 3.70417 h -0.529166 -0.529167 v 1.05833 1.05833 h 0.529167 0.529166 v 0.52917 0.52917 h 0.529167 0.529167 v 1.05833 1.05833 h 0.529166 0.529167 v 1.05834 1.05833 h -2.116667 -2.116666 v 0.52917 0.52916 h 1.5875 1.5875 v 0.52917 0.52917 h -0.529167 -0.529167 v 0.52916 0.52917 h -0.529166 -0.529167 v 0.52917 0.52916 h 1.5875 1.5875 v -0.52916 -0.52917 h 1.5875 1.5875 v -0.52917 -0.52916 h 1.587501 1.5875 v -0.52917 -0.52917 h 1.587504 1.587494 v -0.52916 -0.52917 h 3.17502 3.175 v 0.52917 0.52916 h 1.5875 1.5875 v 0.52917 0.52917 h 1.5875 1.5875 v 0.52916 0.52917 h 1.5875 1.5875 v 0.52917 0.52916 h 1.05833 1.05834 v -1.05833 -1.05833 h 0.52916 0.52917 v -0.52917 -0.52917 h 1.05833 1.05834 v -0.52916 -0.52917 h 0.52916 0.52917 v -0.52917 -0.52916 h 0.52917 0.52916 v -1.05834 -1.05833 h 0.52917 0.52917 v -1.05833 -1.05834 h 0.52916 0.52917 v -1.05833 -1.05833 h 0.52917 0.52915 v -1.05834 -1.05833 h 0.52917 0.52917 v -4.23333 -4.23334 h -3.70417 -3.70417 v 0.52917 0.52917 h -1.5875 -1.5875 v -1.5875 -1.5875 h 0.52917 0.52917 v -0.52917 -0.52917 h 1.05833 1.05833 v -0.52916 -0.52917 h 3.70417 3.70417 v 0.52917 0.52916 h 1.05833 1.05833 v 0.52917 0.52917 h 0.52917 0.52917 v 0.52916 0.52917 h 0.52916 0.52917 v 1.05833 1.05834 h 0.52917 0.52916 v 4.7625 4.7625 h -0.52916 -0.52917 v 2.11666 2.11667 h -0.52917 -0.52916 v 1.05833 1.05834 h -0.52917 -0.52917 v 1.05833 1.05833 h -0.52916 -0.52917 v 1.05834 1.05833 h -0.52917 -0.52915 v 1.05833 1.05834 h -0.52917 -0.52917 v 4.23333 4.23333 h -0.52916 -0.52917 v 1.5875 1.5875 h -0.52917 -0.52916 v 0.52917 0.52917 h -0.52917 -0.52917 v 0.52916 0.52917 h -0.52916 -0.52917 v 0.52917 0.52916 h -1.05833 -1.05834 v 0.52917 0.52917 h -1.05833 -1.05833 v 0.52916 0.52917 h -2.11667 -2.11667 v 0.52917 0.52916 h -3.70416 -3.70417 v 0.52917 0.52917 h -12.700019 -12.7 z m -2.116667,-10.58333 v -1.5875 h 0.529167 0.529166 v -1.05834 -1.05833 h 0.529167 0.529167 v -0.52917 -0.52915 h 0.529166 0.529167 v -0.52918 -0.52916 h 0.529167 0.529167 v -0.52916 -0.52917 h -0.529167 -0.529167 v 0.52917 0.52916 h -1.5875 -1.5875 v 0.52916 0.52918 h -4.7625 -4.7625 v 0.52915 0.52917 h 1.058333 1.058333 v 0.52917 0.52916 h 0.529167 0.529167 v 0.52917 0.52917 h 1.058333 1.058334 v 0.52916 0.52917 h 0.529166 0.529167 v 0.52917 0.52916 h 0.529167 0.529166 v 0.52917 0.52917 h 1.058334 1.058333 z m -3.175,-2.64584 v -1.05833 h 0.529167 0.529166 v 1.05833 1.05834 h -0.529166 -0.529167 z m 11.641667,-5.82083 v -0.52916 h -0.529167 -0.529166 v 0.52916 0.52917 h 0.529166 0.529167 z M 62.92251,246.46631 v -0.52915 h -1.058333 -1.058334 v 0.52915 0.52917 h 1.058334 1.058333 z m 0,-3.175 v -0.52916 h -1.058333 -1.058334 v 0.52916 0.52917 h 1.058334 1.058333 z m 27.516668,-1.05833 v -0.52917 h -1.5875 -1.5875 v 0.52917 0.52917 h 1.5875 1.5875 z M 60.805843,228.47466 v -1.58751 h 1.5875 1.5875 v 0.52916 0.52917 h 0.529167 0.529167 v 0.52917 0.52916 H 64.51001 63.980843 v 0.52917 0.52917 h -1.5875 -1.5875 z"
       id="path666" /><path
       style="fill:#828cb1;stroke-width:0.264583"
       d="m 81.972511,267.63298 v -0.52917 h -1.058334 -1.058333 v -0.52916 -0.52916 h -1.058333 -1.058334 v -0.52918 -0.52916 h -1.058333 -1.058333 v -0.52916 -0.52917 h -0.529167 -0.529167 v -0.52916 -0.52917 H 74.03501 73.505844 v -0.52917 -0.52916 H 72.976677 72.44751 v -1.05834 -1.05833 h -0.529166 -0.529167 v -1.05833 -1.05834 H 70.86001 70.330844 v -0.52916 -0.52917 H 69.801677 69.27251 v -1.05833 -1.05834 h -0.529166 -0.529167 v -1.05833 -1.05833 H 67.68501 67.155844 v -0.52917 -0.52917 h -1.5875 -1.587501 v -0.52916 -0.52917 H 62.92251 61.864177 v -0.52917 -0.52916 H 60.805843 59.74751 v -0.52917 -0.52917 h 0.529167 0.529166 v -0.52916 -0.52917 H 59.74751 58.689177 v -1.05833 -1.05834 h 1.058333 1.058333 v -0.52916 -0.52917 H 59.74751 58.689177 v -0.52917 -0.52916 h 0.529166 0.529167 v -1.5875 -1.5875 h -0.529167 -0.529166 v -0.52917 -0.52917 H 58.16001 57.630843 v -0.52916 -0.52917 H 57.101677 56.57251 v -0.52917 -0.52916 h -0.529167 -0.529167 v -0.52917 -0.52917 H 54.98501 54.455843 v -1.5875 -1.5875 h 4.7625 4.7625 v 0.52917 0.52917 h 1.587501 1.5875 v 0.52916 0.52917 h 1.058333 1.058333 v -0.52917 -0.52916 h 4.7625 4.762501 v -0.52917 -0.52917 h 0.529166 0.529167 v -0.52916 -0.52917 h 1.058333 1.058334 v -0.52917 -0.52916 h 0.529166 0.529167 v -0.52917 -0.52917 h 0.529167 0.529167 v -0.52916 -0.52917 h 1.058333 1.058333 v -0.52917 -0.52916 h 1.058334 1.058333 v 1.05833 1.05833 h 0.529167 0.529166 v 3.70417 3.70417 h -0.529166 -0.529167 v 1.05833 1.05833 h 0.529167 0.529166 v 0.52917 0.52917 h 0.529167 0.529167 v 1.05833 1.05833 h 0.529166 0.529167 v 1.05834 1.05833 h -2.116667 -2.116666 v 0.52917 0.52916 h 1.5875 1.5875 v 0.52917 0.52917 h -0.529167 -0.529167 v 0.52916 0.52917 h -0.529166 -0.529167 v 0.52917 0.52916 h 1.5875 1.5875 v -0.52916 -0.52917 h 1.5875 1.5875 v -0.52917 -0.52916 h 1.587501 1.5875 v -0.52917 -0.52917 h 1.587504 1.587494 v -0.52916 -0.52917 h 3.17502 3.175 v 0.52917 0.52916 h 1.5875 1.5875 v 0.52917 0.52917 h 1.5875 1.5875 v 0.52916 0.52917 h 1.5875 1.5875 v 0.52917 0.52916 h 1.05833 1.05834 v -1.05833 -1.05833 h 0.52916 0.52917 v -0.52917 -0.52917 h 1.05833 1.05834 v -0.52916 -0.52917 h 0.52916 0.52917 v -0.52917 -0.52916 h 0.52917 0.52916 v -1.05834 -1.05833 h 0.52917 0.52917 v -1.05833 -1.05834 h 0.52916 0.52917 v -1.05833 -1.05833 h 0.52917 0.52915 v -1.05834 -1.05833 h 0.52917 0.52917 v -4.23333 -4.23334 h -3.70417 -3.70417 v 0.52917 0.52917 h -1.5875 -1.5875 v -1.5875 -1.5875 h 0.52917 0.52917 v -0.52917 -0.52917 h 1.05833 1.05833 v -0.52916 -0.52917 h 3.70417 3.70417 v 0.52917 0.52916 h 1.05833 1.05833 v 0.52917 0.52917 h 0.52917 0.52917 v 0.52916 0.52917 h 0.52916 0.52917 v 1.05833 1.05834 h 0.52917 0.52916 v 4.7625 4.7625 h -0.52916 -0.52917 v 2.11666 2.11667 h -0.52917 -0.52916 v 1.05833 1.05834 h -0.52917 -0.52917 v 1.05833 1.05833 h -0.52916 -0.52917 v 1.05834 1.05833 h -0.52917 -0.52915 v 1.05833 1.05834 h -0.52917 -0.52917 v 4.23333 4.23333 h -0.52916 -0.52917 v 1.5875 1.5875 h -0.52917 -0.52916 v 0.52917 0.52917 h -0.52917 -0.52917 v 0.52916 0.52917 h -0.52916 -0.52917 v 0.52917 0.52916 h -1.05833 -1.05834 v 0.52917 0.52917 h -1.05833 -1.05833 v 0.52916 0.52917 h -2.11667 -2.11667 v 0.52917 0.52916 h -3.70416 -3.70417 v 0.52917 0.52917 h -12.700019 -12.7 z m 13.758331,-6.35 v -0.52917 h 0.52917 0.52917 v -0.52915 -0.52918 h 0.52916 0.52917 v -6.34999 -6.35 h -1.5875 -1.587501 v 0.52917 0.52916 h -0.529166 -0.529167 v 1.05833 1.05834 h 0.529167 0.529166 v 5.82083 5.82083 h 0.529171 0.52916 z m 7.408348,-1.05833 v -0.52917 h 0.52917 0.52916 v -0.52917 -0.52916 h 0.52917 0.52916 v -6.87917 -6.87916 h -2.11666 -2.11668 v 0.52917 0.52917 h 0.52918 0.52916 v 7.40833 7.40832 h 0.52917 0.52917 z m -23.283346,-3.175 v -1.5875 h 0.529167 0.529166 v -1.05834 -1.05833 h 0.529167 0.529167 v -0.52917 -0.52916 h 0.529166 0.529167 v -0.52917 -0.52917 h 0.529167 0.529167 v -0.52916 -0.52916 h -0.529167 -0.529167 v 0.52916 0.52916 h -1.5875 -1.5875 v 0.52917 0.52917 h -4.7625 -4.7625 v 0.52916 0.52917 h 1.058333 1.058333 v 0.52917 0.52916 h 0.529167 0.529167 v 0.52917 0.52917 h 1.058333 1.058334 v 0.52916 0.52917 h 0.529166 0.529167 v 0.52917 0.52916 h 0.529167 0.529166 v 0.52917 0.52917 h 1.058334 1.058333 z m -3.175,-2.64584 v -1.05833 h 0.529167 0.529166 v 1.05833 1.05834 h -0.529166 -0.529167 z m 33.866686,3.175 v -1.05833 h 0.52917 0.52916 v -1.05833 -1.05834 h 0.52916 0.52917 v -3.70416 -3.70417 h -1.05834 -1.05833 v -0.52917 -0.52916 h -1.05833 -1.05834 v 6.35 6.35 h 1.05834 1.05833 z m -22.225019,-8.99583 v -0.52917 h -0.529167 -0.529166 v 0.52917 0.52917 h 0.529166 0.529167 z M 62.92251,246.46631 v -0.52916 h -1.058333 -1.058334 v 0.52916 0.52917 h 1.058334 1.058333 z m 0,-3.175 v -0.52916 h -1.058333 -1.058334 v 0.52916 0.52917 h 1.058334 1.058333 z m 27.516668,-1.05833 v -0.52917 h -1.5875 -1.5875 v 0.52917 0.52917 h 1.5875 1.5875 z M 60.805843,228.47466 v -1.58751 h 1.5875 1.5875 v 0.52916 0.52917 h 0.529167 0.529167 v 0.52917 0.52916 H 64.51001 63.980843 v 0.52917 0.52917 h -1.5875 -1.5875 z"
       id="path664"
       sodipodi:nodetypes="ccccccccccccccccccccccccccccccccccccccccccccccccccccccccccccccccccccccccccccccccccccccccccccccccccccccccccccccccccccccccccccccccccccccccccccccccccccccccccccccccccccccccccccccccccccccccccccccccccccccccccccccccccccccccccccccccccccccccccccccccccccccccccccccccccccccccccccccccccccccccccccccccccccccccccccccccccccccccccccccccccccccccccccccccccccccccccccccccccccccccccccccccccccccccccccccccccccccccccccccccccccccccccccccccccccccccccccccccccccccccccccccccccccccccccccccccccccccccccccccccccccccccccccccccccccccccccccccccccccccc" /><path
       style="fill:#618ec9;stroke-width:0.264583"
       d="m 60.805843,228.47466 v -1.58751 h 1.5875 1.5875 v 0.52916 0.52917 h 0.529167 0.529167 v 0.52917 0.52916 H 64.51001 63.980843 v 0.52917 0.52917 h -1.5875 -1.5875 z"
       id="path443" /><path
       style="fill:#618ec9;stroke-width:0.264583"
       d="m 74.564177,240.11632 v -1.58751 h 1.058334 1.058333 v 1.58751 1.5875 h -1.058333 -1.058334 z"
       id="path441" /><path
       style="fill:#618ec9;stroke-width:0.264583"
       d="m 67.155844,241.17465 v -1.5875 h 1.058333 1.058333 v 1.5875 1.5875 h -1.058333 -1.058333 z"
       id="path439" /><path
       style="fill:#618ec9;stroke-width:0.264583"
       d="m 90.439178,242.76215 v -1.05833 h 0.529166 0.529167 v 1.05833 1.05834 h -0.529167 -0.529166 z"
       id="path437" /><path
       style="fill:#618ec9;stroke-width:0.264583"
       d="m 58.689177,243.29131 v -0.52916 h 0.529166 0.529167 v -1.5875 -1.5875 h -0.529167 -0.529166 v -0.52917 -0.52917 H 58.16001 57.630843 v -0.52915 -0.52917 H 57.101677 56.57251 v -0.52917 -0.52916 h -0.529167 -0.529167 v -0.52917 -0.52917 H 54.98501 54.455843 v -1.5875 -1.5875 h 4.7625 4.7625 v 0.52917 0.52917 h 1.587501 1.5875 v 0.52916 0.52917 h 1.058333 1.058333 v -0.52917 -0.52916 h 4.7625 4.762501 v -0.52917 -0.52917 h 0.529166 0.529167 v -0.52916 -0.52917 h 1.058333 1.058334 v -0.52917 -0.52916 h 0.529166 0.529167 v -0.52917 -0.52917 h 0.529167 0.529167 v -0.52916 -0.52917 h 1.058333 1.058333 v -0.52917 -0.52916 h 1.058334 1.058333 v 1.05833 1.05833 h 0.529167 0.529166 v 3.70417 3.70417 h -0.529166 -0.529167 v 1.05833 1.05833 h 0.529167 0.529166 v 0.52917 0.52917 h 0.529167 0.529167 v 0.52916 0.52917 h -0.529167 -0.529167 v -0.52917 -0.52916 h -0.529166 -0.529167 v -0.52917 -0.52917 h -0.529167 -0.529166 v -1.05833 -1.05833 h -1.058334 -1.058333 v -0.52917 -0.52917 h -0.529167 -0.529166 v -0.52916 -0.52917 h -1.587501 -1.5875 v -0.52917 -0.52916 h -1.058333 -1.058333 v 0.52916 0.52917 h -4.762501 -4.7625 v 0.52917 0.52916 h -2.645833 -2.645834 v 0.52917 0.52917 H 63.451677 62.92251 v 0.52916 0.52917 h -0.529167 -0.529166 v 0.52917 0.52916 H 61.33501 60.805843 v 2.11667 2.11667 H 60.276677 59.74751 v 0.52916 0.52917 h -0.529167 -0.529166 z"
       id="path435" /><path
       style="fill:#618ec9;stroke-width:0.264583"
       d="m 58.689177,245.93715 v -1.05834 h 0.529166 0.529167 v 1.05834 1.05833 h -0.529167 -0.529166 z"
       id="path433" /><path
       style="fill:#618ec9;stroke-width:0.264583"
       d="m 77.739177,251.75798 v -0.52917 h 1.058334 1.058333 v 0.52917 0.52917 h -1.058333 -1.058334 z"
       id="path429" /><path
       style="fill:#618ec9;stroke-width:0.264583"
       d="m 76.680844,254.40381 v -1.05833 h 0.529167 0.529166 v 1.05833 1.05834 h -0.529166 -0.529167 z"
       id="path427" /><path
       style="fill:#618ec9;stroke-width:0.264583"
       d="m 122.18919,263.39965 v -0.52917 h 0.52917 0.52916 v -0.52917 -0.52916 h 0.52917 0.52916 v -0.52916 -0.52918 h 0.52917 0.52917 v -1.05833 -1.05833 h 0.52916 0.52917 v 1.05833 1.05833 h -0.52917 -0.52916 v 0.52918 0.52916 h -0.52917 -0.52917 v 0.52916 0.52917 h -0.52916 -0.52917 v 0.52917 0.52916 h -0.52916 -0.52917 z"
       id="path425" /><path
       style="fill:#618ec9;stroke-width:0.264583"
       d="m 120.07252,264.45798 v -0.52916 h 0.52917 0.52916 v 0.52916 0.52917 h -0.52916 -0.52917 z"
       id="path423" /><path
       style="fill:#618ec9;stroke-width:0.264583"
       d="m 116.89753,265.51631 v -0.52916 h 1.05832 1.05835 v 0.52916 0.52917 h -1.05835 -1.05832 z"
       id="path417" /><path
       style="fill:#618ec9;stroke-width:0.264583"
       d="m 77.739177,265.51631 v -0.52916 h 0.529167 0.529167 v 0.52916 0.52917 h -0.529167 -0.529167 z"
       id="path415" /><path
       style="fill:#618ec9;stroke-width:0.264583"
       d="m 112.6642,266.57465 v -0.52916 h 1.05833 1.05833 v 0.52916 0.52916 h -1.05833 -1.05833 z"
       id="path413" /><path
       style="fill:#618ec9;stroke-width:0.264583"
       d="m 96.789182,267.63298 v -0.52917 h 5.291668 5.29168 v 0.52917 0.52917 h -5.29168 -5.291668 z"
       id="path411" /><path
       style="fill:#618ec9;stroke-width:0.264583"
       d="m 81.972511,267.63298 v -0.52917 h -1.058334 -1.058333 v -0.52916 -0.52916 h 1.058333 1.058334 v 0.52916 0.52916 h 6.879167 6.879164 v 0.52917 0.52917 h -6.879164 -6.879167 z"
       id="path662" /><path
       style="fill:#6f7aa7;stroke-width:0.264583"
       d="m 81.972511,267.63298 v -0.52917 h -1.058334 -1.058333 v -0.52916 -0.52916 h 1.058333 1.058334 v 0.52916 0.52916 h 6.879167 6.879164 v 0.52917 0.52917 h -6.879164 -6.879167 z m 13.758331,0 v -0.52917 h 6.350008 5.29167 v 0.52917 0.52917 h -5.29167 -6.350008 z m 16.933358,-1.05833 v -0.52917 h 1.05833 1.05833 v 0.52917 0.52916 h -1.05833 -1.05833 z m -34.925023,-1.05834 v -0.52916 h 0.529167 0.529167 v 0.52916 0.52917 h -0.529167 -0.529167 z m 39.158353,0 v -0.52916 h 1.05832 1.05835 v 0.52916 0.52917 h -1.05835 -1.05832 z m -41.275019,-1.05833 v -0.52917 h -0.529167 -0.529167 v -0.52916 -0.52917 H 74.03501 73.505844 v -0.52917 -0.52916 H 72.976677 72.44751 v -0.52916 -0.52918 h 0.529167 0.529167 v -0.52915 -0.52917 H 72.44751 71.389177 v -1.05833 -1.05834 H 70.86001 70.330844 v -0.52916 -0.52917 H 69.801677 69.27251 v -1.05833 -1.05834 h -0.529166 -0.529167 v -1.05833 -1.05833 H 67.68501 67.155844 v -0.52917 -0.52917 h -1.5875 -1.587501 v -0.52916 -0.52917 H 62.92251 61.864177 v -0.52917 -0.52916 H 60.805843 59.74751 v -0.52917 -0.52917 h 1.058333 1.058334 v 0.52917 0.52917 h 1.058333 1.058333 v 0.52916 0.52917 h 1.587501 1.5875 v 0.52917 0.52916 h 1.058333 1.058333 v 0.52917 0.52917 h 0.529167 0.529167 v 0.52915 0.52918 h 1.058333 1.058333 v 0.52916 0.52916 h 0.529167 0.529167 v 0.52917 0.52917 h 1.058333 1.058334 v 0.52916 0.52917 h 0.529166 0.529167 v 0.52917 0.52916 h 0.529167 0.529166 v 0.52917 0.52917 h 1.058334 1.058333 v -1.5875 -1.5875 h 0.529167 0.529166 v -1.05834 -1.05833 h 0.529167 0.529167 v -0.52917 -0.52916 h 0.529166 0.529167 v -0.52917 -0.52917 h -0.529167 -0.529166 v -0.52916 -0.52917 h 0.529166 0.529167 v 0.52917 0.52916 h 0.529167 0.529167 v -0.52916 -0.52917 h 0.529166 0.529167 v -0.52917 -0.52916 h 0.529167 0.529166 v -0.52917 -0.52916 h 0.529167 0.529167 v -0.52916 -0.52917 h 0.529166 0.529167 v -0.52917 -0.52916 h 0.529167 0.529166 v 0.52916 0.52917 h -0.529166 -0.529167 v 0.52917 0.52916 h 1.5875 1.5875 v -0.52916 -0.52917 h 1.5875 1.5875 v -0.52917 -0.52916 h 1.587501 1.5875 v -0.52917 -0.52917 h 1.587504 1.587494 v -0.52916 -0.52917 h 3.17502 3.175 v 0.52917 0.52916 h 1.5875 1.5875 v 0.52917 0.52917 h 1.5875 1.5875 v 0.52916 0.52917 h 1.5875 1.5875 v 0.52917 0.52916 h 1.05833 1.05834 v -1.05834 -1.05833 h 0.52916 0.52917 v -0.52917 -0.52917 h 1.05833 1.05834 v -0.52915 -0.52917 h 0.52916 0.52917 v -0.52917 -0.52916 h 0.52917 0.52916 v -1.05834 -1.05833 h 0.52917 0.52917 v -1.05833 -1.05834 h 0.52916 0.52917 v -1.05833 -1.05833 h 0.52917 0.52916 v -1.05834 -1.05833 h 0.52917 0.52917 v -4.23333 -4.23334 h -3.70417 -3.70417 v 0.52917 0.52916 h -1.5875 -1.5875 v -1.5875 -1.5875 h 0.52917 0.52917 v -0.52917 -0.52917 h 1.05832 1.05833 v -0.52915 -0.52917 h 3.70418 3.70417 v 0.52917 0.52915 h 1.05833 1.05833 v 0.52917 0.52917 h 0.52917 0.52916 v 0.52916 0.52917 h 0.52916 0.52918 v 1.05833 1.05834 h 0.52916 0.52916 v 4.7625 4.7625 h -0.52916 -0.52916 v 2.11666 2.11667 h -0.52918 -0.52916 v 1.05833 1.05834 h -0.52916 -0.52917 v 1.05833 1.05833 h -0.52916 -0.52917 v 1.05834 1.05833 h -0.52917 -0.52916 v 1.05833 1.05834 h -0.52917 -0.52917 v 4.23333 4.23333 h -0.52916 -0.52917 v -4.23333 -4.23333 h 0.52917 0.52916 v -1.05834 -1.05833 h 0.52917 0.52917 v -1.05833 -1.05834 h 0.52916 0.52917 v -1.05833 -1.05833 h 0.52917 0.52916 v -1.05834 -1.05833 h 0.52917 0.52916 v -2.11667 -2.11666 h 0.52916 0.52918 v -4.7625 -4.7625 h -0.52918 -0.52916 v -1.05834 -1.05833 h -0.52916 -0.52917 v -0.52917 -0.52916 h -1.05833 -1.05833 v -0.52917 -0.52917 h -3.70417 -3.70418 v 0.52917 0.52917 h -1.05833 -1.05832 v 1.05833 1.05834 h 1.05832 1.05833 v -0.52916 -0.52917 h 3.70418 3.70417 v 0.52917 0.52916 h 0.52915 0.52917 v 4.23334 4.23333 h -0.52917 -0.52915 v 1.05833 1.05834 h -0.52917 -0.52917 v 1.05833 1.05833 h -0.52916 -0.52917 v 1.05834 1.05833 h -0.52917 -0.52916 v 1.05833 1.05834 h -0.52917 -0.52917 v 0.52916 0.52917 h -0.52916 -0.52917 v 0.52917 0.52915 h -0.52917 -0.52916 v 0.52917 0.52917 h -0.52917 -0.52917 v 0.52916 0.52917 h -0.52916 -0.52917 v 0.52917 0.52916 h -0.52917 -0.52916 v 0.52917 0.52917 h -1.05834 -1.05833 v -0.52917 -0.52917 h -1.5875 -1.5875 v -0.52916 -0.52917 h -1.5875 -1.5875 v -0.52917 -0.52916 h -1.5875 -1.5875 v -0.52917 -0.52917 h -3.175 -3.17502 v 0.52917 0.52917 h -1.587494 -1.587504 v 0.52916 0.52917 h -1.5875 -1.587501 v 0.52917 0.52916 h -1.5875 -1.5875 v 0.52917 0.52917 h -1.5875 -1.5875 v 0.52916 0.52917 h -1.058333 -1.058334 v 0.52917 0.52916 h -0.529166 -0.529167 v 2.64584 2.64583 h -0.529167 -0.529166 v 1.05833 1.05834 h -0.529167 -0.529167 v 0.52916 0.52917 h -0.529167 -0.529166 v 0.52917 0.52916 h -0.529167 -0.529167 v 0.52917 0.52917 h -1.058333 -1.058333 v 0.52916 0.52917 h -0.529167 -0.529167 v -1.05833 -1.05834 h -0.529166 -0.529167 v 0.52917 0.52917 h -0.529167 -0.529166 v -0.52917 -0.52917 h -1.058334 -1.058333 v 0.52917 0.52917 h 0.529166 0.529167 v 0.52916 0.52917 h 0.529167 0.529167 v 0.52917 0.52916 h 0.529166 0.529167 v 0.52917 0.52917 h -0.529167 -0.529166 z m 12.7,-15.875 v -0.52917 h -0.529167 -0.529166 v 0.52917 0.52917 h 0.529166 0.529167 z m 31.750009,15.875 v -0.52917 h 0.52917 0.52916 v 0.52917 0.52917 h -0.52916 -0.52917 z m 2.11667,-1.05833 v -0.52917 h 0.52917 0.52916 v -0.52917 -0.52916 h 0.52917 0.52916 v -0.52917 -0.52917 h 0.52917 0.52917 v -1.05833 -1.05833 h 0.52916 0.52917 v 1.05833 1.05833 h -0.52917 -0.52916 v 0.52917 0.52917 h -0.52917 -0.52917 v 0.52916 0.52917 h -0.52916 -0.52917 v 0.52917 0.52916 h -0.52916 -0.52917 z m -45.508346,-8.99584 v -1.05833 h 0.529167 0.529166 v 1.05833 1.05834 h -0.529166 -0.529167 z m 1.058333,-2.64583 v -0.52917 h 1.058334 1.058333 v 0.52917 0.52917 h -1.058333 -1.058334 z m -19.05,-5.82083 v -1.05834 h 0.529166 0.529167 v 1.05834 1.05833 h -0.529167 -0.529166 z m 0,-2.64584 v -0.52916 h 0.529166 0.529167 v -1.5875 -1.5875 h -0.529167 -0.529166 v -0.52917 -0.52917 H 58.16001 57.630843 v -0.52915 -0.52917 H 57.101677 56.57251 v -0.52917 -0.52916 h -0.529167 -0.529167 v -0.52917 -0.52917 H 54.98501 54.455843 v -1.5875 -1.5875 h 4.7625 4.7625 v 0.52917 0.52917 h 1.587501 1.5875 v 0.52916 0.52917 h 1.058333 1.058333 v -0.52917 -0.52916 h 4.7625 4.762501 v -0.52917 -0.52917 h 0.529166 0.529167 v -0.52916 -0.52917 h 1.058333 1.058334 v -0.52917 -0.52916 h 0.529166 0.529167 v -0.52917 -0.52917 h 0.529167 0.529167 v -0.52916 -0.52917 h 1.058333 1.058333 v -0.52917 -0.52916 h 1.058334 1.058333 v 1.05833 1.05833 h 0.529167 0.529166 v 3.70417 3.70417 h -0.529166 -0.529167 v 1.05833 1.05833 h 0.529167 0.529166 v 0.52917 0.52917 h 0.529167 0.529167 v 0.52916 0.52917 h -0.529167 -0.529167 v -0.52917 -0.52916 h -0.529166 -0.529167 v -0.52917 -0.52917 h -0.529167 -0.529166 v -1.05833 -1.05833 h -1.058334 -1.058333 v -0.52917 -0.52917 h -0.529167 -0.529166 v -0.52916 -0.52917 h -1.587501 -1.5875 v -0.52917 -0.52916 h -1.058333 -1.058333 v 0.52916 0.52917 h -4.762501 -4.7625 v 0.52917 0.52916 h -2.645833 -2.645834 v 0.52917 0.52917 H 63.451677 62.92251 v 0.52916 0.52917 h -0.529167 -0.529166 v 0.52917 0.52916 H 61.33501 60.805843 v 2.11667 2.11667 H 60.276677 59.74751 v 0.52916 0.52917 h -0.529167 -0.529166 z m 31.750001,-0.52916 v -1.05833 h 0.529166 0.529167 v 1.05833 1.05834 h -0.529167 -0.529166 z m -23.283334,-1.5875 v -1.5875 h 1.058333 1.058333 v 1.5875 1.5875 h -1.058333 -1.058333 z m 7.408333,-1.05833 v -1.58751 h 1.058334 1.058333 v 1.58751 1.5875 H 75.622511 74.564177 Z M 60.805843,229.53298 v -0.52917 h 0.529167 0.529167 v -0.52915 -0.52917 h 1.5875 1.5875 v 0.52917 0.52915 h -1.5875 -1.5875 v 0.52917 0.52917 H 61.33501 60.805843 Z"
       id="path660"
       sodipodi:nodetypes="ccccccccccccccccccccccccccccccccccccccccccccccccccccccccccccccccccccccccccccccccccccccccccccccccccccccccccccccccccccccccccccccccccccccccccccccccccccccccccccccccccccccccccccccccccccccccccccccccccccccccccccccccccccccccccccccccccccccccccccccccccccccccccccccccccccccccccccccccccccccccccccccccccccccccccccccccccccccccccccccccccccccccccccccccccccccccccccccccccccccccccccccccccccccccccccccccccccccccccccccccccccccccccccccccccccccccccccccccccccccccccccccccccccccccccccccccccccccccccccccccccccccccccccccccccccccccccccccccccccccccccccccccccccccccccccccccccccccccccccccccccccccccccccccccccccccccccccccccccccccccccccccccccccccccccccccccccccccccccccccccccccccccccccccccccccccccccccccccccccccccccccccccccccccccccccccccccccccccccccccccccccccccccccccccccccccccccccccccccccccccccccccccccccccccc" /><path
       style="fill:#6f2e53;stroke-width:0.264583"
       d="m 60.805843,229.53298 v -0.52917 h 0.529167 0.529167 v -0.52915 -0.52917 h 1.5875 1.5875 v 0.52917 0.52915 h -1.5875 -1.5875 v 0.52917 0.52917 H 61.33501 60.805843 Z"
       id="path407" /><path
       style="fill:#6f2e53;stroke-width:0.264583"
       d="m 87.264178,236.94131 v -0.52915 h -0.529167 -0.529167 v -0.52917 -0.52917 h -0.529166 -0.529167 v -0.52916 -0.52917 h 1.058333 1.058334 v -0.52917 -0.52916 h -0.529167 -0.529167 v -0.52917 -0.52917 h -2.116666 -2.116667 v 0.52917 0.52917 h -1.058334 -1.058333 v -0.52917 -0.52917 h 0.529167 0.529166 v -0.52916 -0.52917 h 1.058334 1.058333 v -0.52917 -0.52916 h 1.058334 1.058333 v -0.52917 -0.52917 h 0.529167 0.529166 v -0.52916 -0.52917 h 1.058334 1.058333 v 4.7625 4.7625 h -0.529167 -0.529166 z"
       id="path405" /><path
       style="fill:#6f2e53;stroke-width:0.264583"
       d="m 59.74751,239.05798 v -0.52917 h -0.529167 -0.529166 v -0.52915 -0.52917 H 58.16001 57.630843 v -0.52917 -0.52916 H 57.101677 56.57251 v -0.52917 -0.52917 h -0.529167 -0.529167 v -1.05833 -1.05833 h 4.233334 4.233333 v 0.52916 0.52917 h 1.058334 1.058333 v 0.52916 0.52916 h -1.058333 -1.058334 v 0.52917 0.52917 H 63.451677 62.92251 v -0.52917 -0.52917 h 0.529167 0.529166 v -0.52916 -0.52916 h -1.5875 -1.5875 v 1.05833 1.05834 H 60.276677 59.74751 v 1.05833 1.05833 h 0.529167 0.529166 v -0.52916 -0.52917 h 0.529167 0.529167 v 0.52917 0.52916 H 61.33501 60.805843 v 0.52917 0.52917 H 60.276677 59.74751 Z"
       id="path403" /><path
       style="fill:#6f2e53;stroke-width:0.264583"
       d="m 74.564177,240.11632 v -1.58751 h 1.058334 1.058333 v 1.58751 1.5875 h -1.058333 -1.058334 z"
       id="path401" /><path
       style="fill:#6f2e53;stroke-width:0.264583"
       d="m 67.155844,241.17465 v -1.5875 h 1.058333 1.058333 v 1.5875 1.5875 h -1.058333 -1.058333 z"
       id="path399" /><path
       style="fill:#6f2e53;stroke-width:0.264583"
       d="m 71.142947,245.02612 0.04788,0.52699 -0.526945,0.0484 -0.526951,0.0484 0.04788,0.52701 0.04788,0.52699 -0.526954,0.0484 -0.526946,0.0484 0.09566,1.054 0.09566,1.05401 0.526943,-0.0484 0.526954,-0.0484 -0.09566,-1.05399 -0.09566,-1.05401 0.526955,-0.0484 0.526944,-0.0484 -0.04788,-0.527 -0.04788,-0.52698 0.989569,-0.0891 -0.09058,-1.05445 1.182915,-0.11012 0.09058,1.05445 0.989406,-0.0891 0.04788,0.52701 0.04788,0.52699 0.526956,-0.0484 0.526953,-0.0484 0.143639,1.58097 0.143641,1.581 0.526945,-0.0484 0.526953,-0.0484 -0.239302,-2.63501 -0.04788,-0.52698 -0.526954,0.0484 -0.526945,0.0484 -0.04788,-0.527 -0.04788,-0.52699 -0.526956,0.0484 -0.526951,0.0484 -0.04788,-0.52699 -0.04788,-0.52698 -0.989409,0.0891 -0.09058,-1.05446 -1.182916,0.11012 0.09058,1.05444 -0.989568,0.0891 z"
       id="path397" /><path
       style="fill:#6f2e53;stroke-width:0.264583"
       d="m 76.680844,254.40381 v -1.05833 h 0.529167 0.529166 v 1.05833 1.05834 h -0.529166 -0.529167 z"
       id="path395" /><path
       style="fill:#6f2e53;stroke-width:0.264583"
       d="m 77.739177,261.81215 v -1.05834 h -0.529166 -0.529167 v 0.52917 0.52917 h -0.529167 -0.529166 v -0.52917 -0.52917 h -1.058334 -1.058333 v -0.52915 -0.52918 H 72.976677 72.44751 v -0.52916 -0.52916 h -0.529166 -0.529167 v -0.52917 -0.52917 H 70.86001 70.330844 v -1.05833 -1.05833 H 69.801677 69.27251 v -0.52918 -0.52916 h -0.529166 -0.529167 v -1.05833 -1.05833 h 1.058333 1.058334 v 0.52915 0.52917 h 1.058333 1.058333 v 0.52917 0.52916 h 0.529167 0.529167 v 0.52917 0.52917 h 1.058333 1.058334 v 0.52916 0.52917 h 0.529166 0.529167 v 0.52917 0.52916 h 0.529167 0.529166 v 0.52917 0.52917 h 1.058334 1.058333 v -1.5875 -1.5875 h 0.529167 0.529166 v -1.05834 -1.05833 h 0.529167 0.529167 v -0.52917 -0.52916 h 0.529166 0.529167 v -0.52917 -0.52917 h 0.529167 0.529167 v -0.52916 -0.52917 h 1.058333 1.058333 v 0.52917 0.52916 h -0.529166 -0.529167 v 2.64584 2.64583 h -0.529167 -0.529166 v 1.05833 1.05834 h -0.529167 -0.529167 v 0.52916 0.52917 h -0.529167 -0.529166 v 0.52917 0.52916 h -0.529167 -0.529167 v 0.52917 0.52917 h -1.058333 -1.058333 v 0.52916 0.52917 h -0.529167 -0.529167 z"
       id="path658" /><path
       style="fill:#32417c;stroke-width:0.264583"
       d="m 77.739177,261.81215 v -1.05834 h -0.529166 -0.529167 v 0.52917 0.52917 h -0.529167 -0.529166 v -0.52917 -0.52917 h -1.058334 -1.058333 v -0.52915 -0.52918 H 72.976677 72.44751 v -0.52916 -0.52916 h -0.529166 -0.529167 v -0.52917 -0.52917 H 70.86001 70.330844 v -1.05833 -1.05833 H 69.801677 69.27251 v -0.52918 -0.52916 h -0.529166 -0.529167 v -1.05833 -1.05833 h 1.058333 1.058334 v 0.52915 0.52917 h 1.058333 1.058333 v 0.52917 0.52916 h 0.529167 0.529167 v 0.52917 0.52917 h 1.058333 1.058334 v 0.52916 0.52917 h 0.529166 0.529167 v 0.52917 0.52916 h 0.529167 0.529166 v 0.52917 0.52917 h 1.058334 1.058333 v -1.5875 -1.5875 h 0.529167 0.529166 v -1.05834 -1.05833 h 0.529167 0.529167 v -0.52917 -0.52916 h 0.529166 0.529167 v -0.52917 -0.52917 h 0.529167 0.529167 v -0.52916 -0.52917 h 1.058333 1.058333 v 0.52917 0.52916 h -0.529166 -0.529167 v 2.64584 2.64583 h -0.529167 -0.529166 v 1.05833 1.05834 h -0.529167 -0.529167 v 0.52916 0.52917 h -0.529167 -0.529166 v 0.52917 0.52916 h -0.529167 -0.529167 v 0.52917 0.52917 h -1.058333 -1.058333 v 0.52916 0.52917 h -0.529167 -0.529167 z m -1.058333,-7.40834 v -1.05833 h 0.529167 0.529166 v 1.05833 1.05834 h -0.529166 -0.529167 z m -9.525,-13.22916 v -1.5875 h 1.058333 1.058333 v 1.5875 1.5875 h -1.058333 -1.058333 z m 7.408333,-1.05834 v -1.5875 h 1.058334 1.058333 v 1.5875 1.5875 H 75.622511 74.564177 Z M 60.805843,229.53298 v -0.52917 h 0.529167 0.529167 v -0.52915 -0.52917 h 1.5875 1.5875 v 0.52917 0.52915 h -1.5875 -1.5875 v 0.52917 0.52917 H 61.33501 60.805843 Z"
       id="path656" /><rect
       style="fill:#618ec9;fill-opacity:1;fill-rule:evenodd;stroke:none;stroke-width:0.1;stroke-linecap:round;stroke-linejoin:round;paint-order:stroke fill markers"
       id="rect570"
       width="1.4537002"
       height="3.5292141"
       x="67.487328"
       y="241.73079" /><rect
       style="fill:#618ec9;fill-opacity:1;fill-rule:evenodd;stroke:none;stroke-width:0.1;stroke-linecap:round;stroke-linejoin:round;paint-order:stroke fill markers"
       id="rect570-7"
       width="1.4537002"
       height="3.5292141"
       x="74.89566"
       y="240.36552" /><path
       style="fill:#0e3b8f;stroke-width:0.264583"
       d="m 77.739177,261.28298 v -0.52917 h 0.529167 0.529167 v -0.52915 -0.52918 h -0.529167 -0.529167 v -0.52916 -0.52916 h 1.058334 1.058333 v -1.58751 -1.58749 h 0.529167 0.529166 v -1.05834 -1.05833 h 0.529167 0.529167 v -0.52918 -0.52915 h 0.529166 0.529167 v -0.52917 -0.52917 h 0.529167 0.529167 v -0.52916 -0.52917 h 0.529166 0.529167 v 1.5875 1.5875 h -0.529167 -0.529166 v -0.52917 -0.52916 h -0.529167 -0.529167 v 1.05833 1.05833 h 0.529167 0.529167 v 1.5875 1.5875 h -0.529167 -0.529167 v -0.52916 -0.52917 h -0.529167 -0.529166 v -0.52917 -0.52916 h -0.529167 -0.529167 v 1.5875 1.5875 h 0.529167 0.529167 v 1.05833 1.05833 h -0.529167 -0.529167 v -1.05833 -1.05833 h -0.529166 -0.529167 v 1.05833 1.05833 h -0.529167 -0.529166 v 0.52917 0.52917 h -0.529167 -0.529167 z m -2.116666,-1.05833 v -0.52917 h -1.058334 -1.058333 v -0.52917 -0.52916 H 72.976677 72.44751 v -0.52916 -0.52918 h 0.529167 0.529167 v -0.52916 -0.52916 H 72.976677 72.44751 v -1.05833 -1.05834 h 0.529167 0.529167 v 0.52916 0.52918 h 0.529166 0.529167 v 0.52916 0.52916 h 1.058334 1.058333 v 1.05833 1.05834 h -0.529167 -0.529166 v 0.52916 0.52917 h 0.529166 0.529167 v 0.52917 0.52916 h -0.529167 -0.529166 z m 0,-2.11667 v -0.52917 h -1.058334 -1.058333 v 0.52917 0.52917 h 1.058333 1.058334 z m -5.291667,-2.11667 v -0.52916 H 69.801677 69.27251 v -1.05834 -1.05833 h -0.529166 -0.529167 v -0.52917 -0.52915 h 1.058333 1.058334 v 0.52915 0.52917 h 0.529166 0.529167 v 1.5875 1.5875 H 70.86001 70.330844 Z m 6.35,-1.5875 v -1.05833 h 0.529167 0.529166 v 1.05833 1.05834 h -0.529166 -0.529167 z m -9.525,-13.22916 v -1.5875 h 1.058333 1.058333 v 1.5875 1.5875 h -1.058333 -1.058333 z m 7.408333,-1.05834 v -1.5875 h 1.058334 1.058333 v 1.5875 1.5875 H 75.622511 74.564177 Z M 60.805843,229.53298 v -0.52917 h 0.529167 0.529167 v -0.52915 -0.52917 h 1.5875 1.5875 v 0.52917 0.52915 h -1.5875 -1.5875 v 0.52917 0.52917 H 61.33501 60.805843 Z"
       id="path654" /><path
       style="fill:#273466;stroke-width:0.264583"
       d="m 77.739177,261.28298 v -0.52917 h 0.529167 0.529167 v -0.52915 -0.52918 h -0.529167 -0.529167 v -0.52916 -0.52916 h 1.058334 1.058333 v -1.58751 -1.58749 h 0.529167 0.529166 v -1.05834 -1.05833 h 0.529167 0.529167 v -0.52918 -0.52915 h 0.529166 0.529167 v -0.52917 -0.52917 h 0.529167 0.529167 v -0.52916 -0.52917 h 0.529166 0.529167 v 1.5875 1.5875 h -0.529167 -0.529166 v -0.52917 -0.52916 h -0.529167 -0.529167 v 1.05833 1.05833 h 0.529167 0.529167 v 1.5875 1.5875 h -0.529167 -0.529167 v -0.52916 -0.52917 h -0.529167 -0.529166 v -0.52917 -0.52916 h -0.529167 -0.529167 v 1.5875 1.5875 h 0.529167 0.529167 v 1.05833 1.05833 h -0.529167 -0.529167 v -1.05833 -1.05833 h -0.529166 -0.529167 v 1.05833 1.05833 h -0.529167 -0.529166 v 0.52917 0.52917 h -0.529167 -0.529167 z m -2.116666,-1.05833 v -0.52917 h -1.058334 -1.058333 v -0.52917 -0.52916 H 72.976677 72.44751 v -0.52916 -0.52918 h 0.529167 0.529167 v -0.52916 -0.52916 H 72.976677 72.44751 v -1.05833 -1.05834 h 0.529167 0.529167 v 0.52916 0.52918 h 0.529166 0.529167 v 0.52916 0.52916 h 1.058334 1.058333 v 1.05833 1.05834 h -0.529167 -0.529166 v 0.52916 0.52917 h 0.529166 0.529167 v 0.52917 0.52916 h -0.529167 -0.529166 z m 0,-2.11667 v -0.52917 h -1.058334 -1.058333 v 0.52917 0.52917 h 1.058333 1.058334 z m -5.291667,-2.11667 v -0.52916 H 69.801677 69.27251 v -1.05834 -1.05833 h -0.529166 -0.529167 v -0.52917 -0.52915 h 1.058333 1.058334 v 0.52915 0.52917 h 0.529166 0.529167 v 1.5875 1.5875 H 70.86001 70.330844 Z"
       id="path652" /></g></svg>
