<?xml version="1.0" encoding="UTF-8" standalone="no"?>
<!-- Created with Inkscape (http://www.inkscape.org/) -->

<svg
   width="79.474609mm"
   height="46.666019mm"
   viewBox="0 0 79.474609 46.666019"
   version="1.1"
   id="svg5"
   xml:space="preserve"
   sodipodi:docname="yuumbread.svg"
   xmlns:inkscape="http://www.inkscape.org/namespaces/inkscape"
   xmlns:sodipodi="http://sodipodi.sourceforge.net/DTD/sodipodi-0.dtd"
   xmlns="http://www.w3.org/2000/svg"
   xmlns:svg="http://www.w3.org/2000/svg"><sodipodi:namedview
     id="namedview7"
     pagecolor="#ffffff"
     bordercolor="#666666"
     borderopacity="1.0"
     inkscape:showpageshadow="2"
     inkscape:pageopacity="0.0"
     inkscape:pagecheckerboard="0"
     inkscape:deskcolor="#d1d1d1"
     inkscape:document-units="mm"
     showgrid="false" /><defs
     id="defs2" /><g
     inkscape:label="Layer 1"
     inkscape:groupmode="layer"
     id="layer1"
     transform="translate(-11.655175,-85.797135)"><g
       id="g3510"
       transform="translate(8.5301754,46.566666)"
       inkscape:export-filename="yuumbreadsvg1.1.svg"
       inkscape:export-xdpi="191"
       inkscape:export-ydpi="191"><path
         style="fill:#e6bd63;stroke-width:0.264583"
         d="m 26.458334,75.792517 v -0.529166 h -0.529166 -0.529167 v -0.529167 -0.529167 h -0.529167 -0.529166 v -0.529166 -0.529167 h -1.058334 -1.058333 v -0.529166 -0.529167 h -0.529167 -0.529167 v -0.529167 -0.529166 h -1.058333 -1.058333 v -0.529167 -0.529167 h 4.7625 4.7625 v -0.529166 -0.529167 h 1.5875 1.5875 v -0.529167 -0.529166 h 0.529167 0.529167 v 0.529166 0.529167 h -0.529167 -0.529167 v 0.529167 0.529166 h -0.529167 -0.529166 v 0.529167 0.529167 h -0.529167 -0.529167 v 1.058333 1.058333 h -0.529166 -0.529167 v 1.5875 1.5875 h -1.058333 -1.058334 z m 0,-3.704166 v -1.058333 h -0.529166 -0.529167 v 1.058333 1.058333 h 0.529167 0.529166 z M 1.0583334,66.267518 V 65.738351 H 0.52916669 0 v -0.529167 -0.529166 h 1.0583334 1.0583333 v 0.529166 0.529167 h 1.0583334 1.0583334 v -0.529167 -0.529166 h 2.6458334 2.6458334 v -0.529167 -0.529167 h 1.0583337 1.058333 v 0.529167 0.529167 H 10.583334 9.5250003 v 0.529166 0.529167 H 6.8791669 4.2333335 v 0.529167 0.529166 h -1.5875001 -1.5875 z M 2.1166667,62.034184 V 61.505018 H 1.5875001 1.0583334 v -1.058334 -1.058333 h 1.0583333 1.0583334 v 0.529167 0.529166 H 2.6458334 2.1166667 v 0.529167 0.529167 h 3.7041668 3.7041668 v -0.529167 -0.529167 h 1.0583337 1.058333 v 0.529167 0.529167 H 10.583334 9.5250003 v 0.529166 0.529167 H 5.8208335 2.1166667 Z m 33.8666683,0 v -0.529166 h 3.704166 3.704167 v 0.529166 0.529167 h -3.704167 -3.704166 z m 8.466667,-1.058333 v -0.529167 h 0.529166 0.529167 v -0.529166 -0.529167 h 0.529167 0.529166 v 1.058333 1.058334 h -1.058333 -1.058333 z m -8.466667,-1.058333 v -0.529167 h 1.5875 1.5875 v -0.529167 -0.529166 h 1.5875 1.5875 v -1.058334 -1.058333 h 0.529167 0.529166 v -0.529167 -0.529166 h 0.529167 0.529167 v 0.529166 0.529167 h 0.529166 0.529167 v 0.529167 0.529166 h -0.529167 -0.529166 v 0.529167 0.529167 h -1.058334 -1.058333 v 0.529166 0.529167 h -1.5875 -1.5875 v 0.529167 0.529166 h -1.5875 -1.5875 z M 19.050001,49.863351 v -1.058333 h -0.529167 -0.529167 v -0.529167 -0.529166 h -0.529166 -0.529167 v -0.529167 -0.529167 h -1.5875 -1.5875 v -0.529166 -0.529167 h 1.5875 1.5875 v 0.529167 0.529166 h 0.529167 0.529166 v 0.529167 0.529167 h 0.529167 0.529167 v 0.529166 0.529167 h 0.529166 0.529167 v 1.058333 1.058333 h -0.529167 -0.529166 z"
         id="path3522" /><path
         style="fill:#838db2;stroke-width:0.264583"
         d="m 43.391668,85.317517 v -0.529166 h -6.35 -6.35 v -0.529167 -0.529167 h -1.5875 -1.5875 v -0.529166 -0.529167 h -1.058334 -1.058333 v -0.529167 -0.529166 h -0.529167 -0.529166 v -0.529167 -0.529167 h -0.529167 -0.529167 v -0.529166 -0.529167 h -0.529167 -0.529166 v -0.529167 -0.529166 h -0.529167 -0.529167 v -0.529167 -0.529167 h 0.529167 0.529167 v 0.529167 0.529167 h 1.058333 1.058334 v 0.529166 0.529167 h 0.529166 0.529167 v -0.529167 -0.529166 h 0.529167 0.529166 v 1.058333 1.058333 h 0.529167 0.529167 v -0.529166 -0.529167 h 1.058333 1.058333 v -0.529167 -0.529166 h 0.529167 0.529167 v -0.529167 -0.529167 h 0.529166 0.529167 v -0.529166 -0.529167 h 0.529167 0.529167 v -1.058333 -1.058334 h 0.529166 0.529167 v -2.645833 -2.645833 h 0.529167 0.529166 v -0.529167 -0.529166 h 1.058334 1.058333 v -0.529167 -0.529167 h 1.5875 1.5875 v -0.529166 -0.529167 h 1.5875 1.5875 v -0.529167 -0.529166 h 1.5875 1.5875 v -0.529167 -0.529167 h 1.5875 1.5875 v -0.529166 -0.529167 h 3.175001 3.175 v 0.529167 0.529166 h 1.5875 1.5875 v 0.529167 0.529167 h 1.5875 1.5875 v 0.529166 0.529167 h 1.5875 1.5875 v 0.529167 0.529166 h 1.058333 1.058334 v -0.529166 -0.529167 h 0.529166 0.529167 v -0.529167 -0.529166 h 0.529167 0.529167 v -0.529167 -0.529167 h 0.529166 0.529167 v -0.529166 -0.529167 h 0.529167 0.529166 v -0.529167 -0.529166 h 0.529167 0.529167 v -0.529167 -0.529167 h 0.529166 0.529167 v -1.058333 -1.058333 h 0.529167 0.529166 v -1.058334 -1.058333 h 0.529167 0.529167 v -1.058333 -1.058334 h 0.529166 0.529167 v -1.058333 -1.058333 h 0.529167 0.529167 v -4.233333 -4.233334 h -0.529167 -0.529167 v -0.529166 -0.529167 h -3.704167 -3.704166 v 0.529167 0.529166 h -1.058334 -1.058333 v -1.058333 -1.058333 h 1.058333 1.058334 v -0.529167 -0.529167 h 3.704166 3.704167 v 0.529167 0.529167 h 1.058334 1.058333 v 0.529166 0.529167 h 0.529167 0.529166 v 1.058333 1.058334 h 0.529167 0.529167 v 4.7625 4.762499 h -0.529167 -0.529167 v 2.116667 2.116667 H 79.90417 79.375003 v 1.5875 1.5875 H 78.845836 78.31667 v 0.529166 0.529167 h -0.529167 -0.529167 v 1.058333 1.058334 h -0.529167 -0.529166 v 1.058333 1.058333 h -0.529167 -0.529167 v 4.7625 4.7625 h -0.529166 -0.529167 v 1.058333 1.058334 h -0.529167 -0.529166 v 0.529166 0.529167 h -0.529167 -0.529167 v 0.529167 0.529166 h -0.529166 -0.529167 v 0.529167 0.529167 h -1.058333 -1.058334 v 0.529166 0.529167 h -1.5875 -1.5875 v 0.529167 0.529166 h -2.116667 -2.116666 v 0.529167 0.529167 h -7.408334 -7.408334 v 0.529166 0.529167 h -1.5875 -1.5875 z M 17.991667,69.442518 V 68.913351 H 16.933334 15.875001 V 68.384184 67.855018 H 14.287501 12.7 V 67.325851 66.796684 H 11.641667 10.583334 V 66.267518 65.738351 H 10.054167 9.5250003 V 65.209184 64.680018 H 8.9958337 8.466667 V 63.621684 62.563351 H 8.9958337 9.5250003 V 62.034184 61.505018 H 8.9958337 8.466667 v -0.529167 -0.529167 h 0.5291667 0.5291666 v -2.116666 -2.116667 h 0.5291667 0.529167 V 55.684184 55.155018 H 11.1125 11.641667 V 54.625851 54.096684 H 12.170834 12.7 v -0.529166 -0.529167 h 2.645834 2.645833 v -0.529167 -0.529166 h 4.7625 4.762501 v -0.529167 -0.529167 h 1.058333 1.058333 v 0.529167 0.529167 h 1.5875 1.587501 v 0.529166 0.529167 h 1.058333 1.058333 v 0.529167 0.529166 h 0.529167 0.529167 v 1.058334 1.058333 h 0.529166 0.529167 v 0.529167 0.529166 h 0.529167 0.529166 v 0.529167 0.529167 h 0.529167 0.529167 v 0.529166 0.529167 h -1.5875 -1.5875 v 0.529167 0.529166 h 1.5875 1.5875 v 0.529167 0.529167 h -1.5875 -1.5875 v 0.529166 0.529167 h 1.5875 1.5875 v 0.529167 0.529166 h -1.058334 -1.058333 v 0.529167 0.529167 h -0.529167 -0.529166 v 0.529166 0.529167 h -0.529167 -0.529167 v 0.529167 0.529166 h -0.529166 -0.529167 v 0.529167 0.529167 h -1.5875 -1.5875 v 0.529166 0.529167 h -2.116667 -2.116667 v 0.529167 0.529166 h -4.233333 -4.233334 z m 2.116667,-4.233334 v -0.529166 h 0.529167 0.529166 v -0.529167 -0.529167 h 0.529167 0.529167 v -0.529166 -0.529167 h 0.529166 0.529167 v 0.529167 0.529166 h 0.529167 0.529167 v 0.529167 0.529167 h 1.5875 1.5875 v -0.529167 -0.529167 h 0.529166 0.529167 v -0.529166 -0.529167 h 0.529167 0.529166 v -1.5875 -1.5875 h -0.529166 -0.529167 v 1.5875 1.5875 h -0.529167 -0.529166 v 0.529167 0.529166 h -1.5875 -1.5875 v -0.529166 -0.529167 h -0.529167 -0.529167 v -0.529167 -0.529166 h -0.529167 -0.529166 v -0.529167 -0.529167 h -0.529167 -0.529167 v 1.5875 1.5875 h -0.529166 -0.529167 v 0.529167 0.529167 h -1.5875 -1.5875 v -0.529167 -0.529167 h -0.529167 -0.529166 v -1.058333 -1.058333 h -0.529167 -0.529167 v 1.058333 1.058333 h 0.529167 0.529167 v 0.529167 0.529167 h 0.529166 0.529167 v 0.529166 0.529167 h 1.5875 1.5875 z M 11.641667,64.150851 V 63.621684 H 10.583334 9.5250003 v 0.529167 0.529167 h 1.0583337 1.058333 z m 0,-3.175 V 60.446684 H 10.583334 9.5250003 v 0.529167 0.529167 h 1.0583337 1.058333 z m 6.35,-2.116667 v -1.5875 h -1.058333 -1.058333 v 1.5875 1.5875 h 1.058333 1.058333 z m 7.408334,-1.058333 v -1.5875 h -1.058333 -1.058334 v 1.5875 1.5875 h 1.058334 1.058333 z m -22.2250009,-6.35 v -0.529167 h 0.5291667 0.5291667 v 0.529167 0.529167 H 3.7041668 3.1750001 Z"
         id="path3520" /><path
         style="fill:#618ec9;stroke-width:0.264583"
         d="M 10.583334,47.217518 V 46.688351 H 10.054167 9.5250003 V 45.630018 44.571685 H 11.1125 12.7 v 0.529166 0.529167 h -1.058333 -1.058333 v 0.529167 0.529166 H 11.641667 12.7 v 0.529167 0.529167 h -1.058333 -1.058333 z"
         id="path3518" /><g
         id="path3516"><path
           style="color:#000000;fill:#6875a5;stroke-width:0.1;-inkscape-stroke:none"
           d="m 30.691668,85.317517 v -0.529166 h -1.058334 -1.058333 v -0.529167 -0.529167 h 1.058333 1.058334 v 0.529167 0.529167 h 6.35 6.35 v 0.529166 0.529167 h -6.35 -6.35 z m 15.875,0 v -0.529166 h 4.762501 4.7625 v 0.529166 0.529167 h -4.7625 -4.762501 z m 14.816668,-1.058333 v -0.529167 h 1.058333 1.058333 v 0.529167 0.529167 H 62.441669 61.383336 Z M 26.458334,83.200851 v -0.529167 h 0.529167 0.529167 v 0.529167 0.529166 h -0.529167 -0.529167 z m 39.158335,0 v -0.529167 h 1.058333 1.058334 v 0.529167 0.529166 H 66.675002 65.616669 Z M 24.341668,82.142517 v -0.529166 h -0.529167 -0.529167 v -0.529167 -0.529167 h -0.529167 -0.529166 v -0.529166 -0.529167 h -0.529167 -0.529167 v -0.529167 -0.529166 h 0.529167 0.529167 v 0.529166 0.529167 h 0.529166 0.529167 v 0.529167 0.529166 h 0.529167 0.529167 v 0.529167 0.529167 h 0.529166 0.529167 v 0.529166 0.529167 h -0.529167 -0.529166 z m 44.450001,0 v -0.529166 h 0.529167 0.529167 v 0.529166 0.529167 h -0.529167 -0.529167 z m 2.116667,-1.058333 v -0.529167 h 0.529167 0.529166 v -0.529166 -0.529167 h 0.529167 0.529167 v -0.529167 -0.529166 h 0.529166 0.529167 v -1.058334 -1.058333 h 0.529167 0.529166 v 1.058333 1.058334 h -0.529166 -0.529167 v 0.529166 0.529167 h -0.529167 -0.529166 v 0.529167 0.529166 h -0.529167 -0.529167 v 0.529167 0.529167 H 71.437503 70.908336 Z M 20.108334,76.850851 v -0.529167 h 0.529167 0.529166 v 0.529167 0.529166 h -0.529166 -0.529167 z m 55.033335,-5.820833 v -4.233334 h 0.529167 0.529167 v -1.058333 -1.058333 h 0.529166 0.529167 v -1.058334 -1.058333 h 0.529167 0.529167 v -0.529167 -0.529166 h 0.529166 0.529167 v 0.529166 0.529167 H 78.845836 78.31667 v 1.058333 1.058334 h -0.529167 -0.529167 v 1.058333 1.058333 h -0.529167 -0.529166 v 4.233334 4.233333 h -0.529167 -0.529167 z m -57.150002,2.645833 v -0.529167 h 0.529167 0.529167 v 0.529167 0.529166 H 18.520834 17.991667 Z M 15.875001,69.442518 V 68.913351 H 14.287501 12.7 V 68.384184 67.855018 H 11.641667 10.583334 V 67.325851 66.796684 H 9.5250003 8.466667 v -0.529166 -0.529167 h 1.0583333 1.0583337 v 0.529167 0.529166 H 11.641667 12.7 v 0.529167 0.529167 h 1.587501 1.5875 v 0.529166 0.529167 h 1.058333 1.058333 v 0.529167 0.529166 h -1.058333 -1.058333 z m 10.583333,0 v -0.529167 h 1.058334 1.058333 v 0.529167 0.529166 h -1.058333 -1.058334 z m 4.233334,-1.058334 v -0.529166 h 0.529166 0.529167 v 0.529166 0.529167 h -0.529167 -0.529166 z m 3.175,-1.058333 v -0.529167 h 0.529167 0.529166 v -0.529166 -0.529167 h 0.529167 0.529167 v -0.529167 -0.529166 h 0.529166 0.529167 v -0.529167 -0.529167 h 0.529167 0.529166 v 0.529167 0.529167 h -0.529166 -0.529167 v 0.529166 0.529167 h 1.5875 1.5875 v -0.529167 -0.529166 h 1.5875 1.5875 v -0.529167 -0.529167 h 1.5875 1.5875 v -0.529166 -0.529167 h 1.5875 1.5875 v -0.529167 -0.529166 h 3.175001 3.175 v 0.529166 0.529167 h 1.5875 1.5875 v 0.529167 0.529166 h 1.5875 1.5875 v 0.529167 0.529167 h 1.5875 1.5875 v 0.529166 0.529167 h 1.058333 1.058334 v -1.058333 -1.058334 h 0.529166 0.529167 v -0.529166 -0.529167 h 1.058334 1.058333 v -0.529167 -0.529166 h 0.529167 0.529166 v -0.529167 -0.529167 h 0.529167 0.529167 v -1.058333 -1.058333 h 0.529166 0.529167 v -1.058334 -1.058333 h 0.529167 0.529166 v -1.058333 -1.058334 h 0.529167 0.529167 v -1.058333 -1.058333 h 0.529166 0.529167 v -4.233333 -4.233334 h -3.704167 -3.704166 v 0.529167 0.529167 h -1.587501 -1.5875 v -1.5875 -1.5875 h 0.529167 0.529167 v -0.529167 -0.529167 h 1.058333 1.058334 v -0.529166 -0.529167 h 3.704166 3.704167 v 0.529167 0.529166 h 1.058334 1.058333 v 0.529167 0.529167 h 0.529167 0.529166 v 0.529166 0.529167 h 0.529167 0.529167 v 1.058333 1.058334 h 0.529166 0.529167 v 4.7625 4.762499 H 82.020836 81.49167 v 2.116667 2.116667 h -0.529167 -0.529167 v 1.058333 1.058333 H 79.90417 79.375003 v -1.058333 -1.058333 h 0.529167 0.529166 v -2.116667 -2.116667 h 0.529167 0.529167 v -4.762499 -4.7625 H 80.962503 80.433336 V 43.513351 42.455018 H 79.90417 79.375003 V 41.925851 41.396685 H 78.31667 77.258336 v -0.529167 -0.529167 h -3.704167 -3.704166 v 0.529167 0.529167 h -1.058334 -1.058333 v 1.058333 1.058333 h 1.058333 1.058334 v -0.529166 -0.529167 h 3.704166 3.704167 v 0.529167 0.529166 h 0.529167 0.529167 v 4.233334 4.233333 h -0.529167 -0.529167 v 1.058333 1.058333 h -0.529167 -0.529166 v 1.058334 1.058333 h -0.529167 -0.529167 v 1.058333 1.058334 h -0.529166 -0.529167 v 1.058333 1.058333 h -0.529167 -0.529166 v 0.529167 0.529167 h -0.529167 -0.529167 v 0.529166 0.529167 h -0.529166 -0.529167 v 0.529167 0.529166 h -0.529167 -0.529166 v 0.529167 0.529167 h -0.529167 -0.529167 v 0.529166 0.529167 h -0.529167 -0.529166 v 0.529167 0.529166 h -1.058334 -1.058333 v -0.529166 -0.529167 h -1.5875 -1.5875 v -0.529167 -0.529166 h -1.5875 -1.5875 v -0.529167 -0.529167 h -1.5875 -1.5875 v -0.529166 -0.529167 h -3.175 -3.175001 v 0.529167 0.529166 h -1.5875 -1.5875 v 0.529167 0.529167 h -1.5875 -1.5875 v 0.529166 0.529167 h -1.5875 -1.5875 v 0.529167 0.529166 h -1.5875 -1.5875 v 0.529167 0.529167 h -1.5875 -1.5875 z m 3.175,-1.058333 v -0.529167 h -0.529167 -0.529166 v 0.529167 0.529166 h 0.529166 0.529167 z M 7.4083336,63.621684 V 62.563351 H 7.9375003 8.466667 v 1.058333 1.058334 H 7.9375003 7.4083336 Z m 0,-2.645833 V 60.446684 H 7.9375003 8.466667 v -1.5875 -1.5875 H 7.9375003 7.4083336 V 56.742518 56.213351 H 6.8791669 6.3500002 V 55.684184 55.155018 H 5.8208335 5.2916669 V 54.625851 54.096684 H 4.7625002 4.2333335 V 53.567518 53.038351 H 3.7041668 3.1750001 v -0.529167 -0.529166 h 0.5291667 0.5291667 v 0.529166 0.529167 h 0.5291667 0.5291667 v 0.529167 0.529166 h 0.5291666 0.5291667 v 0.529167 0.529167 h 0.5291667 0.5291667 v 0.529166 0.529167 H 7.9375003 8.466667 V 55.155018 54.096684 H 8.9958337 9.5250003 V 53.038351 51.980018 H 11.1125 12.7 V 51.450851 50.921684 H 7.9375003 3.1750001 V 50.392518 49.863351 H 7.9375003 12.7 v 0.529167 0.529166 h 1.587501 1.5875 v 0.529167 0.529167 h 1.058333 1.058333 v -0.529167 -0.529167 h 4.7625 4.762501 v -0.529166 -0.529167 h 0.529166 0.529167 v -0.529166 -0.529167 h 0.529167 0.529166 v 0.529167 0.529166 h -0.529166 -0.529167 v 0.529167 0.529166 h -0.529167 -0.529166 v 0.529167 0.529167 h -4.762501 -4.7625 v 0.529166 0.529167 h -1.5875 -1.5875 V 52.509184 51.980018 H 13.758334 12.7 v 0.529166 0.529167 h -0.529166 -0.529167 v 1.058333 1.058334 H 10.583334 9.5250003 v 0.529166 0.529167 H 8.9958337 8.466667 v 0.529167 0.529166 h 0.5291667 0.5291666 v 1.5875 1.5875 H 8.9958337 8.466667 v 0.529167 0.529167 H 7.9375003 7.4083336 Z M 39.158335,60.446684 v -1.058333 h 0.529166 0.529167 v 1.058333 1.058334 h -0.529167 -0.529166 z m -1.058334,-2.645833 v -0.529167 h -0.529166 -0.529167 v -0.529166 -0.529167 h -0.529167 -0.529166 v -0.529167 -0.529166 h 0.529166 0.529167 v 0.529166 0.529167 h 0.529167 0.529166 v 0.529167 0.529166 h 0.529167 0.529167 v 0.529167 0.529167 h -0.529167 -0.529167 z m -1.058333,-7.408333 v -3.704167 h 0.529167 0.529166 v 3.704167 3.704166 h -0.529166 -0.529167 z m -4.233333,2.116666 v -0.529166 h -1.587501 -1.5875 v -0.529167 -0.529167 h 0.529167 0.529167 v -0.529166 -0.529167 h 2.116667 2.116666 v 0.529167 0.529166 h 0.529167 0.529167 v 0.529167 0.529167 h -1.058334 -1.058333 v 0.529166 0.529167 h -0.529167 -0.529166 z m -2.116667,-4.233333 v -0.529166 h 0.529166 0.529167 v -0.529167 -0.529167 h 0.529167 0.529167 v -0.529166 -0.529167 h 1.058333 1.058333 v -0.529167 -0.529166 h 1.058334 1.058333 v 0.529166 0.529167 h -1.058333 -1.058334 v 0.529167 0.529166 h -0.529166 -0.529167 v 0.529167 0.529167 h -1.058333 -1.058334 v 0.529166 0.529167 h -0.529167 -0.529166 z"
           id="path4676" /><path
           style="color:#000000;fill:#6875a5;-inkscape-stroke:none"
           d="m 69.800781,39.230469 v 0.578125 0.480468 h -1.009765 -1.107422 v 0.578125 0.480469 H 67.205078 66.625 v 1.636719 1.636719 h 1.636719 1.638672 V 44.042969 43.5625 h 3.654296 3.654297 v 4.183594 4.183593 h -0.480468 -0.578125 v 1.109375 1.007813 h -0.480469 -0.578125 v 1.107422 1.009765 h -0.478516 -0.580078 v 1.107422 1.007813 h -0.478516 -0.580078 v 1.109375 1.007812 h -0.478515 -0.580078 v 0.580078 0.478516 H 71.4375 70.857422 v 0.580078 0.478516 h -1.007813 -1.107422 v 0.578125 0.480469 h -0.480468 -0.578125 v 1.107421 1.007813 h -1.007813 -1.009765 v -0.478516 -0.578125 h -1.636719 -1.53711 v -0.480468 -0.578125 h -1.638671 -1.53711 v -0.480469 -0.578125 h -1.636719 -1.537109 v -0.478516 -0.580078 h -3.226562 -3.22461 v 0.580078 0.478516 h -1.537109 -1.636719 v 0.578125 0.480469 h -1.539062 -1.636719 v 0.578125 0.480468 h -1.53711 -1.638671 v 0.578125 0.478516 h -1.53711 -1.537109 v -0.478516 -0.478515 h 0.478515 0.580079 v -0.580078 -0.578125 h -0.580079 -0.578125 v 0.578125 0.480468 H 36.511719 35.933594 V 65.208984 65.6875 H 35.455078 34.875 v 0.580078 0.478516 h -0.478516 -0.580078 v 0.580078 0.578125 h 1.638672 1.636719 v -0.578125 -0.478516 h 1.537109 1.638672 v -0.580078 -0.478516 h 1.537109 1.636719 v -0.580078 -0.478515 h 1.53711 1.638671 v -0.580078 -0.478516 h 1.53711 1.636719 v -0.580078 -0.478516 h 3.125 3.125 v 0.478516 0.580078 h 1.638671 1.53711 v 0.478516 0.580078 h 1.636719 1.539062 v 0.478515 0.580078 h 1.636719 1.537109 v 0.478516 0.580078 h 1.109375 1.107422 v -0.580078 -0.478516 h 0.478516 0.580078 v -0.580078 -0.478515 h 0.478515 0.580079 v -0.580078 -0.478516 h 0.478515 0.580078 v -0.580078 -0.478516 h 0.478516 0.580078 v -0.578125 -0.480469 h 0.478516 0.578125 v -0.578125 -0.480468 h 0.480468 0.578125 v -1.107422 -1.007813 h 0.480469 0.578125 V 57.271484 56.263672 H 75.669922 76.25 v -1.109375 -1.007813 h 0.478516 0.580078 v -1.107422 -1.009765 h 0.478515 0.580078 v -4.283203 -4.283203 h -0.580078 -0.478515 v -0.478516 -0.580078 h -3.753907 -3.753906 v 0.580078 0.478516 h -1.009765 -1.007813 v -1.007813 -1.007812 h 1.007813 1.109375 v -0.580079 -0.478515 h 3.654296 3.654297 v 0.478515 0.580079 h 1.107422 1.007813 v 0.478515 0.580078 h 0.580078 0.478515 v 1.007813 1.107422 h 0.580079 0.478515 v 4.71289 4.712891 h -0.478515 -0.580079 v 2.166016 2.066406 h -0.478515 -0.580078 v 1.109375 1.107422 h 0.580078 0.578125 v -1.107422 -1.007813 h 0.480469 0.578125 v -2.167968 -2.066407 h 0.480468 0.578125 v -4.8125 -4.8125 h -0.578125 -0.480468 v -1.007812 -1.109375 h -0.578125 -0.480469 v -0.478516 -0.578125 h -0.578125 -0.478516 v -0.480469 -0.578125 h -1.109375 -1.007812 v -0.480468 -0.578125 h -3.753907 z m 0.09961,0.09961 h 3.654296 3.654297 v 0.478516 0.480468 h -3.654297 -3.654296 v -0.480468 z m -2.117188,1.058594 h 1.007813 1.009765 v 0.478515 0.480469 h -1.009765 -1.007813 v -0.480469 z m 9.525391,0 h 1.007812 1.007813 v 0.478515 0.480469 h -1.007813 -1.007812 v -0.480469 z m -10.583985,1.058594 h 0.480469 0.478516 v 1.007812 1.107422 h 1.107422 1.009765 v 0.480469 0.478515 h -1.539062 -1.53711 v -1.537109 z m 12.701172,0 h 0.478516 0.478515 v 0.478515 0.478516 h -0.478515 -0.478516 v -0.478516 z m -9.52539,1.058593 h 3.654296 3.654297 v 0.478516 0.478516 h -3.654297 -3.654296 v -0.478516 z m 10.582031,0 h 0.480469 0.478515 v 1.007813 1.007812 h -0.478515 -0.480469 v -1.007813 z m -3.173828,1.05664 h 0.478515 0.480469 v 4.183594 4.183593 H 77.787109 77.308594 V 47.746094 Z M 34.875,44.521484 v 0.580078 0.478516 h -1.007813 -1.109375 v 0.580078 0.478516 h -0.478515 -0.580078 v 0.578125 0.480469 h -0.478516 -0.578125 v 0.578125 0.580078 h 0.578125 0.580078 v -0.580078 -0.478516 h 1.007813 1.107422 v -0.580078 -0.478516 h 0.480468 0.578125 v -0.578125 -0.480469 h 1.007813 1.109375 v -0.578125 -0.580078 h -1.109375 z m 0.09961,0.09961 h 1.007813 1.009765 v 0.480468 0.478516 H 35.982423 34.97461 v -0.478516 z m 46.566407,0 H 82.021484 82.5 v 4.71289 4.712891 H 82.021484 81.541016 V 49.333984 Z M 32.857422,45.679687 H 33.867187 34.875 v 0.480469 0.478516 h -0.478516 -0.580078 v 0.578125 0.480469 h -1.007812 -1.007813 v -0.480469 -0.478516 h 0.478516 0.578125 v -0.578125 z m 4.134765,0.958985 v 3.753906 3.753906 h 0.578125 0.580079 v -3.753906 -3.753906 h -0.580079 z m 0.09961,0.09961 h 0.478515 0.480469 v 3.654297 3.654297 h -0.480469 -0.478515 v -3.654297 z m -6.34961,1.058594 h 0.478516 0.478516 v 0.478516 0.480468 h -0.478516 -0.478516 v -0.480468 z m -2.216796,0.958984 v 0.578125 0.478516 h -0.480469 -0.578125 v 0.580078 0.478516 h -4.712891 -4.8125 v 0.580078 0.478515 H 16.933594 15.925781 V 51.451172 50.871094 H 14.287109 12.75 V 50.392578 49.8125 H 7.9375 3.125 v 0.580078 0.580078 h 4.8125 4.712891 v 0.478516 0.478515 h -1.53711 -1.6386716 v 1.109375 1.007813 H 8.9960938 8.4160156 v 1.107422 1.009765 H 7.9375 7.4589844 V 55.683594 55.105469 H 6.8789062 6.4003906 V 54.625 54.046875 H 5.8203125 5.3417969 V 53.568359 52.988281 H 4.7617187 4.2832031 V 52.509766 51.929687 H 3.7050781 3.125 v 0.580079 0.578125 h 0.5800781 0.4785156 v 0.480468 0.578125 h 0.578125 0.4804688 V 54.625 55.205078 h 0.578125 0.4804687 v 0.478516 0.580078 h 0.578125 0.4785157 v 0.478515 0.580079 H 7.9375 8.4160156 v 1.537109 1.537109 H 7.9375 7.3574219 v 0.580078 0.578125 H 7.9375 8.5175781 v -0.578125 -0.480468 h 0.4785157 0.578125 V 58.859375 57.222656 H 8.9960938 8.5175781 v -0.480469 -0.478515 h 0.4785157 0.578125 v -0.580078 -0.478516 h 1.0097652 1.107422 V 54.097656 53.087891 H 12.169922 12.75 v -0.578125 -0.480469 h 1.007813 1.009765 v 0.480469 0.578125 h 1.636719 1.636719 v -0.578125 -0.480469 h 4.71289 4.8125 V 51.451172 50.972656 H 28.044922 28.625 v -0.580078 -0.478516 h 0.478516 0.580078 v -0.580078 -0.578125 h -0.580078 z m 0.09961,0.09961 h 0.478516 0.480468 V 49.333984 49.8125 H 29.103516 28.625 v -0.478516 z m 2.017578,0.957031 v 0.580078 0.478516 H 30.16211 29.583985 v 0.580078 0.578125 h 1.636719 1.537109 v 0.480469 0.578125 h 0.580079 0.578125 v -0.578125 -0.480469 h 1.009765 1.107422 V 51.451172 50.871094 H 35.455078 34.974609 V 50.392578 49.8125 H 32.808594 Z M 3.2246094,49.914062 H 7.9375 12.650391 v 0.478516 0.478516 H 7.9375 3.2246094 v -0.478516 z m 24.3417966,0 h 0.478516 0.480469 v 0.478516 0.478516 h -0.480469 -0.478516 v -0.478516 z m 3.175781,0 H 32.808594 34.875 v 0.478516 0.580078 h 0.580078 0.478516 v 0.478516 0.478515 h -1.007813 -1.109375 v 0.580079 0.478515 h -0.478515 -0.480469 v -0.478515 -0.580079 h -1.636719 -1.537109 v -0.478515 -0.478516 h 0.478515 0.580078 V 50.392578 Z M 12.75,50.972656 h 1.537109 1.53711 v 0.478516 0.578125 h 1.109375 1.007812 v 0.480469 0.478515 H 16.404297 14.867188 V 52.509766 51.929687 H 13.757813 12.75 v -0.478515 z m 5.291016,0 h 4.71289 4.712891 v 0.478516 0.478515 h -4.712891 -4.71289 V 51.451172 Z M 3.2246094,52.029297 h 0.4804687 0.4785156 v 0.480469 0.478515 H 3.7050781 3.2246094 v -0.478515 z m 6.3496094,0 h 1.5390622 1.53711 v 0.480469 0.478515 h -0.480469 -0.578125 v 1.109375 1.007813 H 10.583984 9.4746094 v 0.578125 0.480468 H 8.9960938 8.5175781 v -1.009765 -1.007813 h 0.4785157 0.578125 v -1.107422 z m 66.6757812,0 h 0.478516 0.480468 v 1.009765 1.007813 H 76.728516 76.25 V 53.039062 Z M 4.2832031,53.087891 h 0.4785156 0.4804688 v 0.480468 0.478516 H 4.7617187 4.2832031 v -0.478516 z m 1.0585938,1.058593 H 5.8203125 6.3007812 V 54.625 55.105469 H 5.8203125 5.3417969 V 54.625 Z m 69.8496091,0 h 0.478516 0.480469 v 1.007813 1.009765 h -0.480469 -0.478516 v -1.009765 z m 5.291016,0 h 0.480469 0.478515 v 2.066407 2.066406 h -0.478515 -0.480469 v -2.066406 z m -44.548828,0.958985 v 0.578125 0.580078 h 0.578125 0.480468 v 0.478515 0.580079 h 0.578125 0.480469 v 0.478515 0.580078 h 0.578125 0.580078 v -0.580078 -0.578125 h -0.580078 -0.478515 v -0.480469 -0.578125 h -0.580079 -0.478515 v -0.480468 -0.578125 h -0.580078 z m -29.5332034,0.09961 h 0.4785156 0.4785157 v 0.478516 0.480468 H 6.8789062 6.4003906 v -0.480468 z m 29.6328124,0 h 0.478516 0.480468 v 0.478516 0.480468 H 36.511719 36.033203 V 55.683594 Z M 7.4589844,56.263672 H 7.9375 8.4160156 v 0.478515 0.480469 H 7.9375 7.4589844 v -0.480469 z m 29.6328126,0 h 0.478515 0.480469 v 0.478515 0.480469 h -0.480469 -0.478515 v -0.480469 z m 37.041015,0 h 0.480469 0.478516 v 1.007812 1.007813 H 74.613281 74.132812 V 57.271484 Z M 8.5175781,57.322266 h 0.4785157 0.4785156 v 1.537109 1.537109 H 8.9960938 8.5175781 v -1.537109 z m 29.6328129,0 h 0.478515 0.478516 v 0.478515 0.478516 h -0.478516 -0.478515 v -0.478516 z m 34.923828,1.058593 h 0.480468 0.478516 v 1.007813 1.007812 h -0.478516 -0.480468 v -1.007812 z m 6.351562,0 h 0.478516 0.478515 v 1.007813 1.007812 h -0.478515 -0.478516 v -1.007812 z m -40.318359,0.957032 v 1.109375 1.107421 H 39.6875 40.267578 V 60.447266 59.337891 H 39.6875 Z m 0.101562,0.09961 h 0.478516 0.478516 v 1.009766 1.007812 H 39.6875 39.208984 V 60.447266 Z M 7.4589844,60.496094 H 7.9375 8.4160156 v 0.480468 0.478516 H 7.9375 7.4589844 v -0.478516 z m 64.5585936,0 h 0.478516 0.478515 v 0.480468 0.478516 h -0.478515 -0.478516 v -0.478516 z m 6.25,0.958984 v 0.580078 0.478516 h -0.480469 -0.578125 v 1.107422 1.009765 h -0.480468 -0.578125 v 1.107422 1.007813 H 75.669922 75.091797 V 71.029297 75.3125 H 75.669922 76.25 v -4.283203 -4.181641 h 0.478516 0.580078 v -1.109375 -1.007812 h 0.478515 0.580078 v -1.109375 -1.007813 h 0.478516 0.580078 v -0.578125 -0.580078 h -0.580078 z m -28.476562,0.09961 h 3.125 3.125 v 0.480469 0.478516 h -3.125 -3.125 v -0.478516 z m 21.167968,0 h 0.478516 0.478516 v 0.480469 0.478516 H 71.4375 70.958984 v -0.478516 z m 7.408203,0 h 0.478516 0.478516 v 0.480469 0.478516 H 78.845703 78.367187 V 62.035156 Z M 7.3574219,62.513672 v 1.107422 1.109375 H 7.9375 8.5175781 V 63.621094 62.513672 H 7.9375 Z m 0.1015625,0.09961 H 7.9375 8.4160156 v 1.007813 1.009765 H 7.9375 7.4589844 v -1.009765 z m 39.1582026,0 h 1.53711 1.537109 v 0.478516 0.480469 h -1.537109 -1.53711 v -0.480469 z m 9.525391,0 h 1.537109 1.53711 v 0.478516 0.480469 h -1.53711 -1.537109 v -0.480469 z m 12.699219,0 h 1.007812 1.007813 v 0.478516 0.480469 h -0.478516 -0.578125 v 0.578125 0.480468 h -0.480469 -0.578125 v 0.578125 0.478516 h -0.480468 -0.478516 v -1.007813 -1.007812 h 0.478516 0.580078 v -0.580078 z m 8.466797,0 h 0.478515 0.480469 v 1.007813 1.009765 h -0.480469 -0.478515 v -1.009765 z m -40.216797,1.058594 h 0.478515 0.480469 v 0.478516 0.480468 h -0.480469 -0.478515 v -0.480468 z m 6.349609,0 h 1.53711 1.539062 v 0.478516 0.480468 h -1.539062 -1.53711 v -0.480468 z m 15.875,0 h 1.53711 1.539062 v 0.478516 0.480468 h -1.539062 -1.53711 V 64.150392 Z M 36.033203,64.73047 h 0.478516 0.480468 v 0.478515 0.478516 h -0.480468 -0.478516 v -0.478516 z m 4.234375,0 h 1.537109 1.53711 v 0.478515 0.478516 h -1.53711 -1.537109 v -0.478516 z m 22.224609,0 h 1.53711 1.537109 v 0.478515 0.478516 h -1.537109 -1.53711 v -0.478516 z m 13.757813,0 h 0.478516 0.480468 v 1.007812 1.007813 H 76.728516 76.25 V 65.738281 Z M 8.4160156,65.6875 v 0.580078 0.580078 h 1.109375 1.0078124 v 0.478516 0.578125 h 1.109375 1.007813 v 0.480469 0.578125 h 1.636718 1.53711 v 0.480468 0.578125 h 1.109375 1.107422 V 69.443359 68.863281 H 16.933594 15.925781 V 68.384766 67.804687 H 14.287109 12.75 V 67.326172 66.746094 H 11.642578 10.632813 V 66.267578 65.6875 H 9.5253906 Z m 0.1015625,0.101562 h 1.0078125 1.0078124 v 0.478516 0.478516 H 9.5253906 8.5175781 v -0.478516 z m 26.4570309,0 h 0.480469 0.478516 v 0.478516 0.580078 h 0.578125 0.480468 v 0.478516 0.478515 h -1.537109 -1.539062 v -0.478515 -0.478516 h 0.480468 0.578125 v -0.580078 z m 1.058594,0 h 0.478516 0.480468 v 0.478516 0.478516 h -0.480468 -0.478516 v -0.478516 z m 1.058594,0 h 1.537109 1.53711 v 0.478516 0.478516 h -1.53711 -1.537109 v -0.478516 z m 28.574219,0 h 1.009765 1.007813 v 0.478516 0.478516 h -1.007813 -1.009765 v -0.478516 z m -55.033203,1.058594 h 1.009765 1.007813 v 0.478516 0.478515 h -1.007813 -1.009765 v -0.478515 z m 64.558593,0 h 0.478516 0.480469 v 4.181641 4.183594 h -0.480469 -0.478516 v -4.183594 z m -44.548828,0.957031 v 0.580079 0.578125 h 0.578125 0.580078 V 68.384766 67.804687 H 31.220703 Z M 12.75,67.904297 h 1.537109 1.53711 v 0.480469 0.478515 H 14.287109 12.75 v -0.478515 z m 17.992187,0 h 0.478516 0.478516 v 0.480469 0.478515 h -0.478516 -0.478516 v -0.478515 z m -4.333984,0.958984 v 0.580078 0.578125 H 27.517578 28.625 v -0.578125 -0.580078 h -1.107422 z m -10.482422,0.09961 h 1.007813 1.007812 v 0.480468 0.478516 h -1.007812 -1.007813 v -0.478516 z m 10.582031,0 h 1.009766 1.007813 v 0.480468 0.478516 h -1.007813 -1.009766 v -0.478516 z m -8.566406,4.134765 v 0.578125 0.580078 h 0.580078 0.578125 v -0.580078 -0.578125 h -0.578125 z m 0.09961,0.09961 H 18.521484 19 v 0.478515 0.478516 h -0.478516 -0.480468 v -0.478516 z m 2.017578,3.074218 v 0.580078 0.578125 h 0.578125 0.580078 v -0.578125 -0.580078 h -0.580078 z m 53.974609,0 v 1.109375 1.007813 h -0.478516 -0.580078 v 0.578125 0.480469 h -0.478515 -0.580078 v 0.578125 0.480468 H 71.4375 70.857422 v 0.578125 0.580078 h 0.580078 0.580078 v -0.580078 -0.478515 h 0.478516 0.578125 v -0.580078 -0.478516 h 0.480468 0.578125 v -0.580078 -0.478516 h 0.480469 0.578125 v -1.107422 -1.109375 h -0.578125 z m -53.875,0.09961 h 0.478516 0.480468 v 0.480468 0.478516 h -0.480468 -0.478516 v -0.478516 z m 53.974609,0 h 0.480469 0.478516 v 1.009765 1.007813 h -0.478516 -0.480469 v -1.007813 z m -53.015625,2.017578 v 0.578125 0.580078 h 0.578125 0.480469 v 0.478516 0.580078 h 0.578125 0.478516 v 0.478515 0.580078 h 0.580078 0.478516 v 0.478516 0.580078 h 0.580078 0.578125 V 82.142578 81.5625 H 24.871094 24.392578 V 81.083984 80.505859 H 23.8125 23.333984 v -0.480468 -0.578125 h -0.580078 -0.478515 v -0.480469 -0.578125 h -0.580079 z m 0.09961,0.09961 h 0.478515 0.480469 v 0.478516 0.480469 h -0.480469 -0.478515 v -0.480469 z m 51.857422,0 h 0.480468 0.478516 v 0.478516 0.480469 h -0.478516 -0.480468 v -0.480469 z m -50.798828,1.058594 h 0.478515 0.478516 v 0.478516 0.480468 h -0.478516 -0.478515 v -0.480468 z m 49.742187,0 h 0.478516 0.478515 v 0.478516 0.480468 H 72.496094 72.017578 V 80.025391 Z M 23.333984,80.605469 H 23.8125 24.291016 V 81.083984 81.5625 H 23.8125 23.333984 v -0.478516 z m 47.625,0 H 71.4375 71.916016 V 81.083984 81.5625 H 71.4375 70.958984 V 81.083984 Z M 68.742187,81.5625 v 0.580078 0.580078 h 0.578125 0.580079 V 82.142578 81.5625 h -0.580079 z m -44.349609,0.101562 h 0.478516 0.478515 v 0.478516 0.478516 h -0.478515 -0.478516 v -0.478516 z m 44.449219,0 h 0.478515 0.480469 v 0.478516 0.478516 h -0.480469 -0.478515 v -0.478516 z m -42.433594,0.957032 v 0.580078 0.578125 h 0.580078 0.578125 v -0.578125 -0.580078 h -0.578125 z m 39.158203,0 v 0.580078 0.578125 h 1.109375 1.107422 v -0.578125 -0.580078 h -1.107422 z m -39.058594,0.101562 h 0.480469 0.478516 v 0.478516 0.478515 h -0.478516 -0.480469 v -0.478515 z m 39.158204,0 h 1.009765 1.007813 v 0.478516 0.478515 h -1.007813 -1.009765 v -0.478515 z m -37.140625,0.957031 v 0.580079 0.578125 h 1.107421 1.009766 v 0.480468 0.578125 h 6.398438 6.40039 v -0.578125 -0.580078 h -6.40039 -6.298829 v -0.478515 -0.580079 h -1.109375 z m 32.808593,0 v 0.580079 0.578125 h 1.107422 1.109375 V 84.259766 83.679687 H 62.441406 Z M 28.625,83.779297 h 1.007812 1.009766 v 0.480469 0.478515 H 29.632812 28.625 v -0.478515 z m 32.808594,0 h 1.007812 1.007813 v 0.480469 0.478515 h -1.007813 -1.007812 v -0.478515 z m -14.916016,0.958984 v 0.580078 0.578125 h 4.8125 4.8125 v -0.578125 -0.580078 h -4.8125 z m -15.775391,0.09961 h 6.298829 6.300781 v 0.480468 0.478516 h -6.300781 -6.298829 v -0.478516 z m 15.875,0 h 4.712891 4.710938 v 0.480468 0.478516 h -4.710938 -4.712891 v -0.478516 z"
           id="path4678" /></g><path
         style="fill:#6f2e53;stroke-width:0.264583"
         d="m 16.933334,65.209184 v -0.529166 h -0.529167 -0.529166 v -0.529167 -0.529167 h -0.529167 -0.529167 v -1.058333 -1.058333 h 0.529167 0.529167 v 1.058333 1.058333 h 0.529166 0.529167 v 0.529167 0.529167 h 1.5875 1.5875 v -0.529167 -0.529167 h 0.529167 0.529166 v -1.5875 -1.5875 h 0.529167 0.529167 v 0.529167 0.529167 h 0.529166 0.529167 v 0.529166 0.529167 h 0.529167 0.529167 v 0.529167 0.529166 h 1.5875 1.5875 v -0.529166 -0.529167 h 0.529166 0.529167 v -1.5875 -1.5875 h 0.529167 0.529166 v 1.5875 1.5875 h -0.529166 -0.529167 v 0.529167 0.529166 h -0.529167 -0.529166 v 0.529167 0.529167 h -1.5875 -1.5875 v -0.529167 -0.529167 h -0.529167 -0.529167 v -0.529166 -0.529167 h -0.529167 -0.529166 v 0.529167 0.529166 h -0.529167 -0.529167 v 0.529167 0.529167 h -0.529166 -0.529167 v 0.529166 0.529167 h -1.5875 -1.5875 z M 8.466667,56.742518 V 56.213351 H 7.9375003 7.4083336 V 55.684184 55.155018 H 6.8791669 6.3500002 V 54.625851 54.096684 H 5.8208335 5.2916669 V 53.567518 53.038351 H 4.7625002 4.2333335 V 51.980018 50.921684 H 8.466667 12.7 v 0.529167 0.529167 h 1.058334 1.058333 v 0.529166 0.529167 H 13.758334 12.7 v 0.529167 0.529166 H 12.170834 11.641667 V 53.567518 53.038351 H 12.170834 12.7 V 52.509184 51.980018 H 11.1125 9.5250003 v 1.058333 1.058333 H 8.9958337 8.466667 v 1.058334 1.058333 h 0.5291667 0.5291666 v -0.529167 -0.529166 h 0.5291667 0.529167 v 0.529166 0.529167 H 10.054167 9.5250003 v 0.529167 0.529166 H 8.9958337 8.466667 Z m 27.516668,-2.116667 v -0.529167 h -0.529167 -0.529167 v -0.529166 -0.529167 h -0.529166 -0.529167 v -0.529167 -0.529166 h 1.058333 1.058334 v -0.529167 -0.529167 h -0.529167 -0.529167 v -0.529166 -0.529167 h -2.116666 -2.116667 v 0.529167 0.529166 h -1.058334 -1.058333 v -0.529166 -0.529167 h 0.529167 0.529166 v -0.529166 -0.529167 h 1.058334 1.058333 v -0.529167 -0.529166 h 1.058334 1.058333 v -0.529167 -0.529167 h 0.529167 0.529166 v -0.529166 -0.529167 h 1.058334 1.058333 v 4.7625 4.7625 h -0.529167 -0.529166 z"
         id="path3514" /><path
         style="fill:#273466;stroke-width:0.264583"
         d="m 26.458334,79.496684 v -1.058333 h -0.529166 -0.529167 v 0.529166 0.529167 h -0.529167 -0.529166 v -0.529167 -0.529166 h -1.058334 -1.058333 v -0.529167 -0.529167 h -0.529167 -0.529167 v -0.529166 -0.529167 h -0.529166 -0.529167 v -0.529167 -0.529166 h -0.529167 -0.529166 v -1.058334 -1.058333 h -0.529167 -0.529167 v -0.529166 -0.529167 h -0.529166 -0.529167 v -1.058333 -1.058334 h 1.058333 1.058334 v 0.529167 0.529167 h 1.058333 1.058333 v 0.529166 0.529167 h 0.529167 0.529167 v 0.529167 0.529166 h 1.058333 1.058334 v 0.529167 0.529166 h 0.529166 0.529167 v 0.529167 0.529167 h 0.529167 0.529166 v 0.529166 0.529167 h 1.058334 1.058333 v -1.5875 -1.5875 h 0.529167 0.529166 v -1.058333 -1.058333 h 0.529167 0.529167 v -0.529167 -0.529167 h 0.529166 0.529167 v -0.529166 -0.529167 h 0.529167 0.529167 v -0.529167 -0.529166 h 1.058333 1.058333 v 0.529166 0.529167 h -0.529166 -0.529167 v 2.645833 2.645833 h -0.529167 -0.529166 v 1.058334 1.058333 h -0.529167 -0.529167 v 0.529167 0.529166 h -0.529167 -0.529166 v 0.529167 0.529167 h -0.529167 -0.529167 v 0.529166 0.529167 h -1.058333 -1.058333 v 0.529167 0.529166 h -0.529167 -0.529167 z m -1.058333,-7.408333 v -1.058333 h 0.529167 0.529166 v 1.058333 1.058333 h -0.529166 -0.529167 z m -9.525,-13.229167 v -1.5875 h 1.058333 1.058333 v 1.5875 1.5875 h -1.058333 -1.058333 z m 7.408333,-1.058333 v -1.5875 h 1.058334 1.058333 v 1.5875 1.5875 H 24.341668 23.283334 Z M 9.5250003,47.217518 v -0.529167 h 0.5291667 0.529167 v -0.529166 -0.529167 h 1.5875 1.5875 v 0.529167 0.529166 h -1.5875 -1.5875 v 0.529167 0.529167 H 10.054167 9.5250003 Z"
         id="path3512" /></g></g></svg>
